<?xml version="1.0" encoding="UTF-8" standalone="no"?>
<!DOCTYPE svg PUBLIC "-//W3C//DTD SVG 1.1//EN"
 "http://www.w3.org/Graphics/SVG/1.1/DTD/svg11.dtd">
<!-- Generated by graphviz version 2.43.0 (0)
 -->
<!-- Title: kanon::ConnectionBase&lt; D &gt; Pages: 1 -->
<svg width="214pt" height="93pt"
 viewBox="0.00 0.00 214.00 93.00" xmlns="http://www.w3.org/2000/svg" xmlns:xlink="http://www.w3.org/1999/xlink">
<g id="graph0" class="graph" transform="scale(1 1) rotate(0) translate(4 89)">
<title>kanon::ConnectionBase&lt; D &gt;</title>
<!-- Node1 -->
<g id="node1" class="node">
<title>Node1</title>
<g id="a_node1"><a xlink:title=" ">
<polygon fill="#999999" stroke="#666666" points="176,-19 15,-19 15,0 176,0 176,-19"/>
<text text-anchor="middle" x="95.5" y="-7" font-family="Helvetica,sans-Serif" font-size="10.00">kanon::ConnectionBase&lt; D &gt;</text>
</a>
</g>
</g>
<!-- Node2 -->
<g id="node2" class="node">
<title>Node2</title>
<g id="a_node2"><a xlink:title=" ">
<polygon fill="white" stroke="#bfbfbf" points="79,-79.5 0,-79.5 0,-60.5 79,-60.5 79,-79.5"/>
<text text-anchor="middle" x="39.5" y="-67.5" font-family="Helvetica,sans-Serif" font-size="10.00">noncopyable</text>
</a>
</g>
</g>
<!-- Node2&#45;&gt;Node1 -->
<g id="edge1" class="edge">
<title>Node2&#45;&gt;Node1</title>
<path fill="none" stroke="#8b1a1a" d="M54.73,-53.09C65.19,-42.17 78.67,-28.08 87.2,-19.17"/>
<polygon fill="#8b1a1a" stroke="#8b1a1a" points="52.15,-50.72 47.76,-60.37 57.21,-55.56 52.15,-50.72"/>
</g>
<!-- Node3 -->
<g id="node3" class="node">
<title>Node3</title>
<g id="a_node3"><a xlink:title=" ">
<polygon fill="white" stroke="#bfbfbf" points="206,-85 97,-85 97,-55 206,-55 206,-85"/>
<text text-anchor="start" x="105" y="-73" font-family="Helvetica,sans-Serif" font-size="10.00">std::enable_shared</text>
<text text-anchor="middle" x="151.5" y="-62" font-family="Helvetica,sans-Serif" font-size="10.00">_from_this&lt; D &gt;</text>
</a>
</g>
</g>
<!-- Node3&#45;&gt;Node1 -->
<g id="edge2" class="edge">
<title>Node3&#45;&gt;Node1</title>
<path fill="none" stroke="#63b8ff" d="M130.8,-47.38C121.48,-37.64 110.99,-26.69 103.89,-19.27"/>
<polygon fill="#63b8ff" stroke="#63b8ff" points="128.5,-50.04 137.94,-54.84 133.56,-45.19 128.5,-50.04"/>
</g>
</g>
</svg>
