<?xml version="1.0" encoding="UTF-8" standalone="no"?>
<!DOCTYPE svg PUBLIC "-//W3C//DTD SVG 1.1//EN"
 "http://www.w3.org/Graphics/SVG/1.1/DTD/svg11.dtd">
<!-- Generated by graphviz version 2.43.0 (0)
 -->
<!-- Title: kanon::TcpClient Pages: 1 -->
<svg width="321pt" height="160pt"
 viewBox="0.00 0.00 321.00 160.00" xmlns="http://www.w3.org/2000/svg" xmlns:xlink="http://www.w3.org/1999/xlink">
<g id="graph0" class="graph" transform="scale(1 1) rotate(0) translate(4 156)">
<title>kanon::TcpClient</title>
<!-- Node1 -->
<g id="node1" class="node">
<title>Node1</title>
<g id="a_node1"><a xlink:title="A Tcp client instance.">
<polygon fill="#999999" stroke="#666666" points="156,-19 59,-19 59,0 156,0 156,-19"/>
<text text-anchor="middle" x="107.5" y="-7" font-family="Helvetica,sans-Serif" font-size="10.00">kanon::TcpClient</text>
</a>
</g>
</g>
<!-- Node2 -->
<g id="node2" class="node">
<title>Node2</title>
<g id="a_node2"><a xlink:title=" ">
<polygon fill="white" stroke="#bfbfbf" points="79,-152 0,-152 0,-133 79,-133 79,-152"/>
<text text-anchor="middle" x="39.5" y="-140" font-family="Helvetica,sans-Serif" font-size="10.00">noncopyable</text>
</a>
</g>
</g>
<!-- Node2&#45;&gt;Node1 -->
<g id="edge1" class="edge">
<title>Node2&#45;&gt;Node1</title>
<path fill="none" stroke="#8b1a1a" d="M37.57,-122.37C36.8,-106.45 37.71,-83.63 46.5,-66 56.85,-45.24 78.53,-28.53 93.05,-19.06"/>
<polygon fill="#8b1a1a" stroke="#8b1a1a" points="34.1,-122.86 38.33,-132.57 41.08,-122.33 34.1,-122.86"/>
</g>
<!-- Node4 -->
<g id="node4" class="node">
<title>Node4</title>
<g id="a_node4"><a xlink:href="classkanon_1_1EventLoop.html" target="_top" xlink:title="A loop that process various events.">
<polygon fill="white" stroke="#666666" points="159.5,-90.5 55.5,-90.5 55.5,-71.5 159.5,-71.5 159.5,-90.5"/>
<text text-anchor="middle" x="107.5" y="-78.5" font-family="Helvetica,sans-Serif" font-size="10.00">kanon::EventLoop</text>
</a>
</g>
</g>
<!-- Node2&#45;&gt;Node4 -->
<g id="edge4" class="edge">
<title>Node2&#45;&gt;Node4</title>
<path fill="none" stroke="#8b1a1a" d="M57.04,-126.15C70.01,-114.81 87.18,-99.78 97.78,-90.51"/>
<polygon fill="#8b1a1a" stroke="#8b1a1a" points="54.46,-123.76 49.24,-132.98 59.07,-129.02 54.46,-123.76"/>
</g>
<!-- Node3 -->
<g id="node3" class="node">
<title>Node3</title>
<g id="a_node3"><a xlink:title=" ">
<polygon fill="white" stroke="#bfbfbf" points="313,-96 178,-96 178,-66 313,-66 313,-96"/>
<text text-anchor="start" x="186" y="-84" font-family="Helvetica,sans-Serif" font-size="10.00">std::enable_shared</text>
<text text-anchor="middle" x="245.5" y="-73" font-family="Helvetica,sans-Serif" font-size="10.00">_from_this&lt; TcpClient &gt;</text>
</a>
</g>
</g>
<!-- Node3&#45;&gt;Node1 -->
<g id="edge2" class="edge">
<title>Node3&#45;&gt;Node1</title>
<path fill="none" stroke="#63b8ff" d="M208.32,-61.28C181.05,-47.54 145.3,-29.53 124.51,-19.07"/>
<polygon fill="#63b8ff" stroke="#63b8ff" points="207.07,-64.56 217.57,-65.94 210.22,-58.31 207.07,-64.56"/>
</g>
<!-- Node4&#45;&gt;Node1 -->
<g id="edge3" class="edge">
<title>Node4&#45;&gt;Node1</title>
<path fill="none" stroke="#9a32cd" stroke-dasharray="5,2" d="M107.5,-61.21C107.5,-47.5 107.5,-29.55 107.5,-19.09"/>
<polygon fill="#9a32cd" stroke="#9a32cd" points="104,-61.48 107.5,-71.48 111,-61.48 104,-61.48"/>
<text text-anchor="middle" x="122.5" y="-40" font-family="Helvetica,sans-Serif" font-size="10.00"> loop_</text>
</g>
</g>
</svg>
