<?xml version="1.0" encoding="UTF-8" standalone="no"?>
<!DOCTYPE svg PUBLIC "-//W3C//DTD SVG 1.1//EN"
 "http://www.w3.org/Graphics/SVG/1.1/DTD/svg11.dtd">
<!-- Generated by graphviz version 2.43.0 (0)
 -->
<!-- Title: kanon::TimerId Pages: 1 -->
<svg width="179pt" height="159pt"
 viewBox="0.00 0.00 178.50 159.00" xmlns="http://www.w3.org/2000/svg" xmlns:xlink="http://www.w3.org/1999/xlink">
<g id="graph0" class="graph" transform="scale(1 1) rotate(0) translate(4 155)">
<title>kanon::TimerId</title>
<!-- Node1 -->
<g id="node1" class="node">
<title>Node1</title>
<g id="a_node1"><a xlink:title="A Timer* wrapper.">
<polygon fill="#999999" stroke="#666666" points="131,-19 42,-19 42,0 131,0 131,-19"/>
<text text-anchor="middle" x="86.5" y="-7" font-family="Helvetica,sans-Serif" font-size="10.00">kanon::TimerId</text>
</a>
</g>
</g>
<!-- Node2 -->
<g id="node2" class="node">
<title>Node2</title>
<g id="a_node2"><a xlink:href="classkanon_1_1Timer.html" target="_top" xlink:title="Encapsulation of itimespec.">
<polygon fill="white" stroke="#666666" points="126.5,-85 46.5,-85 46.5,-66 126.5,-66 126.5,-85"/>
<text text-anchor="middle" x="86.5" y="-73" font-family="Helvetica,sans-Serif" font-size="10.00">kanon::Timer</text>
</a>
</g>
</g>
<!-- Node2&#45;&gt;Node1 -->
<g id="edge1" class="edge">
<title>Node2&#45;&gt;Node1</title>
<path fill="none" stroke="#9a32cd" stroke-dasharray="5,2" d="M86.5,-55.58C86.5,-43.63 86.5,-28.72 86.5,-19.41"/>
<polygon fill="#9a32cd" stroke="#9a32cd" points="83,-55.87 86.5,-65.87 90,-55.87 83,-55.87"/>
<text text-anchor="middle" x="104" y="-40" font-family="Helvetica,sans-Serif" font-size="10.00"> timer_</text>
</g>
<!-- Node3 -->
<g id="node3" class="node">
<title>Node3</title>
<g id="a_node3"><a xlink:title=" ">
<polygon fill="white" stroke="#bfbfbf" points="79,-151 0,-151 0,-132 79,-132 79,-151"/>
<text text-anchor="middle" x="39.5" y="-139" font-family="Helvetica,sans-Serif" font-size="10.00">noncopyable</text>
</a>
</g>
</g>
<!-- Node3&#45;&gt;Node2 -->
<g id="edge2" class="edge">
<title>Node3&#45;&gt;Node2</title>
<path fill="none" stroke="#8b1a1a" d="M51.79,-123.77C60.8,-111.49 72.7,-95.3 79.96,-85.41"/>
<polygon fill="#8b1a1a" stroke="#8b1a1a" points="48.94,-121.74 45.84,-131.87 54.58,-125.88 48.94,-121.74"/>
</g>
<!-- Node4 -->
<g id="node4" class="node">
<title>Node4</title>
<g id="a_node4"><a xlink:title=" ">
<polygon fill="white" stroke="#bfbfbf" points="169.5,-151 97.5,-151 97.5,-132 169.5,-132 169.5,-151"/>
<text text-anchor="middle" x="133.5" y="-139" font-family="Helvetica,sans-Serif" font-size="10.00">TimeStamp</text>
</a>
</g>
</g>
<!-- Node4&#45;&gt;Node2 -->
<g id="edge3" class="edge">
<title>Node4&#45;&gt;Node2</title>
<path fill="none" stroke="#9a32cd" stroke-dasharray="5,2" d="M121.21,-123.77C112.2,-111.49 100.3,-95.3 93.04,-85.41"/>
<polygon fill="#9a32cd" stroke="#9a32cd" points="118.42,-125.88 127.16,-131.87 124.06,-121.74 118.42,-125.88"/>
<text text-anchor="middle" x="141.5" y="-106" font-family="Helvetica,sans-Serif" font-size="10.00"> expiration_</text>
</g>
</g>
</svg>
