<?xml version="1.0" encoding="UTF-8" standalone="no"?>
<!DOCTYPE svg PUBLIC "-//W3C//DTD SVG 1.1//EN"
 "http://www.w3.org/Graphics/SVG/1.1/DTD/svg11.dtd">
<!-- Generated by graphviz version 2.43.0 (0)
 -->
<!-- Title: kanon::PollerBase Pages: 1 -->
<svg width="312pt" height="137pt"
 viewBox="0.00 0.00 312.00 137.00" xmlns="http://www.w3.org/2000/svg" xmlns:xlink="http://www.w3.org/1999/xlink">
<g id="graph0" class="graph" transform="scale(1 1) rotate(0) translate(4 133)">
<title>kanon::PollerBase</title>
<!-- Node1 -->
<g id="node1" class="node">
<title>Node1</title>
<g id="a_node1"><a xlink:title="Abstract base class of Poller and Epoller.">
<polygon fill="#999999" stroke="#666666" points="207,-74 103,-74 103,-55 207,-55 207,-74"/>
<text text-anchor="middle" x="155" y="-62" font-family="Helvetica,sans-Serif" font-size="10.00">kanon::PollerBase</text>
</a>
</g>
</g>
<!-- Node3 -->
<g id="node3" class="node">
<title>Node3</title>
<g id="a_node3"><a xlink:href="classkanon_1_1Epoller.html" target="_top" xlink:title="Demultiplexer (epoll(2) wrapper)">
<polygon fill="white" stroke="#666666" points="86,-19 0,-19 0,0 86,0 86,-19"/>
<text text-anchor="middle" x="43" y="-7" font-family="Helvetica,sans-Serif" font-size="10.00">kanon::Epoller</text>
</a>
</g>
</g>
<!-- Node1&#45;&gt;Node3 -->
<g id="edge2" class="edge">
<title>Node1&#45;&gt;Node3</title>
<path fill="none" stroke="#63b8ff" d="M127.81,-50.63C107.18,-40.87 79.38,-27.71 61.32,-19.17"/>
<polygon fill="#63b8ff" stroke="#63b8ff" points="126.47,-53.87 137.01,-54.98 129.46,-47.54 126.47,-53.87"/>
</g>
<!-- Node4 -->
<g id="node4" class="node">
<title>Node4</title>
<g id="a_node4"><a xlink:href="classkanon_1_1IocpPoller.html" target="_top" xlink:title=" ">
<polygon fill="white" stroke="#bfbfbf" points="205.5,-19 104.5,-19 104.5,0 205.5,0 205.5,-19"/>
<text text-anchor="middle" x="155" y="-7" font-family="Helvetica,sans-Serif" font-size="10.00">kanon::IocpPoller</text>
</a>
</g>
</g>
<!-- Node1&#45;&gt;Node4 -->
<g id="edge3" class="edge">
<title>Node1&#45;&gt;Node4</title>
<path fill="none" stroke="#63b8ff" d="M155,-44.66C155,-35.93 155,-25.99 155,-19.09"/>
<polygon fill="#63b8ff" stroke="#63b8ff" points="151.5,-44.75 155,-54.75 158.5,-44.75 151.5,-44.75"/>
</g>
<!-- Node5 -->
<g id="node5" class="node">
<title>Node5</title>
<g id="a_node5"><a xlink:href="classkanon_1_1Poller.html" target="_top" xlink:title="Demultiplexer (poll(2) wrapper)">
<polygon fill="white" stroke="#666666" points="304,-19 224,-19 224,0 304,0 304,-19"/>
<text text-anchor="middle" x="264" y="-7" font-family="Helvetica,sans-Serif" font-size="10.00">kanon::Poller</text>
</a>
</g>
</g>
<!-- Node1&#45;&gt;Node5 -->
<g id="edge4" class="edge">
<title>Node1&#45;&gt;Node5</title>
<path fill="none" stroke="#63b8ff" d="M181.73,-50.5C201.79,-40.75 228.68,-27.68 246.17,-19.17"/>
<polygon fill="#63b8ff" stroke="#63b8ff" points="179.98,-47.46 172.51,-54.98 183.04,-53.76 179.98,-47.46"/>
</g>
<!-- Node2 -->
<g id="node2" class="node">
<title>Node2</title>
<g id="a_node2"><a xlink:title=" ">
<polygon fill="white" stroke="#bfbfbf" points="194.5,-129 115.5,-129 115.5,-110 194.5,-110 194.5,-129"/>
<text text-anchor="middle" x="155" y="-117" font-family="Helvetica,sans-Serif" font-size="10.00">noncopyable</text>
</a>
</g>
</g>
<!-- Node2&#45;&gt;Node1 -->
<g id="edge1" class="edge">
<title>Node2&#45;&gt;Node1</title>
<path fill="none" stroke="#8b1a1a" d="M155,-99.66C155,-90.93 155,-80.99 155,-74.09"/>
<polygon fill="#8b1a1a" stroke="#8b1a1a" points="151.5,-99.75 155,-109.75 158.5,-99.75 151.5,-99.75"/>
</g>
</g>
</svg>
