<?xml version="1.0" encoding="UTF-8" standalone="no"?>
<!DOCTYPE svg PUBLIC "-//W3C//DTD SVG 1.1//EN"
 "http://www.w3.org/Graphics/SVG/1.1/DTD/svg11.dtd">
<!-- Generated by graphviz version 2.43.0 (0)
 -->
<!-- Title: kanon::Connector Pages: 1 -->
<svg width="246pt" height="93pt"
 viewBox="0.00 0.00 245.50 93.00" xmlns="http://www.w3.org/2000/svg" xmlns:xlink="http://www.w3.org/1999/xlink">
<g id="graph0" class="graph" transform="scale(1 1) rotate(0) translate(4 89)">
<title>kanon::Connector</title>
<!-- Node1 -->
<g id="node1" class="node">
<title>Node1</title>
<g id="a_node1"><a xlink:title="Connect to peer(server)">
<polygon fill="#999999" stroke="#666666" points="185,-19 83,-19 83,0 185,0 185,-19"/>
<text text-anchor="middle" x="134" y="-7" font-family="Helvetica,sans-Serif" font-size="10.00">kanon::Connector</text>
</a>
</g>
</g>
<!-- Node2 -->
<g id="node2" class="node">
<title>Node2</title>
<g id="a_node2"><a xlink:title=" ">
<polygon fill="white" stroke="#bfbfbf" points="140,-85 0,-85 0,-55 140,-55 140,-85"/>
<text text-anchor="start" x="8" y="-73" font-family="Helvetica,sans-Serif" font-size="10.00">std::enable_shared</text>
<text text-anchor="middle" x="70" y="-62" font-family="Helvetica,sans-Serif" font-size="10.00">_from_this&lt; Connector &gt;</text>
</a>
</g>
</g>
<!-- Node2&#45;&gt;Node1 -->
<g id="edge1" class="edge">
<title>Node2&#45;&gt;Node1</title>
<path fill="none" stroke="#63b8ff" d="M93.02,-47.96C103.83,-38.07 116.13,-26.83 124.41,-19.27"/>
<polygon fill="#63b8ff" stroke="#63b8ff" points="90.51,-45.51 85.49,-54.84 95.24,-50.68 90.51,-45.51"/>
</g>
<!-- Node3 -->
<g id="node3" class="node">
<title>Node3</title>
<g id="a_node3"><a xlink:title=" ">
<polygon fill="white" stroke="#bfbfbf" points="237.5,-79.5 158.5,-79.5 158.5,-60.5 237.5,-60.5 237.5,-79.5"/>
<text text-anchor="middle" x="198" y="-67.5" font-family="Helvetica,sans-Serif" font-size="10.00">noncopyable</text>
</a>
</g>
</g>
<!-- Node3&#45;&gt;Node1 -->
<g id="edge2" class="edge">
<title>Node3&#45;&gt;Node1</title>
<path fill="none" stroke="#8b1a1a" d="M180.94,-53.41C168.94,-42.44 153.33,-28.17 143.48,-19.17"/>
<polygon fill="#8b1a1a" stroke="#8b1a1a" points="178.81,-56.2 188.56,-60.37 183.54,-51.04 178.81,-56.2"/>
</g>
</g>
</svg>
