<?xml version="1.0" encoding="UTF-8" standalone="no"?>
<!DOCTYPE svg PUBLIC "-//W3C//DTD SVG 1.1//EN"
 "http://www.w3.org/Graphics/SVG/1.1/DTD/svg11.dtd">
<!-- Generated by graphviz version 2.43.0 (0)
 -->
<!-- Title: kanon::TcpConnection Pages: 1 -->
<!--zoomable 169 -->
<svg id="main" version="1.1" xmlns="http://www.w3.org/2000/svg" xmlns:xlink="http://www.w3.org/1999/xlink" xml:space="preserve" onload="init(evt)">
<style type="text/css"><![CDATA[
.edge:hover path { stroke: red; }
.edge:hover polygon { stroke: red; fill: red; }
]]></style>
<script type="text/javascript"><![CDATA[
var edges = document.getElementsByTagName('g');
if (edges && edges.length) {
  for (var i=0;i<edges.length;i++) {
    if (edges[i].id.substr(0,4)=='edge') {
      edges[i].setAttribute('class','edge');
    }
  }
}
]]></script>
        <defs>
                <circle id="rim" cx="0" cy="0" r="7"/>
                <circle id="rim2" cx="0" cy="0" r="3.5"/>
                <g id="zoomPlus">
                        <use xlink:href="#rim" fill="#404040">
                                <set attributeName="fill" to="#808080" begin="zoomplus.mouseover" end="zoomplus.mouseout"/>
                        </use>
                        <path d="M-4,0h8M0,-4v8" fill="none" stroke="white" stroke-width="1.5" pointer-events="none"/>
                </g>
                <g id="zoomMin">
                        <use xlink:href="#rim" fill="#404040">
                                <set attributeName="fill" to="#808080" begin="zoomminus.mouseover" end="zoomminus.mouseout"/>
                        </use>
                        <path d="M-4,0h8" fill="none" stroke="white" stroke-width="1.5" pointer-events="none"/>
                </g>
                <g id="dirArrow">
                        <path fill="none" stroke="white" stroke-width="1.5" d="M0,-3.0v7 M-2.5,-0.5L0,-3.0L2.5,-0.5"/>
                </g>
               <g id="resetDef">
                       <use xlink:href="#rim2" fill="#404040">
                               <set attributeName="fill" to="#808080" begin="reset.mouseover" end="reset.mouseout"/>
                       </use>
               </g>
        </defs>

<script type="text/javascript">
var viewWidth = 748;
var viewHeight = 169;
var sectionId = 'dynsection-1';
</script>
<script xlink:href="svgpan.js"/>
<svg id="graph" class="graph">
<g id="viewport">
<title>kanon::TcpConnection</title>
<!-- Node1 -->
<g id="node1" class="node">
<title>Node1</title>
<g id="a_node1"><a xlink:title="Represents a tcp connection.">
<polygon fill="#999999" stroke="#666666" points="740,-74 617,-74 617,-55 740,-55 740,-74"/>
<text text-anchor="middle" x="678.5" y="-62" font-family="Helvetica,sans-Serif" font-size="10.00">kanon::TcpConnection</text>
</a>
</g>
</g>
<!-- Node2 -->
<g id="node2" class="node">
<title>Node2</title>
<g id="a_node2"><a xlink:href="classkanon_1_1ConnectionBase.html" target="_top" xlink:title=" ">
<polygon fill="white" stroke="#bfbfbf" points="522,-104.5 391,-104.5 391,-74.5 522,-74.5 522,-104.5"/>
<text text-anchor="start" x="399" y="-92.5" font-family="Helvetica,sans-Serif" font-size="10.00">kanon::ConnectionBase</text>
<text text-anchor="middle" x="456.5" y="-81.5" font-family="Helvetica,sans-Serif" font-size="10.00">&lt; TcpConnection &gt;</text>
</a>
</g>
</g>
<!-- Node2&#45;&gt;Node1 -->
<g id="edge1" class="edge">
<title>Node2&#45;&gt;Node1</title>
<path fill="none" stroke="#63b8ff" d="M532.02,-81.03C559.61,-77.9 590.53,-74.38 616.75,-71.4"/>
<polygon fill="#63b8ff" stroke="#63b8ff" points="531.56,-77.56 522.02,-82.17 532.35,-84.52 531.56,-77.56"/>
</g>
<!-- Node3 -->
<g id="node3" class="node">
<title>Node3</title>
<g id="a_node3"><a xlink:title=" ">
<polygon fill="white" stroke="#bfbfbf" points="79,-161 0,-161 0,-142 79,-142 79,-161"/>
<text text-anchor="middle" x="39.5" y="-149" font-family="Helvetica,sans-Serif" font-size="10.00">noncopyable</text>
</a>
</g>
</g>
<!-- Node3&#45;&gt;Node2 -->
<g id="edge2" class="edge">
<title>Node3&#45;&gt;Node2</title>
<path fill="none" stroke="#8b1a1a" d="M89.16,-156.37C155.45,-161.22 276.9,-163.7 373,-129.5 392.05,-122.72 412.5,-112.83 428.27,-104.57"/>
<polygon fill="#8b1a1a" stroke="#8b1a1a" points="89.24,-152.87 79,-155.58 88.7,-159.85 89.24,-152.87"/>
</g>
<!-- Node5 -->
<g id="node5" class="node">
<title>Node5</title>
<g id="a_node5"><a xlink:href="classkanon_1_1EventLoop.html" target="_top" xlink:title="A loop that process various events.">
<polygon fill="white" stroke="#666666" points="250,-142 146,-142 146,-123 250,-123 250,-142"/>
<text text-anchor="middle" x="198" y="-130" font-family="Helvetica,sans-Serif" font-size="10.00">kanon::EventLoop</text>
</a>
</g>
</g>
<!-- Node3&#45;&gt;Node5 -->
<g id="edge5" class="edge">
<title>Node3&#45;&gt;Node5</title>
<path fill="none" stroke="#8b1a1a" d="M89.17,-145.59C107.15,-143.41 127.57,-140.93 145.77,-138.72"/>
<polygon fill="#8b1a1a" stroke="#8b1a1a" points="88.69,-142.12 79.19,-146.8 89.53,-149.07 88.69,-142.12"/>
</g>
<!-- Node4 -->
<g id="node4" class="node">
<title>Node4</title>
<g id="a_node4"><a xlink:title=" ">
<polygon fill="white" stroke="#bfbfbf" points="280,-104.5 116,-104.5 116,-74.5 280,-74.5 280,-104.5"/>
<text text-anchor="start" x="124" y="-92.5" font-family="Helvetica,sans-Serif" font-size="10.00">std::enable_shared</text>
<text text-anchor="middle" x="198" y="-81.5" font-family="Helvetica,sans-Serif" font-size="10.00">_from_this&lt; TcpConnection &#160;&gt;</text>
</a>
</g>
</g>
<!-- Node4&#45;&gt;Node2 -->
<g id="edge3" class="edge">
<title>Node4&#45;&gt;Node2</title>
<path fill="none" stroke="#63b8ff" d="M290.33,-89.5C323.5,-89.5 360.28,-89.5 390.69,-89.5"/>
<polygon fill="#63b8ff" stroke="#63b8ff" points="290.16,-86 280.16,-89.5 290.16,-93 290.16,-86"/>
</g>
<!-- Node5&#45;&gt;Node2 -->
<g id="edge4" class="edge">
<title>Node5&#45;&gt;Node2</title>
<path fill="none" stroke="#9a32cd" stroke-dasharray="5,2" d="M260.08,-122.37C293.45,-116.82 335.5,-109.81 373,-103.5 378.73,-102.54 384.68,-101.53 390.65,-100.52"/>
<polygon fill="#9a32cd" stroke="#9a32cd" points="259.31,-118.95 250.02,-124.04 260.46,-125.85 259.31,-118.95"/>
<text text-anchor="middle" x="335.5" y="-117.5" font-family="Helvetica,sans-Serif" font-size="10.00"> loop_</text>
</g>
<!-- Node6 -->
<g id="node6" class="node">
<title>Node6</title>
<g id="a_node6"><a xlink:title=" ">
<polygon fill="white" stroke="#bfbfbf" points="221.5,-56 174.5,-56 174.5,-37 221.5,-37 221.5,-56"/>
<text text-anchor="middle" x="198" y="-44" font-family="Helvetica,sans-Serif" font-size="10.00">Buffer</text>
</a>
</g>
</g>
<!-- Node6&#45;&gt;Node2 -->
<g id="edge6" class="edge">
<title>Node6&#45;&gt;Node2</title>
<path fill="none" stroke="#9a32cd" stroke-dasharray="5,2" d="M231.66,-51.55C266.66,-57.01 323.81,-66.07 373,-74.5 378.74,-75.48 384.7,-76.53 390.67,-77.58"/>
<polygon fill="#9a32cd" stroke="#9a32cd" points="231.97,-48.06 221.55,-49.98 230.89,-54.98 231.97,-48.06"/>
<text text-anchor="middle" x="335.5" y="-77.5" font-family="Helvetica,sans-Serif" font-size="10.00"> input_buffer_</text>
</g>
<!-- Node7 -->
<g id="node7" class="node">
<title>Node7</title>
<g id="a_node7"><a xlink:title=" ">
<polygon fill="white" stroke="#bfbfbf" points="230.5,-19 165.5,-19 165.5,0 230.5,0 230.5,-19"/>
<text text-anchor="middle" x="198" y="-7" font-family="Helvetica,sans-Serif" font-size="10.00">ChunkList</text>
</a>
</g>
</g>
<!-- Node7&#45;&gt;Node2 -->
<g id="edge7" class="edge">
<title>Node7&#45;&gt;Node2</title>
<path fill="none" stroke="#9a32cd" stroke-dasharray="5,2" d="M241.07,-12.03C277.83,-15.73 331.64,-24.89 373,-47.5 382.93,-52.93 381.48,-59.39 391,-65.5 396.23,-68.86 401.99,-71.84 407.86,-74.46"/>
<polygon fill="#9a32cd" stroke="#9a32cd" points="240.99,-8.5 230.71,-11.08 240.35,-15.47 240.99,-8.5"/>
<text text-anchor="middle" x="335.5" y="-50.5" font-family="Helvetica,sans-Serif" font-size="10.00"> output_buffer_</text>
</g>
<!-- Node8 -->
<g id="node8" class="node">
<title>Node8</title>
<g id="a_node8"><a xlink:href="classkanon_1_1InetAddr.html" target="_top" xlink:title="Represent a internet address(Ipv4 or Ipv6)">
<polygon fill="white" stroke="#666666" points="503.5,-56 409.5,-56 409.5,-37 503.5,-37 503.5,-56"/>
<text text-anchor="middle" x="456.5" y="-44" font-family="Helvetica,sans-Serif" font-size="10.00">kanon::InetAddr</text>
</a>
</g>
</g>
<!-- Node8&#45;&gt;Node1 -->
<g id="edge8" class="edge">
<title>Node8&#45;&gt;Node1</title>
<path fill="none" stroke="#9a32cd" stroke-dasharray="5,2" d="M513.87,-46.18C539.85,-46.52 571.05,-47.63 599,-50.5 609.33,-51.56 620.34,-53.2 630.75,-54.99"/>
<polygon fill="#9a32cd" stroke="#9a32cd" points="513.85,-42.68 503.82,-46.08 513.78,-49.68 513.85,-42.68"/>
<text text-anchor="middle" x="569.5" y="-64.5" font-family="Helvetica,sans-Serif" font-size="10.00"> local_addr_</text>
<text text-anchor="middle" x="569.5" y="-53.5" font-family="Helvetica,sans-Serif" font-size="10.00">peer_addr_</text>
</g>
</g>
</svg>
        <g id="navigator" transform="translate(0 0)" fill="#404254">
                <rect fill="#f2f5e9" fill-opacity="0.5" stroke="#606060" stroke-width=".5" x="0" y="0" width="60" height="60"/>
                <use id="zoomplus" xlink:href="#zoomPlus" x="17" y="9" onmousedown="handleZoom(evt,'in')"/>
                <use id="zoomminus" xlink:href="#zoomMin" x="42" y="9" onmousedown="handleZoom(evt,'out')"/>
                <use id="reset" xlink:href="#resetDef" x="30" y="36" onmousedown="handleReset()"/>
                <g id="arrowUp" xlink:href="#dirArrow" transform="translate(30 24)" onmousedown="handlePan(0,-1)">
                  <use xlink:href="#rim" fill="#404040">
                        <set attributeName="fill" to="#808080" begin="arrowUp.mouseover" end="arrowUp.mouseout"/>
                  </use>
                  <path fill="none" stroke="white" stroke-width="1.5" d="M0,-3.0v7 M-2.5,-0.5L0,-3.0L2.5,-0.5"/>
                </g>
                <g id="arrowRight" xlink:href="#dirArrow" transform="rotate(90) translate(36 -43)" onmousedown="handlePan(1,0)">
                  <use xlink:href="#rim" fill="#404040">
                        <set attributeName="fill" to="#808080" begin="arrowRight.mouseover" end="arrowRight.mouseout"/>
                  </use>
                  <path fill="none" stroke="white" stroke-width="1.5" d="M0,-3.0v7 M-2.5,-0.5L0,-3.0L2.5,-0.5"/>
                </g>
                <g id="arrowDown" xlink:href="#dirArrow" transform="rotate(180) translate(-30 -48)" onmousedown="handlePan(0,1)">
                  <use xlink:href="#rim" fill="#404040">
                        <set attributeName="fill" to="#808080" begin="arrowDown.mouseover" end="arrowDown.mouseout"/>
                  </use>
                  <path fill="none" stroke="white" stroke-width="1.5" d="M0,-3.0v7 M-2.5,-0.5L0,-3.0L2.5,-0.5"/>
                </g>
                <g id="arrowLeft" xlink:href="#dirArrow" transform="rotate(270) translate(-36 17)" onmousedown="handlePan(-1,0)">
                  <use xlink:href="#rim" fill="#404040">
                        <set attributeName="fill" to="#808080" begin="arrowLeft.mouseover" end="arrowLeft.mouseout"/>
                  </use>
                  <path fill="none" stroke="white" stroke-width="1.5" d="M0,-3.0v7 M-2.5,-0.5L0,-3.0L2.5,-0.5"/>
                </g>
        </g>
        <svg viewBox="0 0 15 15" width="100%" height="30px" preserveAspectRatio="xMaxYMin meet">
         <g id="arrow_out" transform="scale(0.3 0.3)">
          <a xlink:href="classkanon_1_1TcpConnection__coll__graph_org.svg" target="_base">
           <rect id="button" ry="5" rx="5" y="6" x="6" height="38" width="38"
                fill="#f2f5e9" fill-opacity="0.5" stroke="#606060" stroke-width="1.0"/>
           <path id="arrow"
             d="M 11.500037,31.436501 C 11.940474,20.09759 22.043105,11.32322 32.158766,21.979434 L 37.068811,17.246167 C 37.068811,17.246167 37.088388,32 37.088388,32 L 22.160133,31.978069 C 22.160133,31.978069 26.997745,27.140456 26.997745,27.140456 C 18.528582,18.264221 13.291696,25.230495 11.500037,31.436501 z"
             style="fill:#404040;"/>
          </a>
         </g>
        </svg>
</svg>
