<?xml version="1.0" encoding="UTF-8" standalone="no"?>
<!DOCTYPE svg PUBLIC "-//W3C//DTD SVG 1.1//EN"
 "http://www.w3.org/Graphics/SVG/1.1/DTD/svg11.dtd">
<!-- Generated by graphviz version 2.43.0 (0)
 -->
<!-- Title: kanon::EventLoopPool Pages: 1 -->
<svg width="187pt" height="149pt"
 viewBox="0.00 0.00 186.50 149.00" xmlns="http://www.w3.org/2000/svg" xmlns:xlink="http://www.w3.org/1999/xlink">
<g id="graph0" class="graph" transform="scale(1 1) rotate(0) translate(4 145)">
<title>kanon::EventLoopPool</title>
<!-- Node1 -->
<g id="node1" class="node">
<title>Node1</title>
<g id="a_node1"><a xlink:title="Like ThreadPool, but the elements are EventLoopThread.">
<polygon fill="#999999" stroke="#666666" points="125,-19 0,-19 0,0 125,0 125,-19"/>
<text text-anchor="middle" x="62.5" y="-7" font-family="Helvetica,sans-Serif" font-size="10.00">kanon::EventLoopPool</text>
</a>
</g>
</g>
<!-- Node2 -->
<g id="node2" class="node">
<title>Node2</title>
<g id="a_node2"><a xlink:title=" ">
<polygon fill="white" stroke="#bfbfbf" points="98,-141 19,-141 19,-122 98,-122 98,-141"/>
<text text-anchor="middle" x="58.5" y="-129" font-family="Helvetica,sans-Serif" font-size="10.00">noncopyable</text>
</a>
</g>
</g>
<!-- Node2&#45;&gt;Node1 -->
<g id="edge1" class="edge">
<title>Node2&#45;&gt;Node1</title>
<path fill="none" stroke="#8b1a1a" d="M59.13,-111.65C60.01,-85.22 61.57,-38.26 62.21,-19.05"/>
<polygon fill="#8b1a1a" stroke="#8b1a1a" points="55.62,-111.76 58.79,-121.87 62.62,-111.99 55.62,-111.76"/>
</g>
<!-- Node3 -->
<g id="node3" class="node">
<title>Node3</title>
<g id="a_node3"><a xlink:href="classkanon_1_1EventLoop.html" target="_top" xlink:title="A loop that process various events.">
<polygon fill="white" stroke="#666666" points="178.5,-85 74.5,-85 74.5,-66 178.5,-66 178.5,-85"/>
<text text-anchor="middle" x="126.5" y="-73" font-family="Helvetica,sans-Serif" font-size="10.00">kanon::EventLoop</text>
</a>
</g>
</g>
<!-- Node2&#45;&gt;Node3 -->
<g id="edge3" class="edge">
<title>Node2&#45;&gt;Node3</title>
<path fill="none" stroke="#8b1a1a" d="M77.26,-115.6C89.5,-105.88 105.06,-93.53 115.38,-85.33"/>
<polygon fill="#8b1a1a" stroke="#8b1a1a" points="75.08,-112.86 69.43,-121.82 79.43,-118.35 75.08,-112.86"/>
</g>
<!-- Node3&#45;&gt;Node1 -->
<g id="edge2" class="edge">
<title>Node3&#45;&gt;Node1</title>
<path fill="none" stroke="#9a32cd" stroke-dasharray="5,2" d="M110.48,-58.48C98.12,-46.12 81.49,-29.49 71.41,-19.41"/>
<polygon fill="#9a32cd" stroke="#9a32cd" points="108.32,-61.27 117.87,-65.87 113.27,-56.32 108.32,-61.27"/>
<text text-anchor="middle" x="126.5" y="-40" font-family="Helvetica,sans-Serif" font-size="10.00"> base_loop_</text>
</g>
</g>
</svg>
