<?xml version="1.0" encoding="UTF-8" standalone="no"?>
<!DOCTYPE svg PUBLIC "-//W3C//DTD SVG 1.1//EN"
 "http://www.w3.org/Graphics/SVG/1.1/DTD/svg11.dtd">
<!-- Generated by graphviz version 2.43.0 (0)
 -->
<!-- Title: kanon::TcpServer Pages: 1 -->
<svg width="174pt" height="149pt"
 viewBox="0.00 0.00 174.00 149.00" xmlns="http://www.w3.org/2000/svg" xmlns:xlink="http://www.w3.org/1999/xlink">
<g id="graph0" class="graph" transform="scale(1 1) rotate(0) translate(4 145)">
<title>kanon::TcpServer</title>
<!-- Node1 -->
<g id="node1" class="node">
<title>Node1</title>
<g id="a_node1"><a xlink:title="A Tcp server instance.">
<polygon fill="#999999" stroke="#666666" points="100,-19 0,-19 0,0 100,0 100,-19"/>
<text text-anchor="middle" x="50" y="-7" font-family="Helvetica,sans-Serif" font-size="10.00">kanon::TcpServer</text>
</a>
</g>
</g>
<!-- Node2 -->
<g id="node2" class="node">
<title>Node2</title>
<g id="a_node2"><a xlink:title=" ">
<polygon fill="white" stroke="#bfbfbf" points="85.5,-141 6.5,-141 6.5,-122 85.5,-122 85.5,-141"/>
<text text-anchor="middle" x="46" y="-129" font-family="Helvetica,sans-Serif" font-size="10.00">noncopyable</text>
</a>
</g>
</g>
<!-- Node2&#45;&gt;Node1 -->
<g id="edge1" class="edge">
<title>Node2&#45;&gt;Node1</title>
<path fill="none" stroke="#8b1a1a" d="M46.63,-111.65C47.51,-85.22 49.07,-38.26 49.71,-19.05"/>
<polygon fill="#8b1a1a" stroke="#8b1a1a" points="43.12,-111.76 46.29,-121.87 50.12,-111.99 43.12,-111.76"/>
</g>
<!-- Node3 -->
<g id="node3" class="node">
<title>Node3</title>
<g id="a_node3"><a xlink:href="classkanon_1_1EventLoop.html" target="_top" xlink:title="A loop that process various events.">
<polygon fill="white" stroke="#666666" points="166,-85 62,-85 62,-66 166,-66 166,-85"/>
<text text-anchor="middle" x="114" y="-73" font-family="Helvetica,sans-Serif" font-size="10.00">kanon::EventLoop</text>
</a>
</g>
</g>
<!-- Node2&#45;&gt;Node3 -->
<g id="edge3" class="edge">
<title>Node2&#45;&gt;Node3</title>
<path fill="none" stroke="#8b1a1a" d="M64.76,-115.6C77,-105.88 92.56,-93.53 102.88,-85.33"/>
<polygon fill="#8b1a1a" stroke="#8b1a1a" points="62.58,-112.86 56.93,-121.82 66.93,-118.35 62.58,-112.86"/>
</g>
<!-- Node3&#45;&gt;Node1 -->
<g id="edge2" class="edge">
<title>Node3&#45;&gt;Node1</title>
<path fill="none" stroke="#9a32cd" stroke-dasharray="5,2" d="M97.98,-58.48C85.62,-46.12 68.99,-29.49 58.91,-19.41"/>
<polygon fill="#9a32cd" stroke="#9a32cd" points="95.82,-61.27 105.37,-65.87 100.77,-56.32 95.82,-61.27"/>
<text text-anchor="middle" x="100" y="-40" font-family="Helvetica,sans-Serif" font-size="10.00"> loop_</text>
</g>
</g>
</svg>
