<?xml version="1.0" encoding="UTF-8" standalone="no"?>
<!DOCTYPE svg PUBLIC "-//W3C//DTD SVG 1.1//EN"
 "http://www.w3.org/Graphics/SVG/1.1/DTD/svg11.dtd">
<!-- Generated by graphviz version 2.43.0 (0)
 -->
<!-- Title: kanon::IocpPoller Pages: 1 -->
<svg width="176pt" height="205pt"
 viewBox="0.00 0.00 176.00 205.00" xmlns="http://www.w3.org/2000/svg" xmlns:xlink="http://www.w3.org/1999/xlink">
<g id="graph0" class="graph" transform="scale(1 1) rotate(0) translate(4 201)">
<title>kanon::IocpPoller</title>
<!-- Node1 -->
<g id="node1" class="node">
<title>Node1</title>
<g id="a_node1"><a xlink:title=" ">
<polygon fill="#999999" stroke="#666666" points="102.5,-19 1.5,-19 1.5,0 102.5,0 102.5,-19"/>
<text text-anchor="middle" x="52" y="-7" font-family="Helvetica,sans-Serif" font-size="10.00">kanon::IocpPoller</text>
</a>
</g>
</g>
<!-- Node2 -->
<g id="node2" class="node">
<title>Node2</title>
<g id="a_node2"><a xlink:href="classkanon_1_1PollerBase.html" target="_top" xlink:title="Abstract base class of Poller and Epoller.">
<polygon fill="white" stroke="#666666" points="104,-75 0,-75 0,-56 104,-56 104,-75"/>
<text text-anchor="middle" x="52" y="-63" font-family="Helvetica,sans-Serif" font-size="10.00">kanon::PollerBase</text>
</a>
</g>
</g>
<!-- Node2&#45;&gt;Node1 -->
<g id="edge1" class="edge">
<title>Node2&#45;&gt;Node1</title>
<path fill="none" stroke="#63b8ff" d="M52,-45.3C52,-36.41 52,-26.28 52,-19.25"/>
<polygon fill="#63b8ff" stroke="#63b8ff" points="48.5,-45.58 52,-55.58 55.5,-45.58 48.5,-45.58"/>
</g>
<!-- Node3 -->
<g id="node3" class="node">
<title>Node3</title>
<g id="a_node3"><a xlink:title=" ">
<polygon fill="white" stroke="#bfbfbf" points="87.5,-197 8.5,-197 8.5,-178 87.5,-178 87.5,-197"/>
<text text-anchor="middle" x="48" y="-185" font-family="Helvetica,sans-Serif" font-size="10.00">noncopyable</text>
</a>
</g>
</g>
<!-- Node3&#45;&gt;Node2 -->
<g id="edge2" class="edge">
<title>Node3&#45;&gt;Node2</title>
<path fill="none" stroke="#8b1a1a" d="M48.63,-167.65C49.51,-141.22 51.07,-94.26 51.71,-75.05"/>
<polygon fill="#8b1a1a" stroke="#8b1a1a" points="45.12,-167.76 48.29,-177.87 52.12,-167.99 45.12,-167.76"/>
</g>
<!-- Node4 -->
<g id="node4" class="node">
<title>Node4</title>
<g id="a_node4"><a xlink:href="classkanon_1_1EventLoop.html" target="_top" xlink:title="A loop that process various events.">
<polygon fill="white" stroke="#666666" points="168,-141 64,-141 64,-122 168,-122 168,-141"/>
<text text-anchor="middle" x="116" y="-129" font-family="Helvetica,sans-Serif" font-size="10.00">kanon::EventLoop</text>
</a>
</g>
</g>
<!-- Node3&#45;&gt;Node4 -->
<g id="edge4" class="edge">
<title>Node3&#45;&gt;Node4</title>
<path fill="none" stroke="#8b1a1a" d="M66.76,-171.6C79,-161.88 94.56,-149.53 104.88,-141.33"/>
<polygon fill="#8b1a1a" stroke="#8b1a1a" points="64.58,-168.86 58.93,-177.82 68.93,-174.35 64.58,-168.86"/>
</g>
<!-- Node4&#45;&gt;Node2 -->
<g id="edge3" class="edge">
<title>Node4&#45;&gt;Node2</title>
<path fill="none" stroke="#9a32cd" stroke-dasharray="5,2" d="M99.98,-114.48C87.62,-102.12 70.99,-85.49 60.91,-75.41"/>
<polygon fill="#9a32cd" stroke="#9a32cd" points="97.82,-117.27 107.37,-121.87 102.77,-112.32 97.82,-117.27"/>
<text text-anchor="middle" x="102" y="-96" font-family="Helvetica,sans-Serif" font-size="10.00"> loop_</text>
</g>
</g>
</svg>
