<?xml version="1.0" encoding="UTF-8" standalone="no"?>
<!DOCTYPE svg PUBLIC "-//W3C//DTD SVG 1.1//EN"
 "http://www.w3.org/Graphics/SVG/1.1/DTD/svg11.dtd">
<!-- Generated by graphviz version 2.43.0 (0)
 -->
<!-- Title: kanon::Acceptor Pages: 1 -->
<svg width="227pt" height="149pt"
 viewBox="0.00 0.00 227.17 149.00" xmlns="http://www.w3.org/2000/svg" xmlns:xlink="http://www.w3.org/1999/xlink">
<g id="graph0" class="graph" transform="scale(1 1) rotate(0) translate(4 145)">
<title>kanon::Acceptor</title>
<!-- Node1 -->
<g id="node1" class="node">
<title>Node1</title>
<g id="a_node1"><a xlink:title="Accept connection from client.">
<polygon fill="#999999" stroke="#666666" points="111.17,-19 16.17,-19 16.17,0 111.17,0 111.17,-19"/>
<text text-anchor="middle" x="63.67" y="-7" font-family="Helvetica,sans-Serif" font-size="10.00">kanon::Acceptor</text>
</a>
</g>
</g>
<!-- Node2 -->
<g id="node2" class="node">
<title>Node2</title>
<g id="a_node2"><a xlink:title=" ">
<polygon fill="white" stroke="#bfbfbf" points="103.17,-141 24.17,-141 24.17,-122 103.17,-122 103.17,-141"/>
<text text-anchor="middle" x="63.67" y="-129" font-family="Helvetica,sans-Serif" font-size="10.00">noncopyable</text>
</a>
</g>
</g>
<!-- Node2&#45;&gt;Node1 -->
<g id="edge1" class="edge">
<title>Node2&#45;&gt;Node1</title>
<path fill="none" stroke="#8b1a1a" d="M35.46,-116.95C15.36,-105.23 -6.57,-86.9 2.67,-66 11.99,-44.92 33.72,-28.4 48.56,-19.05"/>
<polygon fill="#8b1a1a" stroke="#8b1a1a" points="33.98,-120.14 44.44,-121.86 37.34,-114 33.98,-120.14"/>
</g>
<!-- Node3 -->
<g id="node3" class="node">
<title>Node3</title>
<g id="a_node3"><a xlink:href="classkanon_1_1EventLoop.html" target="_top" xlink:title="A loop that process various events.">
<polygon fill="white" stroke="#666666" points="115.67,-85 11.67,-85 11.67,-66 115.67,-66 115.67,-85"/>
<text text-anchor="middle" x="63.67" y="-73" font-family="Helvetica,sans-Serif" font-size="10.00">kanon::EventLoop</text>
</a>
</g>
</g>
<!-- Node2&#45;&gt;Node3 -->
<g id="edge3" class="edge">
<title>Node2&#45;&gt;Node3</title>
<path fill="none" stroke="#8b1a1a" d="M63.67,-111.3C63.67,-102.41 63.67,-92.28 63.67,-85.25"/>
<polygon fill="#8b1a1a" stroke="#8b1a1a" points="60.17,-111.58 63.67,-121.58 67.17,-111.58 60.17,-111.58"/>
</g>
<!-- Node4 -->
<g id="node4" class="node">
<title>Node4</title>
<g id="a_node4"><a xlink:href="classkanon_1_1Socket.html" target="_top" xlink:title="Represents socket instance.">
<polygon fill="white" stroke="#666666" points="219.17,-85 134.17,-85 134.17,-66 219.17,-66 219.17,-85"/>
<text text-anchor="middle" x="176.67" y="-73" font-family="Helvetica,sans-Serif" font-size="10.00">kanon::Socket</text>
</a>
</g>
</g>
<!-- Node2&#45;&gt;Node4 -->
<g id="edge5" class="edge">
<title>Node2&#45;&gt;Node4</title>
<path fill="none" stroke="#8b1a1a" d="M90.68,-117.6C111.79,-107.51 140.53,-93.77 158.85,-85.02"/>
<polygon fill="#8b1a1a" stroke="#8b1a1a" points="89.09,-114.47 81.58,-121.94 92.11,-120.79 89.09,-114.47"/>
</g>
<!-- Node3&#45;&gt;Node1 -->
<g id="edge2" class="edge">
<title>Node3&#45;&gt;Node1</title>
<path fill="none" stroke="#9a32cd" stroke-dasharray="5,2" d="M63.67,-55.58C63.67,-43.63 63.67,-28.72 63.67,-19.41"/>
<polygon fill="#9a32cd" stroke="#9a32cd" points="60.17,-55.87 63.67,-65.87 67.17,-55.87 60.17,-55.87"/>
<text text-anchor="middle" x="78.67" y="-40" font-family="Helvetica,sans-Serif" font-size="10.00"> loop_</text>
</g>
<!-- Node4&#45;&gt;Node1 -->
<g id="edge4" class="edge">
<title>Node4&#45;&gt;Node1</title>
<path fill="none" stroke="#9a32cd" stroke-dasharray="5,2" d="M152.59,-60.86C130.34,-48.26 97.96,-29.92 79.03,-19.2"/>
<polygon fill="#9a32cd" stroke="#9a32cd" points="151.01,-63.99 161.43,-65.87 154.46,-57.89 151.01,-63.99"/>
<text text-anchor="middle" x="147.67" y="-40" font-family="Helvetica,sans-Serif" font-size="10.00"> socket_</text>
</g>
</g>
</svg>
