<?xml version="1.0" encoding="UTF-8" standalone="no"?>
<!DOCTYPE svg PUBLIC "-//W3C//DTD SVG 1.1//EN"
 "http://www.w3.org/Graphics/SVG/1.1/DTD/svg11.dtd">
<!-- Generated by graphviz version 2.43.0 (0)
 -->
<!-- Title: kanon::UnixConnection Pages: 1 -->
<svg width="701pt" height="169pt"
 viewBox="0.00 0.00 701.00 169.00" xmlns="http://www.w3.org/2000/svg" xmlns:xlink="http://www.w3.org/1999/xlink">
<g id="graph0" class="graph" transform="scale(1 1) rotate(0) translate(4 165)">
<title>kanon::UnixConnection</title>
<!-- Node1 -->
<g id="node1" class="node">
<title>Node1</title>
<g id="a_node1"><a xlink:title=" ">
<polygon fill="#999999" stroke="#666666" points="693,-99 563,-99 563,-80 693,-80 693,-99"/>
<text text-anchor="middle" x="628" y="-87" font-family="Helvetica,sans-Serif" font-size="10.00">kanon::UnixConnection</text>
</a>
</g>
</g>
<!-- Node2 -->
<g id="node2" class="node">
<title>Node2</title>
<g id="a_node2"><a xlink:href="classkanon_1_1ConnectionBase.html" target="_top" xlink:title=" ">
<polygon fill="white" stroke="#bfbfbf" points="526,-104.5 395,-104.5 395,-74.5 526,-74.5 526,-104.5"/>
<text text-anchor="start" x="403" y="-92.5" font-family="Helvetica,sans-Serif" font-size="10.00">kanon::ConnectionBase</text>
<text text-anchor="middle" x="460.5" y="-81.5" font-family="Helvetica,sans-Serif" font-size="10.00">&lt; UnixConnection &gt;</text>
</a>
</g>
</g>
<!-- Node2&#45;&gt;Node1 -->
<g id="edge1" class="edge">
<title>Node2&#45;&gt;Node1</title>
<path fill="none" stroke="#63b8ff" d="M536.62,-89.5C545.36,-89.5 554.22,-89.5 562.8,-89.5"/>
<polygon fill="#63b8ff" stroke="#63b8ff" points="536.44,-86 526.43,-89.5 536.43,-93 536.44,-86"/>
</g>
<!-- Node3 -->
<g id="node3" class="node">
<title>Node3</title>
<g id="a_node3"><a xlink:title=" ">
<polygon fill="white" stroke="#bfbfbf" points="79,-161 0,-161 0,-142 79,-142 79,-161"/>
<text text-anchor="middle" x="39.5" y="-149" font-family="Helvetica,sans-Serif" font-size="10.00">noncopyable</text>
</a>
</g>
</g>
<!-- Node3&#45;&gt;Node2 -->
<g id="edge2" class="edge">
<title>Node3&#45;&gt;Node2</title>
<path fill="none" stroke="#8b1a1a" d="M89.48,-156.69C156.51,-161.98 279.63,-165.12 377,-130.5 396.44,-123.59 417.24,-113.23 433.09,-104.66"/>
<polygon fill="#8b1a1a" stroke="#8b1a1a" points="89.47,-153.18 79.21,-155.83 88.88,-160.15 89.47,-153.18"/>
</g>
<!-- Node5 -->
<g id="node5" class="node">
<title>Node5</title>
<g id="a_node5"><a xlink:href="classkanon_1_1EventLoop.html" target="_top" xlink:title="A loop that process various events.">
<polygon fill="white" stroke="#666666" points="252,-142 148,-142 148,-123 252,-123 252,-142"/>
<text text-anchor="middle" x="200" y="-130" font-family="Helvetica,sans-Serif" font-size="10.00">kanon::EventLoop</text>
</a>
</g>
</g>
<!-- Node3&#45;&gt;Node5 -->
<g id="edge5" class="edge">
<title>Node3&#45;&gt;Node5</title>
<path fill="none" stroke="#8b1a1a" d="M89.27,-145.65C107.82,-143.43 128.99,-140.89 147.75,-138.64"/>
<polygon fill="#8b1a1a" stroke="#8b1a1a" points="88.79,-142.19 79.27,-146.85 89.62,-149.14 88.79,-142.19"/>
</g>
<!-- Node4 -->
<g id="node4" class="node">
<title>Node4</title>
<g id="a_node4"><a xlink:title=" ">
<polygon fill="white" stroke="#bfbfbf" points="284,-104.5 116,-104.5 116,-74.5 284,-74.5 284,-104.5"/>
<text text-anchor="start" x="124" y="-92.5" font-family="Helvetica,sans-Serif" font-size="10.00">std::enable_shared</text>
<text text-anchor="middle" x="200" y="-81.5" font-family="Helvetica,sans-Serif" font-size="10.00">_from_this&lt; UnixConnection &gt;</text>
</a>
</g>
</g>
<!-- Node4&#45;&gt;Node2 -->
<g id="edge3" class="edge">
<title>Node4&#45;&gt;Node2</title>
<path fill="none" stroke="#63b8ff" d="M294.43,-89.5C327.76,-89.5 364.53,-89.5 394.89,-89.5"/>
<polygon fill="#63b8ff" stroke="#63b8ff" points="294.21,-86 284.21,-89.5 294.21,-93 294.21,-86"/>
</g>
<!-- Node5&#45;&gt;Node2 -->
<g id="edge4" class="edge">
<title>Node5&#45;&gt;Node2</title>
<path fill="none" stroke="#9a32cd" stroke-dasharray="5,2" d="M262.42,-122.45C296.23,-116.9 338.94,-109.86 377,-103.5 382.73,-102.54 388.69,-101.54 394.65,-100.53"/>
<polygon fill="#9a32cd" stroke="#9a32cd" points="261.53,-119.05 252.23,-124.13 262.66,-125.96 261.53,-119.05"/>
<text text-anchor="middle" x="339.5" y="-118.5" font-family="Helvetica,sans-Serif" font-size="10.00"> loop_</text>
</g>
<!-- Node6 -->
<g id="node6" class="node">
<title>Node6</title>
<g id="a_node6"><a xlink:title=" ">
<polygon fill="white" stroke="#bfbfbf" points="223.5,-56 176.5,-56 176.5,-37 223.5,-37 223.5,-56"/>
<text text-anchor="middle" x="200" y="-44" font-family="Helvetica,sans-Serif" font-size="10.00">Buffer</text>
</a>
</g>
</g>
<!-- Node6&#45;&gt;Node2 -->
<g id="edge6" class="edge">
<title>Node6&#45;&gt;Node2</title>
<path fill="none" stroke="#9a32cd" stroke-dasharray="5,2" d="M233.75,-51.49C269.12,-56.93 327.11,-66 377,-74.5 382.74,-75.48 388.7,-76.52 394.67,-77.57"/>
<polygon fill="#9a32cd" stroke="#9a32cd" points="233.95,-47.98 223.53,-49.92 232.88,-54.9 233.95,-47.98"/>
<text text-anchor="middle" x="339.5" y="-77.5" font-family="Helvetica,sans-Serif" font-size="10.00"> input_buffer_</text>
</g>
<!-- Node7 -->
<g id="node7" class="node">
<title>Node7</title>
<g id="a_node7"><a xlink:title=" ">
<polygon fill="white" stroke="#bfbfbf" points="232.5,-19 167.5,-19 167.5,0 232.5,0 232.5,-19"/>
<text text-anchor="middle" x="200" y="-7" font-family="Helvetica,sans-Serif" font-size="10.00">ChunkList</text>
</a>
</g>
</g>
<!-- Node7&#45;&gt;Node2 -->
<g id="edge7" class="edge">
<title>Node7&#45;&gt;Node2</title>
<path fill="none" stroke="#9a32cd" stroke-dasharray="5,2" d="M242.7,-15.39C278.9,-21.23 332.37,-31.62 377,-47.5 396.99,-54.61 418.3,-65.55 434.25,-74.49"/>
<polygon fill="#9a32cd" stroke="#9a32cd" points="242.93,-11.88 232.51,-13.79 241.85,-18.8 242.93,-11.88"/>
<text text-anchor="middle" x="339.5" y="-50.5" font-family="Helvetica,sans-Serif" font-size="10.00"> output_buffer_</text>
</g>
</g>
</svg>
