<?xml version="1.0" encoding="UTF-8" standalone="no"?>
<!DOCTYPE svg PUBLIC "-//W3C//DTD SVG 1.1//EN"
 "http://www.w3.org/Graphics/SVG/1.1/DTD/svg11.dtd">
<!-- Generated by graphviz version 2.43.0 (0)
 -->
<!-- Title: kanon::TcpConnection Pages: 1 -->
<svg width="270pt" height="159pt"
 viewBox="0.00 0.00 269.50 159.00" xmlns="http://www.w3.org/2000/svg" xmlns:xlink="http://www.w3.org/1999/xlink">
<g id="graph0" class="graph" transform="scale(1 1) rotate(0) translate(4 155)">
<title>kanon::TcpConnection</title>
<!-- Node1 -->
<g id="node1" class="node">
<title>Node1</title>
<g id="a_node1"><a xlink:title="Represents a tcp connection.">
<polygon fill="#999999" stroke="#666666" points="171,-19 48,-19 48,0 171,0 171,-19"/>
<text text-anchor="middle" x="109.5" y="-7" font-family="Helvetica,sans-Serif" font-size="10.00">kanon::TcpConnection</text>
</a>
</g>
</g>
<!-- Node2 -->
<g id="node2" class="node">
<title>Node2</title>
<g id="a_node2"><a xlink:href="classkanon_1_1ConnectionBase.html" target="_top" xlink:title=" ">
<polygon fill="white" stroke="#bfbfbf" points="175,-85 44,-85 44,-55 175,-55 175,-85"/>
<text text-anchor="start" x="52" y="-73" font-family="Helvetica,sans-Serif" font-size="10.00">kanon::ConnectionBase</text>
<text text-anchor="middle" x="109.5" y="-62" font-family="Helvetica,sans-Serif" font-size="10.00">&lt; TcpConnection &gt;</text>
</a>
</g>
</g>
<!-- Node2&#45;&gt;Node1 -->
<g id="edge1" class="edge">
<title>Node2&#45;&gt;Node1</title>
<path fill="none" stroke="#63b8ff" d="M109.5,-44.75C109.5,-35.72 109.5,-26.03 109.5,-19.27"/>
<polygon fill="#63b8ff" stroke="#63b8ff" points="106,-44.84 109.5,-54.84 113,-44.84 106,-44.84"/>
</g>
<!-- Node3 -->
<g id="node3" class="node">
<title>Node3</title>
<g id="a_node3"><a xlink:title=" ">
<polygon fill="white" stroke="#bfbfbf" points="79,-145.5 0,-145.5 0,-126.5 79,-126.5 79,-145.5"/>
<text text-anchor="middle" x="39.5" y="-133.5" font-family="Helvetica,sans-Serif" font-size="10.00">noncopyable</text>
</a>
</g>
</g>
<!-- Node3&#45;&gt;Node2 -->
<g id="edge2" class="edge">
<title>Node3&#45;&gt;Node2</title>
<path fill="none" stroke="#8b1a1a" d="M56.55,-119.41C68,-108.94 82.96,-95.26 94.06,-85.12"/>
<polygon fill="#8b1a1a" stroke="#8b1a1a" points="53.96,-117.04 48.94,-126.37 58.68,-122.2 53.96,-117.04"/>
</g>
<!-- Node4 -->
<g id="node4" class="node">
<title>Node4</title>
<g id="a_node4"><a xlink:title=" ">
<polygon fill="white" stroke="#bfbfbf" points="261.5,-151 97.5,-151 97.5,-121 261.5,-121 261.5,-151"/>
<text text-anchor="start" x="105.5" y="-139" font-family="Helvetica,sans-Serif" font-size="10.00">std::enable_shared</text>
<text text-anchor="middle" x="179.5" y="-128" font-family="Helvetica,sans-Serif" font-size="10.00">_from_this&lt; TcpConnection &#160;&gt;</text>
</a>
</g>
</g>
<!-- Node4&#45;&gt;Node2 -->
<g id="edge3" class="edge">
<title>Node4&#45;&gt;Node2</title>
<path fill="none" stroke="#63b8ff" d="M156.45,-113.92C146.13,-104.49 134.23,-93.61 124.99,-85.16"/>
<polygon fill="#63b8ff" stroke="#63b8ff" points="154.22,-116.63 163.96,-120.8 158.95,-111.47 154.22,-116.63"/>
</g>
</g>
</svg>
