<?xml version="1.0" encoding="UTF-8" standalone="no"?>
<!DOCTYPE svg PUBLIC "-//W3C//DTD SVG 1.1//EN"
 "http://www.w3.org/Graphics/SVG/1.1/DTD/svg11.dtd">
<!-- Generated by graphviz version 2.43.0 (0)
 -->
<!-- Title: kanon::UnixConnection Pages: 1 -->
<svg width="701pt" height="173pt"
 viewBox="0.00 0.00 701.00 173.00" xmlns="http://www.w3.org/2000/svg" xmlns:xlink="http://www.w3.org/1999/xlink">
<g id="graph0" class="graph" transform="scale(1 1) rotate(0) translate(4 169)">
<title>kanon::UnixConnection</title>
<!-- Node1 -->
<g id="node1" class="node">
<title>Node1</title>
<g id="a_node1"><a xlink:title=" ">
<polygon fill="#bfbfbf" stroke="black" points="563,-82.5 563,-101.5 693,-101.5 693,-82.5 563,-82.5"/>
<text text-anchor="middle" x="628" y="-89.5" font-family="Helvetica,sans-Serif" font-size="10.00">kanon::UnixConnection</text>
</a>
</g>
</g>
<!-- Node2 -->
<g id="node2" class="node">
<title>Node2</title>
<g id="a_node2"><a xlink:href="classkanon_1_1ConnectionBase.html" target="_top" xlink:title=" ">
<polygon fill="none" stroke="black" points="395,-77 395,-107 526,-107 526,-77 395,-77"/>
<text text-anchor="start" x="403" y="-95" font-family="Helvetica,sans-Serif" font-size="10.00">kanon::ConnectionBase</text>
<text text-anchor="middle" x="460.5" y="-84" font-family="Helvetica,sans-Serif" font-size="10.00">&lt; UnixConnection &gt;</text>
</a>
</g>
</g>
<!-- Node2&#45;&gt;Node1 -->
<g id="edge1" class="edge">
<title>Node2&#45;&gt;Node1</title>
<path fill="none" stroke="midnightblue" d="M536.62,-92C545.36,-92 554.22,-92 562.8,-92"/>
<polygon fill="midnightblue" stroke="midnightblue" points="536.44,-88.5 526.43,-92 536.43,-95.5 536.44,-88.5"/>
</g>
<!-- Node3 -->
<g id="node3" class="node">
<title>Node3</title>
<g id="a_node3"><a xlink:title=" ">
<polygon fill="none" stroke="#bfbfbf" points="0,-145.5 0,-164.5 79,-164.5 79,-145.5 0,-145.5"/>
<text text-anchor="middle" x="39.5" y="-152.5" font-family="Helvetica,sans-Serif" font-size="10.00">noncopyable</text>
</a>
</g>
</g>
<!-- Node3&#45;&gt;Node2 -->
<g id="edge2" class="edge">
<title>Node3&#45;&gt;Node2</title>
<path fill="none" stroke="#8b1a1a" d="M89.23,-159.92C92.19,-160.01 95.14,-160.04 98,-160 222.61,-158.33 259.8,-174.38 377,-132 395.86,-125.18 416.14,-115.38 431.87,-107.19"/>
<polygon fill="#8b1a1a" stroke="#8b1a1a" points="89.28,-156.42 79.12,-159.43 88.94,-163.41 89.28,-156.42"/>
</g>
<!-- Node5 -->
<g id="node5" class="node">
<title>Node5</title>
<g id="a_node5"><a xlink:href="classkanon_1_1EventLoop.html" target="_top" xlink:title="A loop that process various events.">
<polygon fill="none" stroke="black" points="148,-126.5 148,-145.5 252,-145.5 252,-126.5 148,-126.5"/>
<text text-anchor="middle" x="200" y="-133.5" font-family="Helvetica,sans-Serif" font-size="10.00">kanon::EventLoop</text>
</a>
</g>
</g>
<!-- Node3&#45;&gt;Node5 -->
<g id="edge5" class="edge">
<title>Node3&#45;&gt;Node5</title>
<path fill="none" stroke="#8b1a1a" d="M89.27,-149.15C107.82,-146.93 128.99,-144.39 147.75,-142.14"/>
<polygon fill="#8b1a1a" stroke="#8b1a1a" points="88.79,-145.69 79.27,-150.35 89.62,-152.64 88.79,-145.69"/>
</g>
<!-- Node4 -->
<g id="node4" class="node">
<title>Node4</title>
<g id="a_node4"><a xlink:title=" ">
<polygon fill="none" stroke="#bfbfbf" points="116,-77 116,-107 284,-107 284,-77 116,-77"/>
<text text-anchor="start" x="124" y="-95" font-family="Helvetica,sans-Serif" font-size="10.00">std::enable_shared</text>
<text text-anchor="middle" x="200" y="-84" font-family="Helvetica,sans-Serif" font-size="10.00">_from_this&lt; UnixConnection &gt;</text>
</a>
</g>
</g>
<!-- Node4&#45;&gt;Node2 -->
<g id="edge3" class="edge">
<title>Node4&#45;&gt;Node2</title>
<path fill="none" stroke="midnightblue" d="M294.43,-92C327.76,-92 364.53,-92 394.89,-92"/>
<polygon fill="midnightblue" stroke="midnightblue" points="294.21,-88.5 284.21,-92 294.21,-95.5 294.21,-88.5"/>
</g>
<!-- Node5&#45;&gt;Node2 -->
<g id="edge4" class="edge">
<title>Node5&#45;&gt;Node2</title>
<path fill="none" stroke="#9a32cd" stroke-dasharray="5,2" d="M261.95,-125.63C301.9,-118.83 354.06,-109.95 394.75,-103.02"/>
<polygon fill="#9a32cd" stroke="#9a32cd" points="261.34,-122.18 252.07,-127.31 262.52,-129.08 261.34,-122.18"/>
<text text-anchor="middle" x="339.5" y="-120" font-family="Helvetica,sans-Serif" font-size="10.00"> loop_</text>
</g>
<!-- Node6 -->
<g id="node6" class="node">
<title>Node6</title>
<g id="a_node6"><a xlink:title=" ">
<polygon fill="none" stroke="#bfbfbf" points="167.5,-38.5 167.5,-57.5 232.5,-57.5 232.5,-38.5 167.5,-38.5"/>
<text text-anchor="middle" x="200" y="-45.5" font-family="Helvetica,sans-Serif" font-size="10.00">ChunkList</text>
</a>
</g>
</g>
<!-- Node6&#45;&gt;Node2 -->
<g id="edge6" class="edge">
<title>Node6&#45;&gt;Node2</title>
<path fill="none" stroke="#9a32cd" stroke-dasharray="5,2" d="M242.55,-54.65C278.23,-60.4 331.04,-69.04 377,-77 382.74,-77.99 388.7,-79.04 394.67,-80.11"/>
<polygon fill="#9a32cd" stroke="#9a32cd" points="242.93,-51.16 232.5,-53.03 241.82,-58.07 242.93,-51.16"/>
<text text-anchor="middle" x="339.5" y="-80" font-family="Helvetica,sans-Serif" font-size="10.00"> output_buffer_</text>
</g>
<!-- Node7 -->
<g id="node7" class="node">
<title>Node7</title>
<g id="a_node7"><a xlink:title=" ">
<polygon fill="none" stroke="#bfbfbf" points="176.5,-0.5 176.5,-19.5 223.5,-19.5 223.5,-0.5 176.5,-0.5"/>
<text text-anchor="middle" x="200" y="-7.5" font-family="Helvetica,sans-Serif" font-size="10.00">Buffer</text>
</a>
</g>
</g>
<!-- Node7&#45;&gt;Node2 -->
<g id="edge7" class="edge">
<title>Node7&#45;&gt;Node2</title>
<path fill="none" stroke="#9a32cd" stroke-dasharray="5,2" d="M233.68,-14.61C269.58,-20.27 328.56,-31.36 377,-49 397.18,-56.35 418.66,-67.67 434.64,-76.85"/>
<polygon fill="#9a32cd" stroke="#9a32cd" points="234.18,-11.14 223.76,-13.09 233.12,-18.06 234.18,-11.14"/>
<text text-anchor="middle" x="339.5" y="-52" font-family="Helvetica,sans-Serif" font-size="10.00"> input_buffer_</text>
</g>
</g>
</svg>
