<?xml version="1.0" encoding="UTF-8" standalone="no"?>
<!DOCTYPE svg PUBLIC "-//W3C//DTD SVG 1.1//EN"
 "http://www.w3.org/Graphics/SVG/1.1/DTD/svg11.dtd">
<!-- Generated by graphviz version 2.43.0 (0)
 -->
<!-- Title: kanon::Acceptor Pages: 1 -->
<svg width="227pt" height="152pt"
 viewBox="0.00 0.00 227.21 152.00" xmlns="http://www.w3.org/2000/svg" xmlns:xlink="http://www.w3.org/1999/xlink">
<g id="graph0" class="graph" transform="scale(1 1) rotate(0) translate(4 148)">
<title>kanon::Acceptor</title>
<!-- Node1 -->
<g id="node1" class="node">
<title>Node1</title>
<g id="a_node1"><a xlink:title="Accept connection from client.">
<polygon fill="#bfbfbf" stroke="black" points="16.21,-0.5 16.21,-19.5 111.21,-19.5 111.21,-0.5 16.21,-0.5"/>
<text text-anchor="middle" x="63.71" y="-7.5" font-family="Helvetica,sans-Serif" font-size="10.00">kanon::Acceptor</text>
</a>
</g>
</g>
<!-- Node2 -->
<g id="node2" class="node">
<title>Node2</title>
<g id="a_node2"><a xlink:title=" ">
<polygon fill="none" stroke="#bfbfbf" points="24.21,-124.5 24.21,-143.5 103.21,-143.5 103.21,-124.5 24.21,-124.5"/>
<text text-anchor="middle" x="63.71" y="-131.5" font-family="Helvetica,sans-Serif" font-size="10.00">noncopyable</text>
</a>
</g>
</g>
<!-- Node2&#45;&gt;Node1 -->
<g id="edge1" class="edge">
<title>Node2&#45;&gt;Node1</title>
<path fill="none" stroke="#8b1a1a" d="M36.44,-119.61C16.07,-107.58 -6.75,-88.53 2.71,-67 12.02,-45.81 33.75,-29.12 48.59,-19.66"/>
<polygon fill="#8b1a1a" stroke="#8b1a1a" points="34.77,-122.69 45.21,-124.48 38.16,-116.57 34.77,-122.69"/>
</g>
<!-- Node3 -->
<g id="node3" class="node">
<title>Node3</title>
<g id="a_node3"><a xlink:href="classkanon_1_1EventLoop.html" target="_top" xlink:title="A loop that process various events.">
<polygon fill="none" stroke="black" points="11.71,-67.5 11.71,-86.5 115.71,-86.5 115.71,-67.5 11.71,-67.5"/>
<text text-anchor="middle" x="63.71" y="-74.5" font-family="Helvetica,sans-Serif" font-size="10.00">kanon::EventLoop</text>
</a>
</g>
</g>
<!-- Node2&#45;&gt;Node3 -->
<g id="edge3" class="edge">
<title>Node2&#45;&gt;Node3</title>
<path fill="none" stroke="#8b1a1a" d="M63.71,-114.12C63.71,-104.82 63.71,-94.06 63.71,-86.71"/>
<polygon fill="#8b1a1a" stroke="#8b1a1a" points="60.21,-114.41 63.71,-124.41 67.21,-114.41 60.21,-114.41"/>
</g>
<!-- Node4 -->
<g id="node4" class="node">
<title>Node4</title>
<g id="a_node4"><a xlink:href="classkanon_1_1Socket.html" target="_top" xlink:title="Represents socket instance.">
<polygon fill="none" stroke="black" points="134.21,-67.5 134.21,-86.5 219.21,-86.5 219.21,-67.5 134.21,-67.5"/>
<text text-anchor="middle" x="176.71" y="-74.5" font-family="Helvetica,sans-Serif" font-size="10.00">kanon::Socket</text>
</a>
</g>
</g>
<!-- Node2&#45;&gt;Node4 -->
<g id="edge5" class="edge">
<title>Node2&#45;&gt;Node4</title>
<path fill="none" stroke="#8b1a1a" d="M90.51,-119.96C111.75,-109.62 140.82,-95.47 159.18,-86.53"/>
<polygon fill="#8b1a1a" stroke="#8b1a1a" points="88.83,-116.88 81.37,-124.41 91.89,-123.18 88.83,-116.88"/>
</g>
<!-- Node3&#45;&gt;Node1 -->
<g id="edge2" class="edge">
<title>Node3&#45;&gt;Node1</title>
<path fill="none" stroke="#9a32cd" stroke-dasharray="5,2" d="M63.71,-57.04C63.71,-44.67 63.71,-29.12 63.71,-19.63"/>
<polygon fill="#9a32cd" stroke="#9a32cd" points="60.21,-57.23 63.71,-67.23 67.21,-57.23 60.21,-57.23"/>
<text text-anchor="middle" x="78.71" y="-41" font-family="Helvetica,sans-Serif" font-size="10.00"> loop_</text>
</g>
<!-- Node4&#45;&gt;Node1 -->
<g id="edge4" class="edge">
<title>Node4&#45;&gt;Node1</title>
<path fill="none" stroke="#9a32cd" stroke-dasharray="5,2" d="M152.57,-62.12C130.19,-49.24 97.57,-30.48 78.71,-19.63"/>
<polygon fill="#9a32cd" stroke="#9a32cd" points="151.06,-65.28 161.47,-67.23 154.55,-59.21 151.06,-65.28"/>
<text text-anchor="middle" x="147.71" y="-41" font-family="Helvetica,sans-Serif" font-size="10.00"> socket_</text>
</g>
</g>
</svg>
