<?xml version="1.0" encoding="UTF-8" standalone="no"?>
<!DOCTYPE svg PUBLIC "-//W3C//DTD SVG 1.1//EN"
 "http://www.w3.org/Graphics/SVG/1.1/DTD/svg11.dtd">
<!-- Generated by graphviz version 2.43.0 (0)
 -->
<!-- Title: kanon::TimerId Pages: 1 -->
<svg width="179pt" height="162pt"
 viewBox="0.00 0.00 178.50 162.00" xmlns="http://www.w3.org/2000/svg" xmlns:xlink="http://www.w3.org/1999/xlink">
<g id="graph0" class="graph" transform="scale(1 1) rotate(0) translate(4 158)">
<title>kanon::TimerId</title>
<!-- Node1 -->
<g id="node1" class="node">
<title>Node1</title>
<g id="a_node1"><a xlink:title="A Timer* wrapper.">
<polygon fill="#bfbfbf" stroke="black" points="42,-0.5 42,-19.5 131,-19.5 131,-0.5 42,-0.5"/>
<text text-anchor="middle" x="86.5" y="-7.5" font-family="Helvetica,sans-Serif" font-size="10.00">kanon::TimerId</text>
</a>
</g>
</g>
<!-- Node2 -->
<g id="node2" class="node">
<title>Node2</title>
<g id="a_node2"><a xlink:href="classkanon_1_1Timer.html" target="_top" xlink:title="Encapsulation of itimespec.">
<polygon fill="none" stroke="black" points="46.5,-67.5 46.5,-86.5 126.5,-86.5 126.5,-67.5 46.5,-67.5"/>
<text text-anchor="middle" x="86.5" y="-74.5" font-family="Helvetica,sans-Serif" font-size="10.00">kanon::Timer</text>
</a>
</g>
</g>
<!-- Node2&#45;&gt;Node1 -->
<g id="edge1" class="edge">
<title>Node2&#45;&gt;Node1</title>
<path fill="none" stroke="#9a32cd" stroke-dasharray="5,2" d="M86.5,-57.04C86.5,-44.67 86.5,-29.12 86.5,-19.63"/>
<polygon fill="#9a32cd" stroke="#9a32cd" points="83,-57.23 86.5,-67.23 90,-57.23 83,-57.23"/>
<text text-anchor="middle" x="104" y="-41" font-family="Helvetica,sans-Serif" font-size="10.00"> timer_</text>
</g>
<!-- Node3 -->
<g id="node3" class="node">
<title>Node3</title>
<g id="a_node3"><a xlink:title=" ">
<polygon fill="none" stroke="#bfbfbf" points="0,-134.5 0,-153.5 79,-153.5 79,-134.5 0,-134.5"/>
<text text-anchor="middle" x="39.5" y="-141.5" font-family="Helvetica,sans-Serif" font-size="10.00">noncopyable</text>
</a>
</g>
</g>
<!-- Node3&#45;&gt;Node2 -->
<g id="edge2" class="edge">
<title>Node3&#45;&gt;Node2</title>
<path fill="none" stroke="#8b1a1a" d="M51.86,-125.9C60.99,-113.27 73.05,-96.6 80.26,-86.63"/>
<polygon fill="#8b1a1a" stroke="#8b1a1a" points="48.86,-124.08 45.84,-134.23 54.53,-128.18 48.86,-124.08"/>
</g>
<!-- Node4 -->
<g id="node4" class="node">
<title>Node4</title>
<g id="a_node4"><a xlink:title=" ">
<polygon fill="none" stroke="#bfbfbf" points="97.5,-134.5 97.5,-153.5 169.5,-153.5 169.5,-134.5 97.5,-134.5"/>
<text text-anchor="middle" x="133.5" y="-141.5" font-family="Helvetica,sans-Serif" font-size="10.00">TimeStamp</text>
</a>
</g>
</g>
<!-- Node4&#45;&gt;Node2 -->
<g id="edge3" class="edge">
<title>Node4&#45;&gt;Node2</title>
<path fill="none" stroke="#9a32cd" stroke-dasharray="5,2" d="M121.14,-125.9C112.01,-113.27 99.95,-96.6 92.74,-86.63"/>
<polygon fill="#9a32cd" stroke="#9a32cd" points="118.47,-128.18 127.16,-134.23 124.14,-124.08 118.47,-128.18"/>
<text text-anchor="middle" x="141.5" y="-108" font-family="Helvetica,sans-Serif" font-size="10.00"> expiration_</text>
</g>
</g>
</svg>
