<?xml version="1.0" encoding="UTF-8" standalone="no"?>
<!DOCTYPE svg PUBLIC "-//W3C//DTD SVG 1.1//EN"
 "http://www.w3.org/Graphics/SVG/1.1/DTD/svg11.dtd">
<!-- Generated by graphviz version 2.43.0 (0)
 -->
<!-- Title: kanon::ITimerQueuePlatform Pages: 1 -->
<svg width="203pt" height="149pt"
 viewBox="0.00 0.00 202.50 149.00" xmlns="http://www.w3.org/2000/svg" xmlns:xlink="http://www.w3.org/1999/xlink">
<g id="graph0" class="graph" transform="scale(1 1) rotate(0) translate(4 145)">
<title>kanon::ITimerQueuePlatform</title>
<!-- Node1 -->
<g id="node1" class="node">
<title>Node1</title>
<g id="a_node1"><a xlink:title="A FIFO data structure that manage timers.">
<polygon fill="#999999" stroke="#666666" points="157,-19 0,-19 0,0 157,0 157,-19"/>
<text text-anchor="middle" x="78.5" y="-7" font-family="Helvetica,sans-Serif" font-size="10.00">kanon::ITimerQueuePlatform</text>
</a>
</g>
</g>
<!-- Node2 -->
<g id="node2" class="node">
<title>Node2</title>
<g id="a_node2"><a xlink:title=" ">
<polygon fill="white" stroke="#bfbfbf" points="114,-141 35,-141 35,-122 114,-122 114,-141"/>
<text text-anchor="middle" x="74.5" y="-129" font-family="Helvetica,sans-Serif" font-size="10.00">noncopyable</text>
</a>
</g>
</g>
<!-- Node2&#45;&gt;Node1 -->
<g id="edge1" class="edge">
<title>Node2&#45;&gt;Node1</title>
<path fill="none" stroke="#8b1a1a" d="M75.13,-111.65C76.01,-85.22 77.57,-38.26 78.21,-19.05"/>
<polygon fill="#8b1a1a" stroke="#8b1a1a" points="71.62,-111.76 74.79,-121.87 78.62,-111.99 71.62,-111.76"/>
</g>
<!-- Node3 -->
<g id="node3" class="node">
<title>Node3</title>
<g id="a_node3"><a xlink:href="classkanon_1_1EventLoop.html" target="_top" xlink:title="A loop that process various events.">
<polygon fill="white" stroke="#666666" points="194.5,-85 90.5,-85 90.5,-66 194.5,-66 194.5,-85"/>
<text text-anchor="middle" x="142.5" y="-73" font-family="Helvetica,sans-Serif" font-size="10.00">kanon::EventLoop</text>
</a>
</g>
</g>
<!-- Node2&#45;&gt;Node3 -->
<g id="edge3" class="edge">
<title>Node2&#45;&gt;Node3</title>
<path fill="none" stroke="#8b1a1a" d="M93.26,-115.6C105.5,-105.88 121.06,-93.53 131.38,-85.33"/>
<polygon fill="#8b1a1a" stroke="#8b1a1a" points="91.08,-112.86 85.43,-121.82 95.43,-118.35 91.08,-112.86"/>
</g>
<!-- Node3&#45;&gt;Node1 -->
<g id="edge2" class="edge">
<title>Node3&#45;&gt;Node1</title>
<path fill="none" stroke="#9a32cd" stroke-dasharray="5,2" d="M126.48,-58.48C114.12,-46.12 97.49,-29.49 87.41,-19.41"/>
<polygon fill="#9a32cd" stroke="#9a32cd" points="124.32,-61.27 133.87,-65.87 129.27,-56.32 124.32,-61.27"/>
<text text-anchor="middle" x="128.5" y="-40" font-family="Helvetica,sans-Serif" font-size="10.00"> loop_</text>
</g>
</g>
</svg>
