<?xml version="1.0" encoding="UTF-8" standalone="no"?>
<!DOCTYPE svg PUBLIC "-//W3C//DTD SVG 1.1//EN"
 "http://www.w3.org/Graphics/SVG/1.1/DTD/svg11.dtd">
<!-- Generated by graphviz version 2.43.0 (0)
 -->
<!-- Title: kanon::ConnectionBase&lt; D &gt; Pages: 1 -->
<svg width="456pt" height="160pt"
 viewBox="0.00 0.00 455.50 160.00" xmlns="http://www.w3.org/2000/svg" xmlns:xlink="http://www.w3.org/1999/xlink">
<g id="graph0" class="graph" transform="scale(1 1) rotate(0) translate(4 156)">
<title>kanon::ConnectionBase&lt; D &gt;</title>
<!-- Node1 -->
<g id="node1" class="node">
<title>Node1</title>
<g id="a_node1"><a xlink:title=" ">
<polygon fill="#999999" stroke="#666666" points="313,-19 152,-19 152,0 313,0 313,-19"/>
<text text-anchor="middle" x="232.5" y="-7" font-family="Helvetica,sans-Serif" font-size="10.00">kanon::ConnectionBase&lt; D &gt;</text>
</a>
</g>
</g>
<!-- Node2 -->
<g id="node2" class="node">
<title>Node2</title>
<g id="a_node2"><a xlink:title=" ">
<polygon fill="white" stroke="#bfbfbf" points="79,-152 0,-152 0,-133 79,-133 79,-152"/>
<text text-anchor="middle" x="39.5" y="-140" font-family="Helvetica,sans-Serif" font-size="10.00">noncopyable</text>
</a>
</g>
</g>
<!-- Node2&#45;&gt;Node1 -->
<g id="edge1" class="edge">
<title>Node2&#45;&gt;Node1</title>
<path fill="none" stroke="#8b1a1a" d="M35.84,-122.68C33.73,-105.93 33.62,-81.72 46.5,-66 71.92,-34.99 113.9,-20.81 151.55,-14.53"/>
<polygon fill="#8b1a1a" stroke="#8b1a1a" points="32.44,-123.58 37.49,-132.89 39.35,-122.46 32.44,-123.58"/>
</g>
<!-- Node4 -->
<g id="node4" class="node">
<title>Node4</title>
<g id="a_node4"><a xlink:href="classkanon_1_1EventLoop.html" target="_top" xlink:title="A loop that process various events.">
<polygon fill="white" stroke="#666666" points="159.5,-90.5 55.5,-90.5 55.5,-71.5 159.5,-71.5 159.5,-90.5"/>
<text text-anchor="middle" x="107.5" y="-78.5" font-family="Helvetica,sans-Serif" font-size="10.00">kanon::EventLoop</text>
</a>
</g>
</g>
<!-- Node2&#45;&gt;Node4 -->
<g id="edge4" class="edge">
<title>Node2&#45;&gt;Node4</title>
<path fill="none" stroke="#8b1a1a" d="M57.04,-126.15C70.01,-114.81 87.18,-99.78 97.78,-90.51"/>
<polygon fill="#8b1a1a" stroke="#8b1a1a" points="54.46,-123.76 49.24,-132.98 59.07,-129.02 54.46,-123.76"/>
</g>
<!-- Node3 -->
<g id="node3" class="node">
<title>Node3</title>
<g id="a_node3"><a xlink:title=" ">
<polygon fill="white" stroke="#bfbfbf" points="287,-96 178,-96 178,-66 287,-66 287,-96"/>
<text text-anchor="start" x="186" y="-84" font-family="Helvetica,sans-Serif" font-size="10.00">std::enable_shared</text>
<text text-anchor="middle" x="232.5" y="-73" font-family="Helvetica,sans-Serif" font-size="10.00">_from_this&lt; D &gt;</text>
</a>
</g>
</g>
<!-- Node3&#45;&gt;Node1 -->
<g id="edge2" class="edge">
<title>Node3&#45;&gt;Node1</title>
<path fill="none" stroke="#63b8ff" d="M232.5,-55.56C232.5,-42.95 232.5,-28.35 232.5,-19.27"/>
<polygon fill="#63b8ff" stroke="#63b8ff" points="229,-55.94 232.5,-65.94 236,-55.94 229,-55.94"/>
</g>
<!-- Node4&#45;&gt;Node1 -->
<g id="edge3" class="edge">
<title>Node4&#45;&gt;Node1</title>
<path fill="none" stroke="#9a32cd" stroke-dasharray="5,2" d="M131.77,-66.51C156.99,-52.48 195.71,-30.96 217.05,-19.09"/>
<polygon fill="#9a32cd" stroke="#9a32cd" points="129.87,-63.56 122.83,-71.48 133.27,-69.68 129.87,-63.56"/>
<text text-anchor="middle" x="196.5" y="-40" font-family="Helvetica,sans-Serif" font-size="10.00"> loop_</text>
</g>
<!-- Node5 -->
<g id="node5" class="node">
<title>Node5</title>
<g id="a_node5"><a xlink:title=" ">
<polygon fill="white" stroke="#bfbfbf" points="352,-90.5 305,-90.5 305,-71.5 352,-71.5 352,-90.5"/>
<text text-anchor="middle" x="328.5" y="-78.5" font-family="Helvetica,sans-Serif" font-size="10.00">Buffer</text>
</a>
</g>
</g>
<!-- Node5&#45;&gt;Node1 -->
<g id="edge5" class="edge">
<title>Node5&#45;&gt;Node1</title>
<path fill="none" stroke="#9a32cd" stroke-dasharray="5,2" d="M308.57,-65.57C289.19,-51.54 260.4,-30.7 244.37,-19.09"/>
<polygon fill="#9a32cd" stroke="#9a32cd" points="306.58,-68.45 316.73,-71.48 310.68,-62.78 306.58,-68.45"/>
<text text-anchor="middle" x="316.5" y="-40" font-family="Helvetica,sans-Serif" font-size="10.00"> input_buffer_</text>
</g>
<!-- Node6 -->
<g id="node6" class="node">
<title>Node6</title>
<g id="a_node6"><a xlink:title=" ">
<polygon fill="white" stroke="#bfbfbf" points="443,-90.5 378,-90.5 378,-71.5 443,-71.5 443,-90.5"/>
<text text-anchor="middle" x="410.5" y="-78.5" font-family="Helvetica,sans-Serif" font-size="10.00">ChunkList</text>
</a>
</g>
</g>
<!-- Node6&#45;&gt;Node1 -->
<g id="edge6" class="edge">
<title>Node6&#45;&gt;Node1</title>
<path fill="none" stroke="#9a32cd" stroke-dasharray="5,2" d="M394.28,-64.42C383.73,-55.12 369.24,-43.84 354.5,-37 336.71,-28.75 316.25,-23.02 297.23,-19.06"/>
<polygon fill="#9a32cd" stroke="#9a32cd" points="392.08,-67.15 401.82,-71.32 396.81,-61.99 392.08,-67.15"/>
<text text-anchor="middle" x="410" y="-40" font-family="Helvetica,sans-Serif" font-size="10.00"> output_buffer_</text>
</g>
</g>
</svg>
