<?xml version="1.0" encoding="UTF-8" standalone="no"?>
<!DOCTYPE svg PUBLIC "-//W3C//DTD SVG 1.1//EN"
 "http://www.w3.org/Graphics/SVG/1.1/DTD/svg11.dtd">
<!-- Generated by graphviz version 2.43.0 (0)
 -->
<!-- Title: kanon::Timer Pages: 1 -->
<svg width="179pt" height="93pt"
 viewBox="0.00 0.00 178.50 93.00" xmlns="http://www.w3.org/2000/svg" xmlns:xlink="http://www.w3.org/1999/xlink">
<g id="graph0" class="graph" transform="scale(1 1) rotate(0) translate(4 89)">
<title>kanon::Timer</title>
<!-- Node1 -->
<g id="node1" class="node">
<title>Node1</title>
<g id="a_node1"><a xlink:title="Encapsulation of itimespec.">
<polygon fill="#999999" stroke="#666666" points="126.5,-19 46.5,-19 46.5,0 126.5,0 126.5,-19"/>
<text text-anchor="middle" x="86.5" y="-7" font-family="Helvetica,sans-Serif" font-size="10.00">kanon::Timer</text>
</a>
</g>
</g>
<!-- Node2 -->
<g id="node2" class="node">
<title>Node2</title>
<g id="a_node2"><a xlink:title=" ">
<polygon fill="white" stroke="#bfbfbf" points="79,-85 0,-85 0,-66 79,-66 79,-85"/>
<text text-anchor="middle" x="39.5" y="-73" font-family="Helvetica,sans-Serif" font-size="10.00">noncopyable</text>
</a>
</g>
</g>
<!-- Node2&#45;&gt;Node1 -->
<g id="edge1" class="edge">
<title>Node2&#45;&gt;Node1</title>
<path fill="none" stroke="#8b1a1a" d="M51.79,-57.77C60.8,-45.49 72.7,-29.3 79.96,-19.41"/>
<polygon fill="#8b1a1a" stroke="#8b1a1a" points="48.94,-55.74 45.84,-65.87 54.58,-59.88 48.94,-55.74"/>
</g>
<!-- Node3 -->
<g id="node3" class="node">
<title>Node3</title>
<g id="a_node3"><a xlink:title=" ">
<polygon fill="white" stroke="#bfbfbf" points="169.5,-85 97.5,-85 97.5,-66 169.5,-66 169.5,-85"/>
<text text-anchor="middle" x="133.5" y="-73" font-family="Helvetica,sans-Serif" font-size="10.00">TimeStamp</text>
</a>
</g>
</g>
<!-- Node3&#45;&gt;Node1 -->
<g id="edge2" class="edge">
<title>Node3&#45;&gt;Node1</title>
<path fill="none" stroke="#9a32cd" stroke-dasharray="5,2" d="M121.21,-57.77C112.2,-45.49 100.3,-29.3 93.04,-19.41"/>
<polygon fill="#9a32cd" stroke="#9a32cd" points="118.42,-59.88 127.16,-65.87 124.06,-55.74 118.42,-59.88"/>
<text text-anchor="middle" x="141.5" y="-40" font-family="Helvetica,sans-Serif" font-size="10.00"> expiration_</text>
</g>
</g>
</svg>
