<?xml version="1.0" encoding="UTF-8" standalone="no"?>
<!DOCTYPE svg PUBLIC "-//W3C//DTD SVG 1.1//EN"
 "http://www.w3.org/Graphics/SVG/1.1/DTD/svg11.dtd">
<!-- Generated by graphviz version 2.43.0 (0)
 -->
<!-- Title: kanon::PollerBase Pages: 1 -->
<svg width="176pt" height="149pt"
 viewBox="0.00 0.00 176.00 149.00" xmlns="http://www.w3.org/2000/svg" xmlns:xlink="http://www.w3.org/1999/xlink">
<g id="graph0" class="graph" transform="scale(1 1) rotate(0) translate(4 145)">
<title>kanon::PollerBase</title>
<!-- Node1 -->
<g id="node1" class="node">
<title>Node1</title>
<g id="a_node1"><a xlink:title="Abstract base class of Poller and Epoller.">
<polygon fill="#999999" stroke="#666666" points="104,-19 0,-19 0,0 104,0 104,-19"/>
<text text-anchor="middle" x="52" y="-7" font-family="Helvetica,sans-Serif" font-size="10.00">kanon::PollerBase</text>
</a>
</g>
</g>
<!-- Node2 -->
<g id="node2" class="node">
<title>Node2</title>
<g id="a_node2"><a xlink:title=" ">
<polygon fill="white" stroke="#bfbfbf" points="87.5,-141 8.5,-141 8.5,-122 87.5,-122 87.5,-141"/>
<text text-anchor="middle" x="48" y="-129" font-family="Helvetica,sans-Serif" font-size="10.00">noncopyable</text>
</a>
</g>
</g>
<!-- Node2&#45;&gt;Node1 -->
<g id="edge1" class="edge">
<title>Node2&#45;&gt;Node1</title>
<path fill="none" stroke="#8b1a1a" d="M48.63,-111.65C49.51,-85.22 51.07,-38.26 51.71,-19.05"/>
<polygon fill="#8b1a1a" stroke="#8b1a1a" points="45.12,-111.76 48.29,-121.87 52.12,-111.99 45.12,-111.76"/>
</g>
<!-- Node3 -->
<g id="node3" class="node">
<title>Node3</title>
<g id="a_node3"><a xlink:href="classkanon_1_1EventLoop.html" target="_top" xlink:title="A loop that process various events.">
<polygon fill="white" stroke="#666666" points="168,-85 64,-85 64,-66 168,-66 168,-85"/>
<text text-anchor="middle" x="116" y="-73" font-family="Helvetica,sans-Serif" font-size="10.00">kanon::EventLoop</text>
</a>
</g>
</g>
<!-- Node2&#45;&gt;Node3 -->
<g id="edge3" class="edge">
<title>Node2&#45;&gt;Node3</title>
<path fill="none" stroke="#8b1a1a" d="M66.76,-115.6C79,-105.88 94.56,-93.53 104.88,-85.33"/>
<polygon fill="#8b1a1a" stroke="#8b1a1a" points="64.58,-112.86 58.93,-121.82 68.93,-118.35 64.58,-112.86"/>
</g>
<!-- Node3&#45;&gt;Node1 -->
<g id="edge2" class="edge">
<title>Node3&#45;&gt;Node1</title>
<path fill="none" stroke="#9a32cd" stroke-dasharray="5,2" d="M99.98,-58.48C87.62,-46.12 70.99,-29.49 60.91,-19.41"/>
<polygon fill="#9a32cd" stroke="#9a32cd" points="97.82,-61.27 107.37,-65.87 102.77,-56.32 97.82,-61.27"/>
<text text-anchor="middle" x="102" y="-40" font-family="Helvetica,sans-Serif" font-size="10.00"> loop_</text>
</g>
</g>
</svg>
