<?xml version="1.0" encoding="UTF-8" standalone="no"?>
<!DOCTYPE svg PUBLIC "-//W3C//DTD SVG 1.1//EN"
 "http://www.w3.org/Graphics/SVG/1.1/DTD/svg11.dtd">
<!-- Generated by graphviz version 2.43.0 (0)
 -->
<!-- Title: kanon::EventLoopPool Pages: 1 -->
<svg width="187pt" height="152pt"
 viewBox="0.00 0.00 186.50 152.00" xmlns="http://www.w3.org/2000/svg" xmlns:xlink="http://www.w3.org/1999/xlink">
<g id="graph0" class="graph" transform="scale(1 1) rotate(0) translate(4 148)">
<title>kanon::EventLoopPool</title>
<!-- Node1 -->
<g id="node1" class="node">
<title>Node1</title>
<g id="a_node1"><a xlink:title="Like ThreadPool, but the elements are EventLoopThread.">
<polygon fill="#bfbfbf" stroke="black" points="0,-0.5 0,-19.5 125,-19.5 125,-0.5 0,-0.5"/>
<text text-anchor="middle" x="62.5" y="-7.5" font-family="Helvetica,sans-Serif" font-size="10.00">kanon::EventLoopPool</text>
</a>
</g>
</g>
<!-- Node2 -->
<g id="node2" class="node">
<title>Node2</title>
<g id="a_node2"><a xlink:title=" ">
<polygon fill="none" stroke="#bfbfbf" points="19,-124.5 19,-143.5 98,-143.5 98,-124.5 19,-124.5"/>
<text text-anchor="middle" x="58.5" y="-131.5" font-family="Helvetica,sans-Serif" font-size="10.00">noncopyable</text>
</a>
</g>
</g>
<!-- Node2&#45;&gt;Node1 -->
<g id="edge1" class="edge">
<title>Node2&#45;&gt;Node1</title>
<path fill="none" stroke="#8b1a1a" d="M59.12,-114.19C60,-87.4 61.57,-39.31 62.21,-19.69"/>
<polygon fill="#8b1a1a" stroke="#8b1a1a" points="55.62,-114.12 58.79,-124.23 62.61,-114.35 55.62,-114.12"/>
</g>
<!-- Node3 -->
<g id="node3" class="node">
<title>Node3</title>
<g id="a_node3"><a xlink:href="classkanon_1_1EventLoop.html" target="_top" xlink:title="A loop that process various events.">
<polygon fill="none" stroke="black" points="74.5,-67.5 74.5,-86.5 178.5,-86.5 178.5,-67.5 74.5,-67.5"/>
<text text-anchor="middle" x="126.5" y="-74.5" font-family="Helvetica,sans-Serif" font-size="10.00">kanon::EventLoop</text>
</a>
</g>
</g>
<!-- Node2&#45;&gt;Node3 -->
<g id="edge3" class="edge">
<title>Node2&#45;&gt;Node3</title>
<path fill="none" stroke="#8b1a1a" d="M77.05,-118C89.46,-107.96 105.35,-95.1 115.73,-86.71"/>
<polygon fill="#8b1a1a" stroke="#8b1a1a" points="74.7,-115.4 69.12,-124.41 79.1,-120.84 74.7,-115.4"/>
</g>
<!-- Node3&#45;&gt;Node1 -->
<g id="edge2" class="edge">
<title>Node3&#45;&gt;Node1</title>
<path fill="none" stroke="#9a32cd" stroke-dasharray="5,2" d="M110.74,-60C98.19,-47.25 81.1,-29.89 70.99,-19.63"/>
<polygon fill="#9a32cd" stroke="#9a32cd" points="108.36,-62.56 117.87,-67.23 113.35,-57.65 108.36,-62.56"/>
<text text-anchor="middle" x="126.5" y="-41" font-family="Helvetica,sans-Serif" font-size="10.00"> base_loop_</text>
</g>
</g>
</svg>
