<?xml version="1.0" encoding="UTF-8" standalone="no"?>
<!DOCTYPE svg PUBLIC "-//W3C//DTD SVG 1.1//EN"
 "http://www.w3.org/Graphics/SVG/1.1/DTD/svg11.dtd">
<!-- Generated by graphviz version 2.43.0 (0)
 -->
<!-- Title: kanon::Connector Pages: 1 -->
<svg width="459pt" height="151pt"
 viewBox="0.00 0.00 459.00 150.50" xmlns="http://www.w3.org/2000/svg" xmlns:xlink="http://www.w3.org/1999/xlink">
<g id="graph0" class="graph" transform="scale(1 1) rotate(0) translate(4 146.5)">
<title>kanon::Connector</title>
<!-- Node1 -->
<g id="node1" class="node">
<title>Node1</title>
<g id="a_node1"><a xlink:title="Connect to peer(server)">
<polygon fill="#999999" stroke="#666666" points="451,-81 349,-81 349,-62 451,-62 451,-81"/>
<text text-anchor="middle" x="400" y="-69" font-family="Helvetica,sans-Serif" font-size="10.00">kanon::Connector</text>
</a>
</g>
</g>
<!-- Node2 -->
<g id="node2" class="node">
<title>Node2</title>
<g id="a_node2"><a xlink:title=" ">
<polygon fill="white" stroke="#bfbfbf" points="256,-142.5 116,-142.5 116,-112.5 256,-112.5 256,-142.5"/>
<text text-anchor="start" x="124" y="-130.5" font-family="Helvetica,sans-Serif" font-size="10.00">std::enable_shared</text>
<text text-anchor="middle" x="186" y="-119.5" font-family="Helvetica,sans-Serif" font-size="10.00">_from_this&lt; Connector &gt;</text>
</a>
</g>
</g>
<!-- Node2&#45;&gt;Node1 -->
<g id="edge1" class="edge">
<title>Node2&#45;&gt;Node1</title>
<path fill="none" stroke="#63b8ff" d="M266.07,-114.22C287.34,-109.94 310.21,-104.67 331,-98.5 347.07,-93.73 364.65,-86.7 377.91,-81.01"/>
<polygon fill="#63b8ff" stroke="#63b8ff" points="265.24,-110.82 256.1,-116.19 266.59,-117.69 265.24,-110.82"/>
</g>
<!-- Node3 -->
<g id="node3" class="node">
<title>Node3</title>
<g id="a_node3"><a xlink:title=" ">
<polygon fill="white" stroke="#bfbfbf" points="79,-75 0,-75 0,-56 79,-56 79,-75"/>
<text text-anchor="middle" x="39.5" y="-63" font-family="Helvetica,sans-Serif" font-size="10.00">noncopyable</text>
</a>
</g>
</g>
<!-- Node3&#45;&gt;Node1 -->
<g id="edge2" class="edge">
<title>Node3&#45;&gt;Node1</title>
<path fill="none" stroke="#8b1a1a" d="M89.23,-70.08C91.86,-70.24 94.46,-70.38 97,-70.5 185.52,-74.56 288.78,-73.69 348.74,-72.64"/>
<polygon fill="#8b1a1a" stroke="#8b1a1a" points="89.29,-66.57 79.07,-69.35 88.8,-73.55 89.29,-66.57"/>
</g>
<!-- Node4 -->
<g id="node4" class="node">
<title>Node4</title>
<g id="a_node4"><a xlink:href="classkanon_1_1EventLoop.html" target="_top" xlink:title="A loop that process various events.">
<polygon fill="white" stroke="#666666" points="238,-56 134,-56 134,-37 238,-37 238,-56"/>
<text text-anchor="middle" x="186" y="-44" font-family="Helvetica,sans-Serif" font-size="10.00">kanon::EventLoop</text>
</a>
</g>
</g>
<!-- Node3&#45;&gt;Node4 -->
<g id="edge4" class="edge">
<title>Node3&#45;&gt;Node4</title>
<path fill="none" stroke="#8b1a1a" d="M89.39,-59.07C103.73,-57.19 119.45,-55.12 133.93,-53.22"/>
<polygon fill="#8b1a1a" stroke="#8b1a1a" points="88.68,-55.63 79.22,-60.41 89.59,-62.57 88.68,-55.63"/>
</g>
<!-- Node4&#45;&gt;Node1 -->
<g id="edge3" class="edge">
<title>Node4&#45;&gt;Node1</title>
<path fill="none" stroke="#9a32cd" stroke-dasharray="5,2" d="M248.41,-50.89C274,-53.02 303.99,-55.9 331,-59.5 336.82,-60.28 342.91,-61.19 348.94,-62.17"/>
<polygon fill="#9a32cd" stroke="#9a32cd" points="248.35,-47.38 238.1,-50.05 247.78,-54.35 248.35,-47.38"/>
<text text-anchor="middle" x="302.5" y="-62.5" font-family="Helvetica,sans-Serif" font-size="10.00"> loop_</text>
</g>
<!-- Node5 -->
<g id="node5" class="node">
<title>Node5</title>
<g id="a_node5"><a xlink:href="classkanon_1_1InetAddr.html" target="_top" xlink:title="Represent a internet address(Ipv4 or Ipv6)">
<polygon fill="white" stroke="#666666" points="233,-19 139,-19 139,0 233,0 233,-19"/>
<text text-anchor="middle" x="186" y="-7" font-family="Helvetica,sans-Serif" font-size="10.00">kanon::InetAddr</text>
</a>
</g>
</g>
<!-- Node5&#45;&gt;Node1 -->
<g id="edge5" class="edge">
<title>Node5&#45;&gt;Node1</title>
<path fill="none" stroke="#9a32cd" stroke-dasharray="5,2" d="M243.28,-16.81C270.26,-21.23 302.78,-27.9 331,-37.5 349.62,-43.83 369.6,-54.31 383.05,-61.97"/>
<polygon fill="#9a32cd" stroke="#9a32cd" points="243.65,-13.32 233.22,-15.22 242.56,-20.24 243.65,-13.32"/>
<text text-anchor="middle" x="302.5" y="-40.5" font-family="Helvetica,sans-Serif" font-size="10.00"> serv_addr_</text>
</g>
</g>
</svg>
