<?xml version="1.0" encoding="UTF-8" standalone="no"?>
<!DOCTYPE svg PUBLIC "-//W3C//DTD SVG 1.1//EN"
 "http://www.w3.org/Graphics/SVG/1.1/DTD/svg11.dtd">
<!-- Generated by graphviz version 2.43.0 (0)
 -->
<!-- Title: Net Pages: 1 -->
<svg width="164pt" height="175pt"
 viewBox="0.00 0.00 164.00 175.00" xmlns="http://www.w3.org/2000/svg" xmlns:xlink="http://www.w3.org/1999/xlink">
<g id="graph0" class="graph" transform="scale(1 1) rotate(0) translate(4 171)">
<title>Net</title>
<!-- Node4 -->
<g id="node1" class="node">
<title>Node4</title>
<g id="a_node1"><a xlink:href="group__EventLoop.html" target="_top" xlink:title="event loop facilities">
<polygon fill="white" stroke="#666666" points="147,-167 79,-167 79,-148 147,-148 147,-167"/>
<text text-anchor="middle" x="113" y="-155" font-family="Helvetica,sans-Serif" font-size="10.00">EventLoop</text>
</a>
</g>
</g>
<!-- Node3 -->
<g id="node2" class="node">
<title>Node3</title>
<g id="a_node2"><a xlink:href="group__client.html" target="_top" xlink:title="Client parts.">
<polygon fill="white" stroke="#666666" points="135.5,-130 90.5,-130 90.5,-111 135.5,-111 135.5,-130"/>
<text text-anchor="middle" x="113" y="-118" font-family="Helvetica,sans-Serif" font-size="10.00">Client</text>
</a>
</g>
</g>
<!-- Node5 -->
<g id="node3" class="node">
<title>Node5</title>
<g id="a_node3"><a xlink:href="group__demultiplexer.html" target="_top" xlink:title="As the role of the Synchronous Event Demultiplexer in Reactor pattern.">
<polygon fill="white" stroke="#666666" points="156,-93 70,-93 70,-74 156,-74 156,-93"/>
<text text-anchor="middle" x="113" y="-81" font-family="Helvetica,sans-Serif" font-size="10.00">Demultiplexer</text>
</a>
</g>
</g>
<!-- Node1 -->
<g id="node4" class="node">
<title>Node1</title>
<g id="a_node4"><a xlink:title="Network module, including event loop in reactor mode and tcp server/client, etc.">
<polygon fill="#999999" stroke="#666666" points="34,-93 0,-93 0,-74 34,-74 34,-93"/>
<text text-anchor="middle" x="17" y="-81" font-family="Helvetica,sans-Serif" font-size="10.00">Net</text>
</a>
</g>
</g>
<!-- Node1&#45;&gt;Node4 -->
<g id="edge3" class="edge">
<title>Node1&#45;&gt;Node4</title>
<path fill="none" stroke="black" d="M31.33,-101.4C41.01,-113.42 54.99,-128.93 70,-139.5 74.54,-142.7 79.74,-145.49 84.89,-147.87"/>
<polygon fill="black" stroke="black" points="34,-99.13 25.1,-93.39 28.48,-103.43 34,-99.13"/>
</g>
<!-- Node1&#45;&gt;Node3 -->
<g id="edge2" class="edge">
<title>Node1&#45;&gt;Node3</title>
<path fill="none" stroke="black" d="M43.81,-93.66C58.36,-99.38 76.33,-106.46 90.18,-111.91"/>
<polygon fill="black" stroke="black" points="44.96,-90.35 34.37,-89.94 42.4,-96.86 44.96,-90.35"/>
</g>
<!-- Node1&#45;&gt;Node5 -->
<g id="edge4" class="edge">
<title>Node1&#45;&gt;Node5</title>
<path fill="none" stroke="black" d="M44.47,-83.5C52.4,-83.5 61.3,-83.5 69.97,-83.5"/>
<polygon fill="black" stroke="black" points="44.37,-80 34.37,-83.5 44.37,-87 44.37,-80"/>
</g>
<!-- Node2 -->
<g id="node5" class="node">
<title>Node2</title>
<g id="a_node5"><a xlink:href="group__server.html" target="_top" xlink:title="Server parts.">
<polygon fill="white" stroke="#666666" points="137,-56 89,-56 89,-37 137,-37 137,-56"/>
<text text-anchor="middle" x="113" y="-44" font-family="Helvetica,sans-Serif" font-size="10.00">Server</text>
</a>
</g>
</g>
<!-- Node1&#45;&gt;Node2 -->
<g id="edge1" class="edge">
<title>Node1&#45;&gt;Node2</title>
<path fill="none" stroke="black" d="M43.94,-73.29C57.98,-67.76 75.18,-60.99 88.77,-55.64"/>
<polygon fill="black" stroke="black" points="42.4,-70.14 34.37,-77.06 44.96,-76.65 42.4,-70.14"/>
</g>
<!-- Node6 -->
<g id="node6" class="node">
<title>Node6</title>
<g id="a_node6"><a xlink:href="group__timer.html" target="_top" xlink:title="Manage timer and process timer events.">
<polygon fill="white" stroke="#666666" points="135,-19 91,-19 91,0 135,0 135,-19"/>
<text text-anchor="middle" x="113" y="-7" font-family="Helvetica,sans-Serif" font-size="10.00">Timer</text>
</a>
</g>
</g>
<!-- Node1&#45;&gt;Node6 -->
<g id="edge5" class="edge">
<title>Node1&#45;&gt;Node6</title>
<path fill="none" stroke="black" d="M31.46,-66.03C41.19,-54.27 55.19,-39.05 70,-28.5 76.26,-24.04 83.73,-20.25 90.62,-17.26"/>
<polygon fill="black" stroke="black" points="28.71,-63.87 25.18,-73.86 34.17,-68.25 28.71,-63.87"/>
</g>
</g>
</svg>
