<?xml version="1.0" encoding="UTF-8" standalone="no"?>
<!DOCTYPE svg PUBLIC "-//W3C//DTD SVG 1.1//EN"
 "http://www.w3.org/Graphics/SVG/1.1/DTD/svg11.dtd">
<!-- Generated by graphviz version 2.43.0 (0)
 -->
<!-- Title: Graphical Class Hierarchy Pages: 1 -->
<svg width="480pt" height="531pt"
 viewBox="0.00 0.00 480.00 531.00" xmlns="http://www.w3.org/2000/svg" xmlns:xlink="http://www.w3.org/1999/xlink">
<g id="graph0" class="graph" transform="scale(1 1) rotate(0) translate(4 527)">
<title>Graphical Class Hierarchy</title>
<!-- Node0 -->
<g id="node1" class="node">
<title>Node0</title>
<g id="a_node1"><a xlink:title=" ">
<polygon fill="#e0e0e0" stroke="#999999" points="109,-454.5 0,-454.5 0,-424.5 109,-424.5 109,-454.5"/>
<text text-anchor="start" x="8" y="-442.5" font-family="Helvetica,sans-Serif" font-size="10.00">std::enable_shared</text>
<text text-anchor="middle" x="54.5" y="-431.5" font-family="Helvetica,sans-Serif" font-size="10.00">_from_this</text>
</a>
</g>
</g>
<!-- Node1 -->
<g id="node2" class="node">
<title>Node1</title>
<g id="a_node2"><a xlink:href="classkanon_1_1ConnectionBase.html" target="_top" xlink:title=" ">
<polygon fill="white" stroke="#666666" points="291,-363.5 160,-363.5 160,-333.5 291,-333.5 291,-363.5"/>
<text text-anchor="start" x="168" y="-351.5" font-family="Helvetica,sans-Serif" font-size="10.00">kanon::ConnectionBase</text>
<text text-anchor="middle" x="225.5" y="-340.5" font-family="Helvetica,sans-Serif" font-size="10.00">&lt; TcpConnection &gt;</text>
</a>
</g>
</g>
<!-- Node0&#45;&gt;Node1 -->
<g id="edge1" class="edge">
<title>Node0&#45;&gt;Node1</title>
<path fill="none" stroke="#63b8ff" d="M79.64,-417.73C96.83,-403.2 121.03,-384.61 145,-372.5 151.56,-369.18 158.67,-366.24 165.83,-363.64"/>
<polygon fill="#63b8ff" stroke="#63b8ff" points="77.09,-415.31 71.81,-424.49 81.66,-420.61 77.09,-415.31"/>
</g>
<!-- Node4 -->
<g id="node4" class="node">
<title>Node4</title>
<g id="a_node4"><a xlink:href="classkanon_1_1ConnectionBase.html" target="_top" xlink:title=" ">
<polygon fill="white" stroke="#666666" points="291,-411.5 160,-411.5 160,-381.5 291,-381.5 291,-411.5"/>
<text text-anchor="start" x="168" y="-399.5" font-family="Helvetica,sans-Serif" font-size="10.00">kanon::ConnectionBase</text>
<text text-anchor="middle" x="225.5" y="-388.5" font-family="Helvetica,sans-Serif" font-size="10.00">&lt; UnixConnection &gt;</text>
</a>
</g>
</g>
<!-- Node0&#45;&gt;Node4 -->
<g id="edge3" class="edge">
<title>Node0&#45;&gt;Node4</title>
<path fill="none" stroke="#63b8ff" d="M119.25,-423.28C134.43,-419.42 150.56,-415.31 165.52,-411.51"/>
<polygon fill="#63b8ff" stroke="#63b8ff" points="118.27,-419.92 109.44,-425.78 119.99,-426.7 118.27,-419.92"/>
</g>
<!-- Node7 -->
<g id="node6" class="node">
<title>Node7</title>
<g id="a_node6"><a xlink:href="classkanon_1_1ConnectionBase.html" target="_top" xlink:title=" ">
<polygon fill="white" stroke="#666666" points="306,-523 145,-523 145,-504 306,-504 306,-523"/>
<text text-anchor="middle" x="225.5" y="-511" font-family="Helvetica,sans-Serif" font-size="10.00">kanon::ConnectionBase&lt; D &gt;</text>
</a>
</g>
</g>
<!-- Node0&#45;&gt;Node7 -->
<g id="edge5" class="edge">
<title>Node0&#45;&gt;Node7</title>
<path fill="none" stroke="#63b8ff" d="M83.75,-460.63C100.73,-472.43 123.21,-486.52 145,-495.5 153.11,-498.84 161.96,-501.62 170.71,-503.92"/>
<polygon fill="#63b8ff" stroke="#63b8ff" points="85.58,-457.65 75.4,-454.71 81.53,-463.35 85.58,-457.65"/>
</g>
<!-- Node8 -->
<g id="node7" class="node">
<title>Node8</title>
<g id="a_node7"><a xlink:href="classkanon_1_1Connector.html" target="_top" xlink:title="Connect to peer(server)">
<polygon fill="white" stroke="#666666" points="276.5,-486 174.5,-486 174.5,-467 276.5,-467 276.5,-486"/>
<text text-anchor="middle" x="225.5" y="-474" font-family="Helvetica,sans-Serif" font-size="10.00">kanon::Connector</text>
</a>
</g>
</g>
<!-- Node0&#45;&gt;Node8 -->
<g id="edge6" class="edge">
<title>Node0&#45;&gt;Node8</title>
<path fill="none" stroke="#63b8ff" d="M119.36,-453.48C139.91,-457.98 162.2,-462.86 180.94,-466.96"/>
<polygon fill="#63b8ff" stroke="#63b8ff" points="119.95,-450.03 109.44,-451.31 118.46,-456.87 119.95,-450.03"/>
</g>
<!-- Node18 -->
<g id="node8" class="node">
<title>Node18</title>
<g id="a_node8"><a xlink:href="classkanon_1_1TcpClient.html" target="_top" xlink:title="A Tcp client instance.">
<polygon fill="white" stroke="#666666" points="274,-449 177,-449 177,-430 274,-430 274,-449"/>
<text text-anchor="middle" x="225.5" y="-437" font-family="Helvetica,sans-Serif" font-size="10.00">kanon::TcpClient</text>
</a>
</g>
</g>
<!-- Node0&#45;&gt;Node18 -->
<g id="edge7" class="edge">
<title>Node0&#45;&gt;Node18</title>
<path fill="none" stroke="#63b8ff" d="M119.52,-439.5C138.52,-439.5 159,-439.5 176.78,-439.5"/>
<polygon fill="#63b8ff" stroke="#63b8ff" points="119.44,-436 109.44,-439.5 119.44,-443 119.44,-436"/>
</g>
<!-- Node2 -->
<g id="node3" class="node">
<title>Node2</title>
<g id="a_node3"><a xlink:href="classkanon_1_1TcpConnection.html" target="_top" xlink:title="Represents a tcp connection.">
<polygon fill="white" stroke="#666666" points="468.5,-358 345.5,-358 345.5,-339 468.5,-339 468.5,-358"/>
<text text-anchor="middle" x="407" y="-346" font-family="Helvetica,sans-Serif" font-size="10.00">kanon::TcpConnection</text>
</a>
</g>
</g>
<!-- Node1&#45;&gt;Node2 -->
<g id="edge2" class="edge">
<title>Node1&#45;&gt;Node2</title>
<path fill="none" stroke="#63b8ff" d="M301.13,-348.5C315.85,-348.5 331.13,-348.5 345.32,-348.5"/>
<polygon fill="#63b8ff" stroke="#63b8ff" points="301.05,-345 291.05,-348.5 301.05,-352 301.05,-345"/>
</g>
<!-- Node5 -->
<g id="node5" class="node">
<title>Node5</title>
<g id="a_node5"><a xlink:href="classkanon_1_1UnixConnection.html" target="_top" xlink:title=" ">
<polygon fill="white" stroke="#666666" points="472,-406 342,-406 342,-387 472,-387 472,-406"/>
<text text-anchor="middle" x="407" y="-394" font-family="Helvetica,sans-Serif" font-size="10.00">kanon::UnixConnection</text>
</a>
</g>
</g>
<!-- Node4&#45;&gt;Node5 -->
<g id="edge4" class="edge">
<title>Node4&#45;&gt;Node5</title>
<path fill="none" stroke="#63b8ff" d="M301.23,-396.5C314.68,-396.5 328.6,-396.5 341.72,-396.5"/>
<polygon fill="#63b8ff" stroke="#63b8ff" points="301.05,-393 291.05,-396.5 301.05,-400 301.05,-393"/>
</g>
<!-- Node3 -->
<g id="node9" class="node">
<title>Node3</title>
<g id="a_node9"><a xlink:title=" ">
<polygon fill="#e0e0e0" stroke="#999999" points="94,-260 15,-260 15,-241 94,-241 94,-260"/>
<text text-anchor="middle" x="54.5" y="-248" font-family="Helvetica,sans-Serif" font-size="10.00">noncopyable</text>
</a>
</g>
</g>
<!-- Node3&#45;&gt;Node1 -->
<g id="edge8" class="edge">
<title>Node3&#45;&gt;Node1</title>
<path fill="none" stroke="#8b1a1a" d="M71.87,-267.53C88.77,-284.21 116.6,-309.28 145,-324.5 151.23,-327.84 157.98,-330.78 164.84,-333.35"/>
<polygon fill="#8b1a1a" stroke="#8b1a1a" points="74.03,-264.74 64.5,-260.1 69.06,-269.66 74.03,-264.74"/>
</g>
<!-- Node3&#45;&gt;Node4 -->
<g id="edge9" class="edge">
<title>Node3&#45;&gt;Node4</title>
<path fill="none" stroke="#8b1a1a" d="M64.27,-269.15C77.83,-295.97 106.39,-345.2 145,-372.5 149.83,-375.91 155.15,-378.85 160.68,-381.37"/>
<polygon fill="#8b1a1a" stroke="#8b1a1a" points="67.36,-267.51 59.82,-260.06 61.08,-270.58 67.36,-267.51"/>
</g>
<!-- Node3&#45;&gt;Node7 -->
<g id="edge11" class="edge">
<title>Node3&#45;&gt;Node7</title>
<path fill="none" stroke="#8b1a1a" d="M61.4,-269.87C78.36,-324.99 127.15,-479.8 145,-495.5 148.82,-498.87 153.15,-501.64 157.75,-503.92"/>
<polygon fill="#8b1a1a" stroke="#8b1a1a" points="64.73,-268.78 58.45,-260.24 58.04,-270.83 64.73,-268.78"/>
</g>
<!-- Node3&#45;&gt;Node8 -->
<g id="edge12" class="edge">
<title>Node3&#45;&gt;Node8</title>
<path fill="none" stroke="#8b1a1a" d="M61.33,-269.81C75.76,-316.38 114.21,-432.91 145,-458.5 153.27,-465.38 163.64,-469.76 174.13,-472.51"/>
<polygon fill="#8b1a1a" stroke="#8b1a1a" points="64.61,-268.58 58.34,-260.04 57.92,-270.63 64.61,-268.58"/>
</g>
<!-- Node3&#45;&gt;Node18 -->
<g id="edge22" class="edge">
<title>Node3&#45;&gt;Node18</title>
<path fill="none" stroke="#8b1a1a" d="M60.12,-270.13C69.57,-305.85 94.63,-381.38 145,-420.5 154.19,-427.64 165.65,-432.15 176.98,-434.99"/>
<polygon fill="#8b1a1a" stroke="#8b1a1a" points="63.5,-269.25 57.67,-260.41 56.72,-270.96 63.5,-269.25"/>
</g>
<!-- Node6 -->
<g id="node10" class="node">
<title>Node6</title>
<g id="a_node10"><a xlink:href="classkanon_1_1Acceptor.html" target="_top" xlink:title="Accept connection from client.">
<polygon fill="white" stroke="#666666" points="273,-93 178,-93 178,-74 273,-74 273,-93"/>
<text text-anchor="middle" x="225.5" y="-81" font-family="Helvetica,sans-Serif" font-size="10.00">kanon::Acceptor</text>
</a>
</g>
</g>
<!-- Node3&#45;&gt;Node6 -->
<g id="edge10" class="edge">
<title>Node3&#45;&gt;Node6</title>
<path fill="none" stroke="#8b1a1a" d="M61.56,-231.01C72.63,-198.75 99.31,-134.55 145,-101.5 154.52,-94.62 166.22,-90.3 177.69,-87.62"/>
<polygon fill="#8b1a1a" stroke="#8b1a1a" points="58.19,-230.04 58.4,-240.63 64.84,-232.22 58.19,-230.04"/>
</g>
<!-- Node9 -->
<g id="node11" class="node">
<title>Node9</title>
<g id="a_node11"><a xlink:href="classkanon_1_1EventLoop.html" target="_top" xlink:title="A loop that process various events.">
<polygon fill="white" stroke="#666666" points="277.5,-56 173.5,-56 173.5,-37 277.5,-37 277.5,-56"/>
<text text-anchor="middle" x="225.5" y="-44" font-family="Helvetica,sans-Serif" font-size="10.00">kanon::EventLoop</text>
</a>
</g>
</g>
<!-- Node3&#45;&gt;Node9 -->
<g id="edge13" class="edge">
<title>Node3&#45;&gt;Node9</title>
<path fill="none" stroke="#8b1a1a" d="M59.04,-231.13C67.07,-192.97 90.4,-107.98 145,-64.5 153.08,-58.06 163.02,-53.84 173.1,-51.08"/>
<polygon fill="#8b1a1a" stroke="#8b1a1a" points="55.6,-230.49 57.09,-240.98 62.47,-231.85 55.6,-230.49"/>
</g>
<!-- Node10 -->
<g id="node12" class="node">
<title>Node10</title>
<g id="a_node12"><a xlink:href="classkanon_1_1EventLoopPool.html" target="_top" xlink:title="Like ThreadPool, but the elements are EventLoopThread.">
<polygon fill="white" stroke="#666666" points="288,-19 163,-19 163,0 288,0 288,-19"/>
<text text-anchor="middle" x="225.5" y="-7" font-family="Helvetica,sans-Serif" font-size="10.00">kanon::EventLoopPool</text>
</a>
</g>
</g>
<!-- Node3&#45;&gt;Node10 -->
<g id="edge14" class="edge">
<title>Node3&#45;&gt;Node10</title>
<path fill="none" stroke="#8b1a1a" d="M57.39,-230.68C62.67,-186.89 81.62,-81.52 145,-27.5 150.28,-23 156.45,-19.57 162.97,-16.95"/>
<polygon fill="#8b1a1a" stroke="#8b1a1a" points="53.91,-230.32 56.3,-240.64 60.87,-231.08 53.91,-230.32"/>
</g>
<!-- Node11 -->
<g id="node13" class="node">
<title>Node11</title>
<g id="a_node13"><a xlink:href="classkanon_1_1EventLoopThread.html" target="_top" xlink:title="Represents a event loop but running in another thread.">
<polygon fill="white" stroke="#666666" points="294,-315 157,-315 157,-296 294,-296 294,-315"/>
<text text-anchor="middle" x="225.5" y="-303" font-family="Helvetica,sans-Serif" font-size="10.00">kanon::EventLoopThread</text>
</a>
</g>
</g>
<!-- Node3&#45;&gt;Node11 -->
<g id="edge15" class="edge">
<title>Node3&#45;&gt;Node11</title>
<path fill="none" stroke="#8b1a1a" d="M85.25,-264.28C102.44,-271.87 124.64,-281.04 145,-287.5 154.98,-290.67 165.84,-293.51 176.22,-295.95"/>
<polygon fill="#8b1a1a" stroke="#8b1a1a" points="86.31,-260.93 75.75,-260.03 83.45,-267.31 86.31,-260.93"/>
</g>
<!-- Node12 -->
<g id="node14" class="node">
<title>Node12</title>
<g id="a_node14"><a xlink:href="classkanon_1_1ITimerQueuePlatform.html" target="_top" xlink:title="A FIFO data structure that manage timers.">
<polygon fill="white" stroke="#666666" points="304,-278 147,-278 147,-259 304,-259 304,-278"/>
<text text-anchor="middle" x="225.5" y="-266" font-family="Helvetica,sans-Serif" font-size="10.00">kanon::ITimerQueuePlatform</text>
</a>
</g>
</g>
<!-- Node3&#45;&gt;Node12 -->
<g id="edge16" class="edge">
<title>Node3&#45;&gt;Node12</title>
<path fill="none" stroke="#8b1a1a" d="M104.57,-255.73C117.83,-257.14 132.51,-258.7 146.93,-260.24"/>
<polygon fill="#8b1a1a" stroke="#8b1a1a" points="104.59,-252.21 94.27,-254.63 103.85,-259.17 104.59,-252.21"/>
</g>
<!-- Node13 -->
<g id="node15" class="node">
<title>Node13</title>
<g id="a_node15"><a xlink:href="classkanon_1_1PollerBase.html" target="_top" xlink:title="Abstract base class of Poller and Epoller.">
<polygon fill="white" stroke="#666666" points="277.5,-241 173.5,-241 173.5,-222 277.5,-222 277.5,-241"/>
<text text-anchor="middle" x="225.5" y="-229" font-family="Helvetica,sans-Serif" font-size="10.00">kanon::PollerBase</text>
</a>
</g>
</g>
<!-- Node3&#45;&gt;Node13 -->
<g id="edge17" class="edge">
<title>Node3&#45;&gt;Node13</title>
<path fill="none" stroke="#8b1a1a" d="M104.25,-245.02C125.93,-242.58 151.46,-239.71 173.41,-237.24"/>
<polygon fill="#8b1a1a" stroke="#8b1a1a" points="103.82,-241.55 94.27,-246.14 104.6,-248.5 103.82,-241.55"/>
</g>
<!-- Node17 -->
<g id="node19" class="node">
<title>Node17</title>
<g id="a_node19"><a xlink:href="classkanon_1_1Socket.html" target="_top" xlink:title="Represents socket instance.">
<polygon fill="white" stroke="#666666" points="268,-204 183,-204 183,-185 268,-185 268,-204"/>
<text text-anchor="middle" x="225.5" y="-192" font-family="Helvetica,sans-Serif" font-size="10.00">kanon::Socket</text>
</a>
</g>
</g>
<!-- Node3&#45;&gt;Node17 -->
<g id="edge21" class="edge">
<title>Node3&#45;&gt;Node17</title>
<path fill="none" stroke="#8b1a1a" d="M84.87,-236.46C102.1,-228.62 124.45,-219.13 145,-212.5 157.12,-208.59 170.55,-205.2 182.86,-202.46"/>
<polygon fill="#8b1a1a" stroke="#8b1a1a" points="82.98,-233.47 75.37,-240.85 85.92,-239.83 82.98,-233.47"/>
</g>
<!-- Node19 -->
<g id="node20" class="node">
<title>Node19</title>
<g id="a_node20"><a xlink:href="classkanon_1_1TcpServer.html" target="_top" xlink:title="A Tcp server instance.">
<polygon fill="white" stroke="#666666" points="275.5,-167 175.5,-167 175.5,-148 275.5,-148 275.5,-167"/>
<text text-anchor="middle" x="225.5" y="-155" font-family="Helvetica,sans-Serif" font-size="10.00">kanon::TcpServer</text>
</a>
</g>
</g>
<!-- Node3&#45;&gt;Node19 -->
<g id="edge23" class="edge">
<title>Node3&#45;&gt;Node19</title>
<path fill="none" stroke="#8b1a1a" d="M71.34,-233.07C88,-215.82 115.81,-189.97 145,-175.5 154.38,-170.85 164.98,-167.38 175.32,-164.81"/>
<polygon fill="#8b1a1a" stroke="#8b1a1a" points="68.41,-231.08 64.1,-240.76 73.5,-235.88 68.41,-231.08"/>
</g>
<!-- Node20 -->
<g id="node21" class="node">
<title>Node20</title>
<g id="a_node21"><a xlink:href="classkanon_1_1Timer.html" target="_top" xlink:title="Encapsulation of itimespec.">
<polygon fill="white" stroke="#666666" points="265.5,-130 185.5,-130 185.5,-111 265.5,-111 265.5,-130"/>
<text text-anchor="middle" x="225.5" y="-118" font-family="Helvetica,sans-Serif" font-size="10.00">kanon::Timer</text>
</a>
</g>
</g>
<!-- Node3&#45;&gt;Node20 -->
<g id="edge24" class="edge">
<title>Node3&#45;&gt;Node20</title>
<path fill="none" stroke="#8b1a1a" d="M65.04,-231.96C79.03,-206.7 107.57,-161.95 145,-138.5 156.99,-130.99 171.75,-126.6 185.28,-124.04"/>
<polygon fill="#8b1a1a" stroke="#8b1a1a" points="61.89,-230.42 60.25,-240.89 68.06,-233.73 61.89,-230.42"/>
</g>
<!-- Node14 -->
<g id="node16" class="node">
<title>Node14</title>
<g id="a_node16"><a xlink:href="classkanon_1_1Epoller.html" target="_top" xlink:title="Demultiplexer (epoll(2) wrapper)">
<polygon fill="white" stroke="#666666" points="450,-278 364,-278 364,-259 450,-259 450,-278"/>
<text text-anchor="middle" x="407" y="-266" font-family="Helvetica,sans-Serif" font-size="10.00">kanon::Epoller</text>
</a>
</g>
</g>
<!-- Node13&#45;&gt;Node14 -->
<g id="edge18" class="edge">
<title>Node13&#45;&gt;Node14</title>
<path fill="none" stroke="#63b8ff" d="M282.56,-243.06C308.85,-248.48 339.66,-254.83 363.92,-259.83"/>
<polygon fill="#63b8ff" stroke="#63b8ff" points="283.23,-239.62 272.73,-241.03 281.81,-246.48 283.23,-239.62"/>
</g>
<!-- Node15 -->
<g id="node17" class="node">
<title>Node15</title>
<g id="a_node17"><a xlink:href="classkanon_1_1IocpPoller.html" target="_top" xlink:title=" ">
<polygon fill="white" stroke="#666666" points="457.5,-241 356.5,-241 356.5,-222 457.5,-222 457.5,-241"/>
<text text-anchor="middle" x="407" y="-229" font-family="Helvetica,sans-Serif" font-size="10.00">kanon::IocpPoller</text>
</a>
</g>
</g>
<!-- Node13&#45;&gt;Node15 -->
<g id="edge19" class="edge">
<title>Node13&#45;&gt;Node15</title>
<path fill="none" stroke="#63b8ff" d="M287.99,-231.5C310.32,-231.5 335.24,-231.5 356.41,-231.5"/>
<polygon fill="#63b8ff" stroke="#63b8ff" points="287.94,-228 277.94,-231.5 287.94,-235 287.94,-228"/>
</g>
<!-- Node16 -->
<g id="node18" class="node">
<title>Node16</title>
<g id="a_node18"><a xlink:href="classkanon_1_1Poller.html" target="_top" xlink:title="Demultiplexer (poll(2) wrapper)">
<polygon fill="white" stroke="#666666" points="447,-204 367,-204 367,-185 447,-185 447,-204"/>
<text text-anchor="middle" x="407" y="-192" font-family="Helvetica,sans-Serif" font-size="10.00">kanon::Poller</text>
</a>
</g>
</g>
<!-- Node13&#45;&gt;Node16 -->
<g id="edge20" class="edge">
<title>Node13&#45;&gt;Node16</title>
<path fill="none" stroke="#63b8ff" d="M282.57,-219.94C309.96,-214.3 342.24,-207.64 366.92,-202.56"/>
<polygon fill="#63b8ff" stroke="#63b8ff" points="281.81,-216.52 272.73,-221.97 283.23,-223.38 281.81,-216.52"/>
</g>
</g>
</svg>
