<?xml version="1.0" encoding="UTF-8" standalone="no"?>
<!DOCTYPE svg PUBLIC "-//W3C//DTD SVG 1.1//EN"
 "http://www.w3.org/Graphics/SVG/1.1/DTD/svg11.dtd">
<!-- Generated by graphviz version 2.43.0 (0)
 -->
<!-- Title: kanon::TcpClient Pages: 1 -->
<svg width="240pt" height="95pt"
 viewBox="0.00 0.00 240.00 95.00" xmlns="http://www.w3.org/2000/svg" xmlns:xlink="http://www.w3.org/1999/xlink">
<g id="graph0" class="graph" transform="scale(1 1) rotate(0) translate(4 91)">
<title>kanon::TcpClient</title>
<!-- Node1 -->
<g id="node1" class="node">
<title>Node1</title>
<g id="a_node1"><a xlink:title="A Tcp client instance.">
<polygon fill="#bfbfbf" stroke="black" points="53,-0.5 53,-19.5 150,-19.5 150,-0.5 53,-0.5"/>
<text text-anchor="middle" x="101.5" y="-7.5" font-family="Helvetica,sans-Serif" font-size="10.00">kanon::TcpClient</text>
</a>
</g>
</g>
<!-- Node2 -->
<g id="node2" class="node">
<title>Node2</title>
<g id="a_node2"><a xlink:title=" ">
<polygon fill="none" stroke="#bfbfbf" points="0,-62 0,-81 79,-81 79,-62 0,-62"/>
<text text-anchor="middle" x="39.5" y="-69" font-family="Helvetica,sans-Serif" font-size="10.00">noncopyable</text>
</a>
</g>
</g>
<!-- Node2&#45;&gt;Node1 -->
<g id="edge1" class="edge">
<title>Node2&#45;&gt;Node1</title>
<path fill="none" stroke="#8b1a1a" d="M55.83,-54.82C67.61,-43.52 83.06,-28.69 92.63,-19.51"/>
<polygon fill="#8b1a1a" stroke="#8b1a1a" points="53.17,-52.53 48.38,-61.98 58.02,-57.58 53.17,-52.53"/>
</g>
<!-- Node3 -->
<g id="node3" class="node">
<title>Node3</title>
<g id="a_node3"><a xlink:title=" ">
<polygon fill="none" stroke="#bfbfbf" points="97,-56.5 97,-86.5 232,-86.5 232,-56.5 97,-56.5"/>
<text text-anchor="start" x="105" y="-74.5" font-family="Helvetica,sans-Serif" font-size="10.00">std::enable_shared</text>
<text text-anchor="middle" x="164.5" y="-63.5" font-family="Helvetica,sans-Serif" font-size="10.00">_from_this&lt; TcpClient &gt;</text>
</a>
</g>
</g>
<!-- Node3&#45;&gt;Node1 -->
<g id="edge2" class="edge">
<title>Node3&#45;&gt;Node1</title>
<path fill="none" stroke="midnightblue" d="M142.05,-49.3C131.24,-39.09 118.87,-27.41 110.67,-19.66"/>
<polygon fill="midnightblue" stroke="midnightblue" points="139.9,-52.08 149.57,-56.4 144.7,-46.99 139.9,-52.08"/>
</g>
</g>
</svg>
