<?xml version="1.0" encoding="UTF-8" standalone="no"?>
<!DOCTYPE svg PUBLIC "-//W3C//DTD SVG 1.1//EN"
 "http://www.w3.org/Graphics/SVG/1.1/DTD/svg11.dtd">
<!-- Generated by graphviz version 2.43.0 (0)
 -->
<!-- Title: kanon::ConnectionBase&lt; D &gt; Pages: 1 -->
<svg width="461pt" height="163pt"
 viewBox="0.00 0.00 460.50 163.00" xmlns="http://www.w3.org/2000/svg" xmlns:xlink="http://www.w3.org/1999/xlink">
<g id="graph0" class="graph" transform="scale(1 1) rotate(0) translate(4 159)">
<title>kanon::ConnectionBase&lt; D &gt;</title>
<!-- Node1 -->
<g id="node1" class="node">
<title>Node1</title>
<g id="a_node1"><a xlink:title=" ">
<polygon fill="#bfbfbf" stroke="black" points="152,-0.5 152,-19.5 313,-19.5 313,-0.5 152,-0.5"/>
<text text-anchor="middle" x="232.5" y="-7.5" font-family="Helvetica,sans-Serif" font-size="10.00">kanon::ConnectionBase&lt; D &gt;</text>
</a>
</g>
</g>
<!-- Node2 -->
<g id="node2" class="node">
<title>Node2</title>
<g id="a_node2"><a xlink:title=" ">
<polygon fill="none" stroke="#bfbfbf" points="0,-135.5 0,-154.5 79,-154.5 79,-135.5 0,-135.5"/>
<text text-anchor="middle" x="39.5" y="-142.5" font-family="Helvetica,sans-Serif" font-size="10.00">noncopyable</text>
</a>
</g>
</g>
<!-- Node2&#45;&gt;Node1 -->
<g id="edge1" class="edge">
<title>Node2&#45;&gt;Node1</title>
<path fill="none" stroke="#8b1a1a" d="M35.8,-125.31C33.56,-108.22 33.27,-83.21 46.5,-67 71.98,-35.78 114.2,-21.5 151.98,-15.16"/>
<polygon fill="#8b1a1a" stroke="#8b1a1a" points="32.36,-125.93 37.44,-135.22 39.26,-124.79 32.36,-125.93"/>
</g>
<!-- Node4 -->
<g id="node4" class="node">
<title>Node4</title>
<g id="a_node4"><a xlink:href="classkanon_1_1EventLoop.html" target="_top" xlink:title="A loop that process various events.">
<polygon fill="none" stroke="black" points="55.5,-73 55.5,-92 159.5,-92 159.5,-73 55.5,-73"/>
<text text-anchor="middle" x="107.5" y="-80" font-family="Helvetica,sans-Serif" font-size="10.00">kanon::EventLoop</text>
</a>
</g>
</g>
<!-- Node2&#45;&gt;Node4 -->
<g id="edge4" class="edge">
<title>Node2&#45;&gt;Node4</title>
<path fill="none" stroke="#8b1a1a" d="M57.04,-128.39C70.01,-116.86 87.18,-101.58 97.78,-92.15"/>
<polygon fill="#8b1a1a" stroke="#8b1a1a" points="54.39,-126.07 49.24,-135.33 59.04,-131.3 54.39,-126.07"/>
</g>
<!-- Node3 -->
<g id="node3" class="node">
<title>Node3</title>
<g id="a_node3"><a xlink:title=" ">
<polygon fill="none" stroke="#bfbfbf" points="178,-67.5 178,-97.5 287,-97.5 287,-67.5 178,-67.5"/>
<text text-anchor="start" x="186" y="-85.5" font-family="Helvetica,sans-Serif" font-size="10.00">std::enable_shared</text>
<text text-anchor="middle" x="232.5" y="-74.5" font-family="Helvetica,sans-Serif" font-size="10.00">_from_this&lt; D &gt;</text>
</a>
</g>
</g>
<!-- Node3&#45;&gt;Node1 -->
<g id="edge2" class="edge">
<title>Node3&#45;&gt;Node1</title>
<path fill="none" stroke="midnightblue" d="M232.5,-57.09C232.5,-44.21 232.5,-29.2 232.5,-19.89"/>
<polygon fill="midnightblue" stroke="midnightblue" points="229,-57.23 232.5,-67.23 236,-57.23 229,-57.23"/>
</g>
<!-- Node4&#45;&gt;Node1 -->
<g id="edge3" class="edge">
<title>Node4&#45;&gt;Node1</title>
<path fill="none" stroke="#9a32cd" stroke-dasharray="5,2" d="M131.77,-67.81C156.99,-53.59 195.71,-31.75 217.05,-19.72"/>
<polygon fill="#9a32cd" stroke="#9a32cd" points="129.82,-64.89 122.83,-72.86 133.26,-70.99 129.82,-64.89"/>
<text text-anchor="middle" x="196.5" y="-41" font-family="Helvetica,sans-Serif" font-size="10.00"> loop_</text>
</g>
<!-- Node5 -->
<g id="node5" class="node">
<title>Node5</title>
<g id="a_node5"><a xlink:title=" ">
<polygon fill="none" stroke="#bfbfbf" points="305,-73 305,-92 370,-92 370,-73 305,-73"/>
<text text-anchor="middle" x="337.5" y="-80" font-family="Helvetica,sans-Serif" font-size="10.00">ChunkList</text>
</a>
</g>
</g>
<!-- Node5&#45;&gt;Node1 -->
<g id="edge5" class="edge">
<title>Node5&#45;&gt;Node1</title>
<path fill="none" stroke="#9a32cd" stroke-dasharray="5,2" d="M316.27,-67.24C295.07,-53.01 263.17,-31.59 245.48,-19.72"/>
<polygon fill="#9a32cd" stroke="#9a32cd" points="314.37,-70.19 324.62,-72.86 318.27,-64.38 314.37,-70.19"/>
<text text-anchor="middle" x="325" y="-41" font-family="Helvetica,sans-Serif" font-size="10.00"> output_buffer_</text>
</g>
<!-- Node6 -->
<g id="node6" class="node">
<title>Node6</title>
<g id="a_node6"><a xlink:title=" ">
<polygon fill="none" stroke="#bfbfbf" points="400,-73 400,-92 447,-92 447,-73 400,-73"/>
<text text-anchor="middle" x="423.5" y="-80" font-family="Helvetica,sans-Serif" font-size="10.00">Buffer</text>
</a>
</g>
</g>
<!-- Node6&#45;&gt;Node1 -->
<g id="edge6" class="edge">
<title>Node6&#45;&gt;Node1</title>
<path fill="none" stroke="#9a32cd" stroke-dasharray="5,2" d="M407.01,-65.66C396.28,-56.23 381.53,-44.81 366.5,-38 347.59,-29.43 325.95,-23.57 305.65,-19.56"/>
<polygon fill="#9a32cd" stroke="#9a32cd" points="404.93,-68.51 414.68,-72.67 409.66,-63.34 404.93,-68.51"/>
<text text-anchor="middle" x="418.5" y="-41" font-family="Helvetica,sans-Serif" font-size="10.00"> input_buffer_</text>
</g>
</g>
</svg>
