<?xml version="1.0" encoding="UTF-8" standalone="no"?>
<!DOCTYPE svg PUBLIC "-//W3C//DTD SVG 1.1//EN"
 "http://www.w3.org/Graphics/SVG/1.1/DTD/svg11.dtd">
<!-- Generated by graphviz version 2.43.0 (0)
 -->
<!-- Title: kanon::UnixConnection Pages: 1 -->
<svg width="273pt" height="162pt"
 viewBox="0.00 0.00 272.50 162.00" xmlns="http://www.w3.org/2000/svg" xmlns:xlink="http://www.w3.org/1999/xlink">
<g id="graph0" class="graph" transform="scale(1 1) rotate(0) translate(4 158)">
<title>kanon::UnixConnection</title>
<!-- Node1 -->
<g id="node1" class="node">
<title>Node1</title>
<g id="a_node1"><a xlink:title=" ">
<polygon fill="#bfbfbf" stroke="black" points="44.5,-0.5 44.5,-19.5 174.5,-19.5 174.5,-0.5 44.5,-0.5"/>
<text text-anchor="middle" x="109.5" y="-7.5" font-family="Helvetica,sans-Serif" font-size="10.00">kanon::UnixConnection</text>
</a>
</g>
</g>
<!-- Node2 -->
<g id="node2" class="node">
<title>Node2</title>
<g id="a_node2"><a xlink:href="classkanon_1_1ConnectionBase.html" target="_top" xlink:title=" ">
<polygon fill="none" stroke="black" points="44,-56.5 44,-86.5 175,-86.5 175,-56.5 44,-56.5"/>
<text text-anchor="start" x="52" y="-74.5" font-family="Helvetica,sans-Serif" font-size="10.00">kanon::ConnectionBase</text>
<text text-anchor="middle" x="109.5" y="-63.5" font-family="Helvetica,sans-Serif" font-size="10.00">&lt; UnixConnection &gt;</text>
</a>
</g>
</g>
<!-- Node2&#45;&gt;Node1 -->
<g id="edge1" class="edge">
<title>Node2&#45;&gt;Node1</title>
<path fill="none" stroke="midnightblue" d="M109.5,-46.29C109.5,-36.86 109.5,-26.65 109.5,-19.66"/>
<polygon fill="midnightblue" stroke="midnightblue" points="106,-46.4 109.5,-56.4 113,-46.4 106,-46.4"/>
</g>
<!-- Node3 -->
<g id="node3" class="node">
<title>Node3</title>
<g id="a_node3"><a xlink:title=" ">
<polygon fill="none" stroke="#bfbfbf" points="0,-129 0,-148 79,-148 79,-129 0,-129"/>
<text text-anchor="middle" x="39.5" y="-136" font-family="Helvetica,sans-Serif" font-size="10.00">noncopyable</text>
</a>
</g>
</g>
<!-- Node3&#45;&gt;Node2 -->
<g id="edge2" class="edge">
<title>Node3&#45;&gt;Node2</title>
<path fill="none" stroke="#8b1a1a" d="M56.27,-121.93C67.85,-111.18 83.11,-97 94.33,-86.59"/>
<polygon fill="#8b1a1a" stroke="#8b1a1a" points="53.89,-119.36 48.94,-128.73 58.65,-124.49 53.89,-119.36"/>
</g>
<!-- Node4 -->
<g id="node4" class="node">
<title>Node4</title>
<g id="a_node4"><a xlink:title=" ">
<polygon fill="none" stroke="#bfbfbf" points="96.5,-123.5 96.5,-153.5 264.5,-153.5 264.5,-123.5 96.5,-123.5"/>
<text text-anchor="start" x="104.5" y="-141.5" font-family="Helvetica,sans-Serif" font-size="10.00">std::enable_shared</text>
<text text-anchor="middle" x="180.5" y="-130.5" font-family="Helvetica,sans-Serif" font-size="10.00">_from_this&lt; UnixConnection &gt;</text>
</a>
</g>
</g>
<!-- Node4&#45;&gt;Node2 -->
<g id="edge3" class="edge">
<title>Node4&#45;&gt;Node2</title>
<path fill="none" stroke="midnightblue" d="M157.67,-116.6C146.95,-106.78 134.45,-95.34 124.88,-86.58"/>
<polygon fill="midnightblue" stroke="midnightblue" points="155.35,-119.22 165.09,-123.4 160.08,-114.06 155.35,-119.22"/>
</g>
</g>
</svg>
