<?xml version="1.0" encoding="UTF-8" standalone="no"?>
<!DOCTYPE svg PUBLIC "-//W3C//DTD SVG 1.1//EN"
 "http://www.w3.org/Graphics/SVG/1.1/DTD/svg11.dtd">
<!-- Generated by graphviz version 2.43.0 (0)
 -->
<!-- Title: kanon::TcpServer Pages: 1 -->
<svg width="174pt" height="152pt"
 viewBox="0.00 0.00 174.00 152.00" xmlns="http://www.w3.org/2000/svg" xmlns:xlink="http://www.w3.org/1999/xlink">
<g id="graph0" class="graph" transform="scale(1 1) rotate(0) translate(4 148)">
<title>kanon::TcpServer</title>
<!-- Node1 -->
<g id="node1" class="node">
<title>Node1</title>
<g id="a_node1"><a xlink:title="A Tcp server instance.">
<polygon fill="#bfbfbf" stroke="black" points="0,-0.5 0,-19.5 100,-19.5 100,-0.5 0,-0.5"/>
<text text-anchor="middle" x="50" y="-7.5" font-family="Helvetica,sans-Serif" font-size="10.00">kanon::TcpServer</text>
</a>
</g>
</g>
<!-- Node2 -->
<g id="node2" class="node">
<title>Node2</title>
<g id="a_node2"><a xlink:title=" ">
<polygon fill="none" stroke="#bfbfbf" points="6.5,-124.5 6.5,-143.5 85.5,-143.5 85.5,-124.5 6.5,-124.5"/>
<text text-anchor="middle" x="46" y="-131.5" font-family="Helvetica,sans-Serif" font-size="10.00">noncopyable</text>
</a>
</g>
</g>
<!-- Node2&#45;&gt;Node1 -->
<g id="edge1" class="edge">
<title>Node2&#45;&gt;Node1</title>
<path fill="none" stroke="#8b1a1a" d="M46.62,-114.19C47.5,-87.4 49.07,-39.31 49.71,-19.69"/>
<polygon fill="#8b1a1a" stroke="#8b1a1a" points="43.12,-114.12 46.29,-124.23 50.11,-114.35 43.12,-114.12"/>
</g>
<!-- Node3 -->
<g id="node3" class="node">
<title>Node3</title>
<g id="a_node3"><a xlink:href="classkanon_1_1EventLoop.html" target="_top" xlink:title="A loop that process various events.">
<polygon fill="none" stroke="black" points="62,-67.5 62,-86.5 166,-86.5 166,-67.5 62,-67.5"/>
<text text-anchor="middle" x="114" y="-74.5" font-family="Helvetica,sans-Serif" font-size="10.00">kanon::EventLoop</text>
</a>
</g>
</g>
<!-- Node2&#45;&gt;Node3 -->
<g id="edge3" class="edge">
<title>Node2&#45;&gt;Node3</title>
<path fill="none" stroke="#8b1a1a" d="M64.55,-118C76.96,-107.96 92.85,-95.1 103.23,-86.71"/>
<polygon fill="#8b1a1a" stroke="#8b1a1a" points="62.2,-115.4 56.62,-124.41 66.6,-120.84 62.2,-115.4"/>
</g>
<!-- Node3&#45;&gt;Node1 -->
<g id="edge2" class="edge">
<title>Node3&#45;&gt;Node1</title>
<path fill="none" stroke="#9a32cd" stroke-dasharray="5,2" d="M98.24,-60C85.69,-47.25 68.6,-29.89 58.49,-19.63"/>
<polygon fill="#9a32cd" stroke="#9a32cd" points="95.86,-62.56 105.37,-67.23 100.85,-57.65 95.86,-62.56"/>
<text text-anchor="middle" x="100" y="-41" font-family="Helvetica,sans-Serif" font-size="10.00"> loop_</text>
</g>
</g>
</svg>
