<?xml version="1.0" encoding="UTF-8" standalone="no"?>
<!DOCTYPE svg PUBLIC "-//W3C//DTD SVG 1.1//EN"
 "http://www.w3.org/Graphics/SVG/1.1/DTD/svg11.dtd">
<!-- Generated by graphviz version 2.43.0 (0)
 -->
<!-- Title: kanon::PollerBase Pages: 1 -->
<svg width="176pt" height="152pt"
 viewBox="0.00 0.00 176.00 152.00" xmlns="http://www.w3.org/2000/svg" xmlns:xlink="http://www.w3.org/1999/xlink">
<g id="graph0" class="graph" transform="scale(1 1) rotate(0) translate(4 148)">
<title>kanon::PollerBase</title>
<!-- Node1 -->
<g id="node1" class="node">
<title>Node1</title>
<g id="a_node1"><a xlink:title="Abstract base class of Poller and Epoller.">
<polygon fill="#bfbfbf" stroke="black" points="0,-0.5 0,-19.5 104,-19.5 104,-0.5 0,-0.5"/>
<text text-anchor="middle" x="52" y="-7.5" font-family="Helvetica,sans-Serif" font-size="10.00">kanon::PollerBase</text>
</a>
</g>
</g>
<!-- Node2 -->
<g id="node2" class="node">
<title>Node2</title>
<g id="a_node2"><a xlink:title=" ">
<polygon fill="none" stroke="#bfbfbf" points="8.5,-124.5 8.5,-143.5 87.5,-143.5 87.5,-124.5 8.5,-124.5"/>
<text text-anchor="middle" x="48" y="-131.5" font-family="Helvetica,sans-Serif" font-size="10.00">noncopyable</text>
</a>
</g>
</g>
<!-- Node2&#45;&gt;Node1 -->
<g id="edge1" class="edge">
<title>Node2&#45;&gt;Node1</title>
<path fill="none" stroke="#8b1a1a" d="M48.62,-114.19C49.5,-87.4 51.07,-39.31 51.71,-19.69"/>
<polygon fill="#8b1a1a" stroke="#8b1a1a" points="45.12,-114.12 48.29,-124.23 52.11,-114.35 45.12,-114.12"/>
</g>
<!-- Node3 -->
<g id="node3" class="node">
<title>Node3</title>
<g id="a_node3"><a xlink:href="classkanon_1_1EventLoop.html" target="_top" xlink:title="A loop that process various events.">
<polygon fill="none" stroke="black" points="64,-67.5 64,-86.5 168,-86.5 168,-67.5 64,-67.5"/>
<text text-anchor="middle" x="116" y="-74.5" font-family="Helvetica,sans-Serif" font-size="10.00">kanon::EventLoop</text>
</a>
</g>
</g>
<!-- Node2&#45;&gt;Node3 -->
<g id="edge3" class="edge">
<title>Node2&#45;&gt;Node3</title>
<path fill="none" stroke="#8b1a1a" d="M66.55,-118C78.96,-107.96 94.85,-95.1 105.23,-86.71"/>
<polygon fill="#8b1a1a" stroke="#8b1a1a" points="64.2,-115.4 58.62,-124.41 68.6,-120.84 64.2,-115.4"/>
</g>
<!-- Node3&#45;&gt;Node1 -->
<g id="edge2" class="edge">
<title>Node3&#45;&gt;Node1</title>
<path fill="none" stroke="#9a32cd" stroke-dasharray="5,2" d="M100.24,-60C87.69,-47.25 70.6,-29.89 60.49,-19.63"/>
<polygon fill="#9a32cd" stroke="#9a32cd" points="97.86,-62.56 107.37,-67.23 102.85,-57.65 97.86,-62.56"/>
<text text-anchor="middle" x="102" y="-41" font-family="Helvetica,sans-Serif" font-size="10.00"> loop_</text>
</g>
</g>
</svg>
