<?xml version="1.0" encoding="UTF-8" standalone="no"?>
<!DOCTYPE svg PUBLIC "-//W3C//DTD SVG 1.1//EN"
 "http://www.w3.org/Graphics/SVG/1.1/DTD/svg11.dtd">
<!-- Generated by graphviz version 2.43.0 (0)
 -->
<!-- Title: kanon::EventLoopThread Pages: 1 -->
<svg width="193pt" height="152pt"
 viewBox="0.00 0.00 192.50 152.00" xmlns="http://www.w3.org/2000/svg" xmlns:xlink="http://www.w3.org/1999/xlink">
<g id="graph0" class="graph" transform="scale(1 1) rotate(0) translate(4 148)">
<title>kanon::EventLoopThread</title>
<!-- Node1 -->
<g id="node1" class="node">
<title>Node1</title>
<g id="a_node1"><a xlink:title="Represents a event loop but running in another thread.">
<polygon fill="#bfbfbf" stroke="black" points="0,-0.5 0,-19.5 137,-19.5 137,-0.5 0,-0.5"/>
<text text-anchor="middle" x="68.5" y="-7.5" font-family="Helvetica,sans-Serif" font-size="10.00">kanon::EventLoopThread</text>
</a>
</g>
</g>
<!-- Node2 -->
<g id="node2" class="node">
<title>Node2</title>
<g id="a_node2"><a xlink:title=" ">
<polygon fill="none" stroke="#bfbfbf" points="25,-124.5 25,-143.5 104,-143.5 104,-124.5 25,-124.5"/>
<text text-anchor="middle" x="64.5" y="-131.5" font-family="Helvetica,sans-Serif" font-size="10.00">noncopyable</text>
</a>
</g>
</g>
<!-- Node2&#45;&gt;Node1 -->
<g id="edge1" class="edge">
<title>Node2&#45;&gt;Node1</title>
<path fill="none" stroke="#8b1a1a" d="M65.12,-114.19C66,-87.4 67.57,-39.31 68.21,-19.69"/>
<polygon fill="#8b1a1a" stroke="#8b1a1a" points="61.62,-114.12 64.79,-124.23 68.61,-114.35 61.62,-114.12"/>
</g>
<!-- Node3 -->
<g id="node3" class="node">
<title>Node3</title>
<g id="a_node3"><a xlink:href="classkanon_1_1EventLoop.html" target="_top" xlink:title="A loop that process various events.">
<polygon fill="none" stroke="black" points="80.5,-67.5 80.5,-86.5 184.5,-86.5 184.5,-67.5 80.5,-67.5"/>
<text text-anchor="middle" x="132.5" y="-74.5" font-family="Helvetica,sans-Serif" font-size="10.00">kanon::EventLoop</text>
</a>
</g>
</g>
<!-- Node2&#45;&gt;Node3 -->
<g id="edge3" class="edge">
<title>Node2&#45;&gt;Node3</title>
<path fill="none" stroke="#8b1a1a" d="M83.05,-118C95.46,-107.96 111.35,-95.1 121.73,-86.71"/>
<polygon fill="#8b1a1a" stroke="#8b1a1a" points="80.7,-115.4 75.12,-124.41 85.1,-120.84 80.7,-115.4"/>
</g>
<!-- Node3&#45;&gt;Node1 -->
<g id="edge2" class="edge">
<title>Node3&#45;&gt;Node1</title>
<path fill="none" stroke="#9a32cd" stroke-dasharray="5,2" d="M116.74,-60C104.19,-47.25 87.1,-29.89 76.99,-19.63"/>
<polygon fill="#9a32cd" stroke="#9a32cd" points="114.36,-62.56 123.87,-67.23 119.35,-57.65 114.36,-62.56"/>
<text text-anchor="middle" x="118.5" y="-41" font-family="Helvetica,sans-Serif" font-size="10.00"> loop_</text>
</g>
</g>
</svg>
