<?xml version="1.0" encoding="UTF-8" standalone="no"?>
<!DOCTYPE svg PUBLIC "-//W3C//DTD SVG 1.1//EN"
 "http://www.w3.org/Graphics/SVG/1.1/DTD/svg11.dtd">
<!-- Generated by graphviz version 2.43.0 (0)
 -->
<!-- Title: kanon::Connector Pages: 1 -->
<svg width="459pt" height="154pt"
 viewBox="0.00 0.00 459.00 153.50" xmlns="http://www.w3.org/2000/svg" xmlns:xlink="http://www.w3.org/1999/xlink">
<g id="graph0" class="graph" transform="scale(1 1) rotate(0) translate(4 149.5)">
<title>kanon::Connector</title>
<!-- Node1 -->
<g id="node1" class="node">
<title>Node1</title>
<g id="a_node1"><a xlink:title="Connect to peer(server)">
<polygon fill="#bfbfbf" stroke="black" points="349,-63.5 349,-82.5 451,-82.5 451,-63.5 349,-63.5"/>
<text text-anchor="middle" x="400" y="-70.5" font-family="Helvetica,sans-Serif" font-size="10.00">kanon::Connector</text>
</a>
</g>
</g>
<!-- Node2 -->
<g id="node2" class="node">
<title>Node2</title>
<g id="a_node2"><a xlink:title=" ">
<polygon fill="none" stroke="#bfbfbf" points="116,-115 116,-145 256,-145 256,-115 116,-115"/>
<text text-anchor="start" x="124" y="-133" font-family="Helvetica,sans-Serif" font-size="10.00">std::enable_shared</text>
<text text-anchor="middle" x="186" y="-122" font-family="Helvetica,sans-Serif" font-size="10.00">_from_this&lt; Connector &gt;</text>
</a>
</g>
</g>
<!-- Node2&#45;&gt;Node1 -->
<g id="edge1" class="edge">
<title>Node2&#45;&gt;Node1</title>
<path fill="none" stroke="midnightblue" d="M266.06,-116.09C287.33,-111.65 310.2,-106.24 331,-100 346.94,-95.22 364.37,-88.26 377.59,-82.6"/>
<polygon fill="midnightblue" stroke="midnightblue" points="265.19,-112.69 256.09,-118.12 266.59,-119.55 265.19,-112.69"/>
</g>
<!-- Node3 -->
<g id="node3" class="node">
<title>Node3</title>
<g id="a_node3"><a xlink:title=" ">
<polygon fill="none" stroke="#bfbfbf" points="0,-57.5 0,-76.5 79,-76.5 79,-57.5 0,-57.5"/>
<text text-anchor="middle" x="39.5" y="-64.5" font-family="Helvetica,sans-Serif" font-size="10.00">noncopyable</text>
</a>
</g>
</g>
<!-- Node3&#45;&gt;Node1 -->
<g id="edge2" class="edge">
<title>Node3&#45;&gt;Node1</title>
<path fill="none" stroke="#8b1a1a" d="M89.23,-71.58C91.86,-71.74 94.46,-71.88 97,-72 185.52,-76.06 288.78,-75.19 348.74,-74.14"/>
<polygon fill="#8b1a1a" stroke="#8b1a1a" points="89.29,-68.07 79.07,-70.85 88.8,-75.05 89.29,-68.07"/>
</g>
<!-- Node4 -->
<g id="node4" class="node">
<title>Node4</title>
<g id="a_node4"><a xlink:href="classkanon_1_1EventLoop.html" target="_top" xlink:title="A loop that process various events.">
<polygon fill="none" stroke="black" points="134,-38.5 134,-57.5 238,-57.5 238,-38.5 134,-38.5"/>
<text text-anchor="middle" x="186" y="-45.5" font-family="Helvetica,sans-Serif" font-size="10.00">kanon::EventLoop</text>
</a>
</g>
</g>
<!-- Node3&#45;&gt;Node4 -->
<g id="edge4" class="edge">
<title>Node3&#45;&gt;Node4</title>
<path fill="none" stroke="#8b1a1a" d="M89.39,-60.57C103.73,-58.69 119.45,-56.62 133.93,-54.72"/>
<polygon fill="#8b1a1a" stroke="#8b1a1a" points="88.68,-57.13 79.22,-61.91 89.59,-64.07 88.68,-57.13"/>
</g>
<!-- Node4&#45;&gt;Node1 -->
<g id="edge3" class="edge">
<title>Node4&#45;&gt;Node1</title>
<path fill="none" stroke="#9a32cd" stroke-dasharray="5,2" d="M248.41,-52.39C274,-54.52 303.99,-57.4 331,-61 336.82,-61.78 342.91,-62.69 348.94,-63.67"/>
<polygon fill="#9a32cd" stroke="#9a32cd" points="248.35,-48.88 238.1,-51.55 247.78,-55.85 248.35,-48.88"/>
<text text-anchor="middle" x="302.5" y="-64" font-family="Helvetica,sans-Serif" font-size="10.00"> loop_</text>
</g>
<!-- Node5 -->
<g id="node5" class="node">
<title>Node5</title>
<g id="a_node5"><a xlink:href="classkanon_1_1InetAddr.html" target="_top" xlink:title="Represent a internet address(Ipv4 or Ipv6)">
<polygon fill="none" stroke="black" points="139,-0.5 139,-19.5 233,-19.5 233,-0.5 139,-0.5"/>
<text text-anchor="middle" x="186" y="-7.5" font-family="Helvetica,sans-Serif" font-size="10.00">kanon::InetAddr</text>
</a>
</g>
</g>
<!-- Node5&#45;&gt;Node1 -->
<g id="edge5" class="edge">
<title>Node5&#45;&gt;Node1</title>
<path fill="none" stroke="#9a32cd" stroke-dasharray="5,2" d="M243.27,-17.78C270.25,-22.4 302.77,-29.29 331,-39 349.6,-45.39 369.58,-55.86 383.04,-63.5"/>
<polygon fill="#9a32cd" stroke="#9a32cd" points="243.66,-14.29 233.22,-16.12 242.52,-21.2 243.66,-14.29"/>
<text text-anchor="middle" x="302.5" y="-42" font-family="Helvetica,sans-Serif" font-size="10.00"> serv_addr_</text>
</g>
</g>
</svg>
