<?xml version="1.0" encoding="UTF-8" standalone="no"?>
<!DOCTYPE svg PUBLIC "-//W3C//DTD SVG 1.1//EN"
 "http://www.w3.org/Graphics/SVG/1.1/DTD/svg11.dtd">
<!-- Generated by graphviz version 2.43.0 (0)
 -->
<!-- Title: Graphical Class Hierarchy Pages: 1 -->
<svg width="511pt" height="545pt"
 viewBox="0.00 0.00 511.00 545.00" xmlns="http://www.w3.org/2000/svg" xmlns:xlink="http://www.w3.org/1999/xlink">
<g id="graph0" class="graph" transform="scale(1 1) rotate(0) translate(4 541)">
<title>Graphical Class Hierarchy</title>
<!-- Node25 -->
<g id="node1" class="node">
<title>Node25</title>
<g id="a_node1"><a xlink:title=" ">
<polygon fill="none" stroke="#bfbfbf" points="0,-441.5 0,-460.5 140,-460.5 140,-441.5 0,-441.5"/>
<text text-anchor="middle" x="70" y="-448.5" font-family="Helvetica,sans-Serif" font-size="10.00">enable_shared_from_this</text>
</a>
</g>
</g>
<!-- Node0 -->
<g id="node2" class="node">
<title>Node0</title>
<g id="a_node2"><a xlink:href="classkanon_1_1ConnectionBase.html" target="_top" xlink:title=" ">
<polygon fill="none" stroke="black" points="191,-343 191,-373 322,-373 322,-343 191,-343"/>
<text text-anchor="start" x="199" y="-361" font-family="Helvetica,sans-Serif" font-size="10.00">kanon::ConnectionBase</text>
<text text-anchor="middle" x="256.5" y="-350" font-family="Helvetica,sans-Serif" font-size="10.00">&lt; TcpConnection &gt;</text>
</a>
</g>
</g>
<!-- Node25&#45;&gt;Node0 -->
<g id="edge1" class="edge">
<title>Node25&#45;&gt;Node0</title>
<path fill="none" stroke="midnightblue" d="M91.52,-435.31C112.01,-420.24 144.84,-397.66 176,-383 183.86,-379.3 192.4,-375.97 200.87,-373.03"/>
<polygon fill="midnightblue" stroke="midnightblue" points="89.2,-432.67 83.28,-441.46 93.39,-438.28 89.2,-432.67"/>
</g>
<!-- Node5 -->
<g id="node4" class="node">
<title>Node5</title>
<g id="a_node4"><a xlink:href="classkanon_1_1ConnectionBase.html" target="_top" xlink:title=" ">
<polygon fill="none" stroke="black" points="191,-392 191,-422 322,-422 322,-392 191,-392"/>
<text text-anchor="start" x="199" y="-410" font-family="Helvetica,sans-Serif" font-size="10.00">kanon::ConnectionBase</text>
<text text-anchor="middle" x="256.5" y="-399" font-family="Helvetica,sans-Serif" font-size="10.00">&lt; UnixConnection &gt;</text>
</a>
</g>
</g>
<!-- Node25&#45;&gt;Node5 -->
<g id="edge3" class="edge">
<title>Node25&#45;&gt;Node5</title>
<path fill="none" stroke="midnightblue" d="M120.83,-439.12C142.84,-433.87 168.97,-427.64 192.33,-422.07"/>
<polygon fill="midnightblue" stroke="midnightblue" points="119.95,-435.73 111.03,-441.45 121.57,-442.54 119.95,-435.73"/>
</g>
<!-- Node8 -->
<g id="node6" class="node">
<title>Node8</title>
<g id="a_node6"><a xlink:href="classkanon_1_1ConnectionBase.html" target="_top" xlink:title=" ">
<polygon fill="none" stroke="black" points="176,-517.5 176,-536.5 337,-536.5 337,-517.5 176,-517.5"/>
<text text-anchor="middle" x="256.5" y="-524.5" font-family="Helvetica,sans-Serif" font-size="10.00">kanon::ConnectionBase&lt; D &gt;</text>
</a>
</g>
</g>
<!-- Node25&#45;&gt;Node8 -->
<g id="edge5" class="edge">
<title>Node25&#45;&gt;Node8</title>
<path fill="none" stroke="midnightblue" d="M94.43,-466.05C115.16,-478.8 146.61,-496.74 176,-508 185.67,-511.71 196.29,-514.84 206.54,-517.44"/>
<polygon fill="midnightblue" stroke="midnightblue" points="96.04,-462.93 85.7,-460.61 92.33,-468.87 96.04,-462.93"/>
</g>
<!-- Node9 -->
<g id="node7" class="node">
<title>Node9</title>
<g id="a_node7"><a xlink:href="classkanon_1_1Connector.html" target="_top" xlink:title="Connect to peer(server)">
<polygon fill="none" stroke="black" points="205.5,-479.5 205.5,-498.5 307.5,-498.5 307.5,-479.5 205.5,-479.5"/>
<text text-anchor="middle" x="256.5" y="-486.5" font-family="Helvetica,sans-Serif" font-size="10.00">kanon::Connector</text>
</a>
</g>
</g>
<!-- Node25&#45;&gt;Node9 -->
<g id="edge6" class="edge">
<title>Node25&#45;&gt;Node9</title>
<path fill="none" stroke="midnightblue" d="M127.37,-462.61C153.61,-468.01 184.44,-474.36 209.28,-479.48"/>
<polygon fill="midnightblue" stroke="midnightblue" points="128.06,-459.18 117.56,-460.59 126.65,-466.03 128.06,-459.18"/>
</g>
<!-- Node19 -->
<g id="node8" class="node">
<title>Node19</title>
<g id="a_node8"><a xlink:href="classkanon_1_1TcpClient.html" target="_top" xlink:title="A Tcp client instance.">
<polygon fill="none" stroke="black" points="208,-441.5 208,-460.5 305,-460.5 305,-441.5 208,-441.5"/>
<text text-anchor="middle" x="256.5" y="-448.5" font-family="Helvetica,sans-Serif" font-size="10.00">kanon::TcpClient</text>
</a>
</g>
</g>
<!-- Node25&#45;&gt;Node19 -->
<g id="edge7" class="edge">
<title>Node25&#45;&gt;Node19</title>
<path fill="none" stroke="midnightblue" d="M150.35,-451C169.89,-451 190.22,-451 207.74,-451"/>
<polygon fill="midnightblue" stroke="midnightblue" points="150.23,-447.5 140.23,-451 150.23,-454.5 150.23,-447.5"/>
</g>
<!-- Node1 -->
<g id="node3" class="node">
<title>Node1</title>
<g id="a_node3"><a xlink:href="classkanon_1_1TcpConnection.html" target="_top" xlink:title="Represents a tcp connection.">
<polygon fill="none" stroke="black" points="376.5,-348.5 376.5,-367.5 499.5,-367.5 499.5,-348.5 376.5,-348.5"/>
<text text-anchor="middle" x="438" y="-355.5" font-family="Helvetica,sans-Serif" font-size="10.00">kanon::TcpConnection</text>
</a>
</g>
</g>
<!-- Node0&#45;&gt;Node1 -->
<g id="edge2" class="edge">
<title>Node0&#45;&gt;Node1</title>
<path fill="none" stroke="midnightblue" d="M332.13,-358C346.85,-358 362.13,-358 376.32,-358"/>
<polygon fill="midnightblue" stroke="midnightblue" points="332.05,-354.5 322.05,-358 332.05,-361.5 332.05,-354.5"/>
</g>
<!-- Node6 -->
<g id="node5" class="node">
<title>Node6</title>
<g id="a_node5"><a xlink:href="classkanon_1_1UnixConnection.html" target="_top" xlink:title=" ">
<polygon fill="none" stroke="black" points="373,-397.5 373,-416.5 503,-416.5 503,-397.5 373,-397.5"/>
<text text-anchor="middle" x="438" y="-404.5" font-family="Helvetica,sans-Serif" font-size="10.00">kanon::UnixConnection</text>
</a>
</g>
</g>
<!-- Node5&#45;&gt;Node6 -->
<g id="edge4" class="edge">
<title>Node5&#45;&gt;Node6</title>
<path fill="none" stroke="midnightblue" d="M332.23,-407C345.68,-407 359.6,-407 372.72,-407"/>
<polygon fill="midnightblue" stroke="midnightblue" points="332.05,-403.5 322.05,-407 332.05,-410.5 332.05,-403.5"/>
</g>
<!-- Node2 -->
<g id="node9" class="node">
<title>Node2</title>
<g id="a_node9"><a xlink:title=" ">
<polygon fill="none" stroke="#bfbfbf" points="30.5,-247.5 30.5,-266.5 109.5,-266.5 109.5,-247.5 30.5,-247.5"/>
<text text-anchor="middle" x="70" y="-254.5" font-family="Helvetica,sans-Serif" font-size="10.00">noncopyable</text>
</a>
</g>
</g>
<!-- Node2&#45;&gt;Node0 -->
<g id="edge8" class="edge">
<title>Node2&#45;&gt;Node0</title>
<path fill="none" stroke="#8b1a1a" d="M89.62,-273.36C109.72,-290.3 143.27,-316.56 176,-333 183.37,-336.7 191.4,-340 199.43,-342.88"/>
<polygon fill="#8b1a1a" stroke="#8b1a1a" points="91.74,-270.57 81.87,-266.72 87.19,-275.89 91.74,-270.57"/>
</g>
<!-- Node2&#45;&gt;Node5 -->
<g id="edge9" class="edge">
<title>Node2&#45;&gt;Node5</title>
<path fill="none" stroke="#8b1a1a" d="M81.5,-275.47C98.06,-302.96 132.86,-354.45 176,-383 181.17,-386.42 186.85,-389.37 192.71,-391.91"/>
<polygon fill="#8b1a1a" stroke="#8b1a1a" points="84.32,-273.37 76.24,-266.52 78.29,-276.91 84.32,-273.37"/>
</g>
<!-- Node2&#45;&gt;Node8 -->
<g id="edge11" class="edge">
<title>Node2&#45;&gt;Node8</title>
<path fill="none" stroke="#8b1a1a" d="M78.45,-276.13C100.83,-333.37 166.47,-499.9 176,-508 180.54,-511.86 185.73,-514.97 191.24,-517.46"/>
<polygon fill="#8b1a1a" stroke="#8b1a1a" points="81.7,-274.81 74.8,-266.77 75.18,-277.36 81.7,-274.81"/>
</g>
<!-- Node2&#45;&gt;Node9 -->
<g id="edge12" class="edge">
<title>Node2&#45;&gt;Node9</title>
<path fill="none" stroke="#8b1a1a" d="M74.86,-276.82C84.2,-319.22 112.11,-419 176,-470 184.43,-476.73 194.86,-481.14 205.36,-484.01"/>
<polygon fill="#8b1a1a" stroke="#8b1a1a" points="78.26,-275.98 72.79,-266.91 71.41,-277.41 78.26,-275.98"/>
</g>
<!-- Node2&#45;&gt;Node19 -->
<g id="edge22" class="edge">
<title>Node2&#45;&gt;Node19</title>
<path fill="none" stroke="#8b1a1a" d="M77.09,-276.73C89.46,-313.35 121.1,-391.76 176,-432 185.27,-438.8 196.63,-443.19 207.84,-446.03"/>
<polygon fill="#8b1a1a" stroke="#8b1a1a" points="80.29,-275.23 73.87,-266.8 73.63,-277.39 80.29,-275.23"/>
</g>
<!-- Node7 -->
<g id="node10" class="node">
<title>Node7</title>
<g id="a_node10"><a xlink:href="classkanon_1_1Acceptor.html" target="_top" xlink:title="Accept connection from client.">
<polygon fill="none" stroke="black" points="209,-76.5 209,-95.5 304,-95.5 304,-76.5 209,-76.5"/>
<text text-anchor="middle" x="256.5" y="-83.5" font-family="Helvetica,sans-Serif" font-size="10.00">kanon::Acceptor</text>
</a>
</g>
</g>
<!-- Node2&#45;&gt;Node7 -->
<g id="edge10" class="edge">
<title>Node2&#45;&gt;Node7</title>
<path fill="none" stroke="#8b1a1a" d="M78.63,-238.04C92.73,-205.49 126.09,-139.17 176,-105 185.72,-98.35 197.49,-94.01 208.97,-91.19"/>
<polygon fill="#8b1a1a" stroke="#8b1a1a" points="75.37,-236.77 74.73,-247.34 81.82,-239.47 75.37,-236.77"/>
</g>
<!-- Node10 -->
<g id="node11" class="node">
<title>Node10</title>
<g id="a_node11"><a xlink:href="classkanon_1_1EventLoop.html" target="_top" xlink:title="A loop that process various events.">
<polygon fill="none" stroke="black" points="204.5,-38.5 204.5,-57.5 308.5,-57.5 308.5,-38.5 204.5,-38.5"/>
<text text-anchor="middle" x="256.5" y="-45.5" font-family="Helvetica,sans-Serif" font-size="10.00">kanon::EventLoop</text>
</a>
</g>
</g>
<!-- Node2&#45;&gt;Node10 -->
<g id="edge13" class="edge">
<title>Node2&#45;&gt;Node10</title>
<path fill="none" stroke="#8b1a1a" d="M76.12,-237.22C87.27,-198.24 117.57,-111.44 176,-67 184.25,-60.73 194.25,-56.49 204.35,-53.63"/>
<polygon fill="#8b1a1a" stroke="#8b1a1a" points="72.63,-236.71 73.37,-247.28 79.38,-238.56 72.63,-236.71"/>
</g>
<!-- Node11 -->
<g id="node12" class="node">
<title>Node11</title>
<g id="a_node12"><a xlink:href="classkanon_1_1EventLoopPool.html" target="_top" xlink:title="Like ThreadPool, but the elements are EventLoopThread.">
<polygon fill="none" stroke="black" points="194,-0.5 194,-19.5 319,-19.5 319,-0.5 194,-0.5"/>
<text text-anchor="middle" x="256.5" y="-7.5" font-family="Helvetica,sans-Serif" font-size="10.00">kanon::EventLoopPool</text>
</a>
</g>
</g>
<!-- Node2&#45;&gt;Node11 -->
<g id="edge14" class="edge">
<title>Node2&#45;&gt;Node11</title>
<path fill="none" stroke="#8b1a1a" d="M74.13,-237.34C82.29,-192.93 108.43,-84.42 176,-29 181.27,-24.68 187.35,-21.31 193.77,-18.69"/>
<polygon fill="#8b1a1a" stroke="#8b1a1a" points="70.65,-236.95 72.4,-247.4 77.55,-238.14 70.65,-236.95"/>
</g>
<!-- Node12 -->
<g id="node13" class="node">
<title>Node12</title>
<g id="a_node13"><a xlink:href="classkanon_1_1EventLoopThread.html" target="_top" xlink:title="Represents a event loop but running in another thread.">
<polygon fill="none" stroke="black" points="188,-304.5 188,-323.5 325,-323.5 325,-304.5 188,-304.5"/>
<text text-anchor="middle" x="256.5" y="-311.5" font-family="Helvetica,sans-Serif" font-size="10.00">kanon::EventLoopThread</text>
</a>
</g>
</g>
<!-- Node2&#45;&gt;Node12 -->
<g id="edge15" class="edge">
<title>Node2&#45;&gt;Node12</title>
<path fill="none" stroke="#8b1a1a" d="M104.43,-270.19C124.9,-277.99 151.74,-287.74 176,-295 187.42,-298.42 199.9,-301.64 211.53,-304.42"/>
<polygon fill="#8b1a1a" stroke="#8b1a1a" points="105.52,-266.86 94.93,-266.53 103.01,-273.39 105.52,-266.86"/>
</g>
<!-- Node13 -->
<g id="node14" class="node">
<title>Node13</title>
<g id="a_node14"><a xlink:href="classkanon_1_1ITimerQueuePlatform.html" target="_top" xlink:title="A FIFO data structure that manage timers.">
<polygon fill="none" stroke="black" points="178,-266.5 178,-285.5 335,-285.5 335,-266.5 178,-266.5"/>
<text text-anchor="middle" x="256.5" y="-273.5" font-family="Helvetica,sans-Serif" font-size="10.00">kanon::ITimerQueuePlatform</text>
</a>
</g>
</g>
<!-- Node2&#45;&gt;Node13 -->
<g id="edge16" class="edge">
<title>Node2&#45;&gt;Node13</title>
<path fill="none" stroke="#8b1a1a" d="M119.78,-262.02C137.53,-263.85 158.07,-265.97 177.71,-267.99"/>
<polygon fill="#8b1a1a" stroke="#8b1a1a" points="119.98,-258.53 109.68,-260.98 119.27,-265.49 119.98,-258.53"/>
</g>
<!-- Node14 -->
<g id="node15" class="node">
<title>Node14</title>
<g id="a_node15"><a xlink:href="classkanon_1_1PollerBase.html" target="_top" xlink:title="Abstract base class of Poller and Epoller.">
<polygon fill="none" stroke="black" points="204.5,-228.5 204.5,-247.5 308.5,-247.5 308.5,-228.5 204.5,-228.5"/>
<text text-anchor="middle" x="256.5" y="-235.5" font-family="Helvetica,sans-Serif" font-size="10.00">kanon::PollerBase</text>
</a>
</g>
</g>
<!-- Node2&#45;&gt;Node14 -->
<g id="edge17" class="edge">
<title>Node2&#45;&gt;Node14</title>
<path fill="none" stroke="#8b1a1a" d="M119.71,-251.98C145.76,-249.3 177.83,-246 204.26,-243.28"/>
<polygon fill="#8b1a1a" stroke="#8b1a1a" points="119.27,-248.51 109.68,-253.02 119.98,-255.47 119.27,-248.51"/>
</g>
<!-- Node18 -->
<g id="node19" class="node">
<title>Node18</title>
<g id="a_node19"><a xlink:href="classkanon_1_1Socket.html" target="_top" xlink:title="Represents socket instance.">
<polygon fill="none" stroke="black" points="214,-190.5 214,-209.5 299,-209.5 299,-190.5 214,-190.5"/>
<text text-anchor="middle" x="256.5" y="-197.5" font-family="Helvetica,sans-Serif" font-size="10.00">kanon::Socket</text>
</a>
</g>
</g>
<!-- Node2&#45;&gt;Node18 -->
<g id="edge21" class="edge">
<title>Node2&#45;&gt;Node18</title>
<path fill="none" stroke="#8b1a1a" d="M104.43,-243.81C124.9,-236.01 151.74,-226.26 176,-219 188.1,-215.38 201.39,-211.98 213.59,-209.08"/>
<polygon fill="#8b1a1a" stroke="#8b1a1a" points="103.01,-240.61 94.93,-247.47 105.52,-247.14 103.01,-240.61"/>
</g>
<!-- Node20 -->
<g id="node20" class="node">
<title>Node20</title>
<g id="a_node20"><a xlink:href="classkanon_1_1TcpServer.html" target="_top" xlink:title="A Tcp server instance.">
<polygon fill="none" stroke="black" points="206.5,-152.5 206.5,-171.5 306.5,-171.5 306.5,-152.5 206.5,-152.5"/>
<text text-anchor="middle" x="256.5" y="-159.5" font-family="Helvetica,sans-Serif" font-size="10.00">kanon::TcpServer</text>
</a>
</g>
</g>
<!-- Node2&#45;&gt;Node20 -->
<g id="edge23" class="edge">
<title>Node2&#45;&gt;Node20</title>
<path fill="none" stroke="#8b1a1a" d="M88.76,-240.73C108.6,-223.43 142.36,-196.45 176,-181 185.41,-176.68 195.92,-173.27 206.14,-170.62"/>
<polygon fill="#8b1a1a" stroke="#8b1a1a" points="86.3,-238.24 81.15,-247.5 90.95,-243.47 86.3,-238.24"/>
</g>
<!-- Node21 -->
<g id="node21" class="node">
<title>Node21</title>
<g id="a_node21"><a xlink:href="classkanon_1_1Timer.html" target="_top" xlink:title="Encapsulation of itimespec.">
<polygon fill="none" stroke="black" points="216.5,-114.5 216.5,-133.5 296.5,-133.5 296.5,-114.5 216.5,-114.5"/>
<text text-anchor="middle" x="256.5" y="-121.5" font-family="Helvetica,sans-Serif" font-size="10.00">kanon::Timer</text>
</a>
</g>
</g>
<!-- Node2&#45;&gt;Node21 -->
<g id="edge24" class="edge">
<title>Node2&#45;&gt;Node21</title>
<path fill="none" stroke="#8b1a1a" d="M82.5,-238.88C99.67,-213.4 134.45,-167.37 176,-143 188.12,-135.89 202.75,-131.44 216.15,-128.65"/>
<polygon fill="#8b1a1a" stroke="#8b1a1a" points="79.56,-236.99 77,-247.26 85.41,-240.83 79.56,-236.99"/>
</g>
<!-- Node15 -->
<g id="node16" class="node">
<title>Node15</title>
<g id="a_node16"><a xlink:href="classkanon_1_1Epoller.html" target="_top" xlink:title="Demultiplexer (epoll(2) wrapper)">
<polygon fill="none" stroke="black" points="395,-266.5 395,-285.5 481,-285.5 481,-266.5 395,-266.5"/>
<text text-anchor="middle" x="438" y="-273.5" font-family="Helvetica,sans-Serif" font-size="10.00">kanon::Epoller</text>
</a>
</g>
</g>
<!-- Node14&#45;&gt;Node15 -->
<g id="edge18" class="edge">
<title>Node14&#45;&gt;Node15</title>
<path fill="none" stroke="midnightblue" d="M312.67,-249.68C339.12,-255.28 370.29,-261.88 394.8,-267.07"/>
<polygon fill="midnightblue" stroke="midnightblue" points="313.3,-246.24 302.8,-247.59 311.85,-253.08 313.3,-246.24"/>
</g>
<!-- Node16 -->
<g id="node17" class="node">
<title>Node16</title>
<g id="a_node17"><a xlink:href="classkanon_1_1IocpPoller.html" target="_top" xlink:title=" ">
<polygon fill="none" stroke="black" points="387.5,-228.5 387.5,-247.5 488.5,-247.5 488.5,-228.5 387.5,-228.5"/>
<text text-anchor="middle" x="438" y="-235.5" font-family="Helvetica,sans-Serif" font-size="10.00">kanon::IocpPoller</text>
</a>
</g>
</g>
<!-- Node14&#45;&gt;Node16 -->
<g id="edge19" class="edge">
<title>Node14&#45;&gt;Node16</title>
<path fill="none" stroke="midnightblue" d="M318.99,-238C341.32,-238 366.24,-238 387.41,-238"/>
<polygon fill="midnightblue" stroke="midnightblue" points="318.94,-234.5 308.94,-238 318.94,-241.5 318.94,-234.5"/>
</g>
<!-- Node17 -->
<g id="node18" class="node">
<title>Node17</title>
<g id="a_node18"><a xlink:href="classkanon_1_1Poller.html" target="_top" xlink:title="Demultiplexer (poll(2) wrapper)">
<polygon fill="none" stroke="black" points="398,-190.5 398,-209.5 478,-209.5 478,-190.5 398,-190.5"/>
<text text-anchor="middle" x="438" y="-197.5" font-family="Helvetica,sans-Serif" font-size="10.00">kanon::Poller</text>
</a>
</g>
</g>
<!-- Node14&#45;&gt;Node17 -->
<g id="edge20" class="edge">
<title>Node14&#45;&gt;Node17</title>
<path fill="none" stroke="midnightblue" d="M312.69,-226.32C340.22,-220.49 372.88,-213.57 397.82,-208.3"/>
<polygon fill="midnightblue" stroke="midnightblue" points="311.85,-222.92 302.8,-228.41 313.3,-229.76 311.85,-222.92"/>
</g>
</g>
</svg>
