<?xml version="1.0" encoding="UTF-8" standalone="no"?>
<!DOCTYPE svg PUBLIC "-//W3C//DTD SVG 1.1//EN"
 "http://www.w3.org/Graphics/SVG/1.1/DTD/svg11.dtd">
<!-- Generated by graphviz version 2.43.0 (0)
 -->
<!-- Title: kanon::Epoller Pages: 1 -->
<svg width="176pt" height="209pt"
 viewBox="0.00 0.00 176.00 209.00" xmlns="http://www.w3.org/2000/svg" xmlns:xlink="http://www.w3.org/1999/xlink">
<g id="graph0" class="graph" transform="scale(1 1) rotate(0) translate(4 205)">
<title>kanon::Epoller</title>
<!-- Node1 -->
<g id="node1" class="node">
<title>Node1</title>
<g id="a_node1"><a xlink:title="Demultiplexer (epoll(2) wrapper)">
<polygon fill="#bfbfbf" stroke="black" points="9,-0.5 9,-19.5 95,-19.5 95,-0.5 9,-0.5"/>
<text text-anchor="middle" x="52" y="-7.5" font-family="Helvetica,sans-Serif" font-size="10.00">kanon::Epoller</text>
</a>
</g>
</g>
<!-- Node2 -->
<g id="node2" class="node">
<title>Node2</title>
<g id="a_node2"><a xlink:href="classkanon_1_1PollerBase.html" target="_top" xlink:title="Abstract base class of Poller and Epoller.">
<polygon fill="none" stroke="black" points="0,-57.5 0,-76.5 104,-76.5 104,-57.5 0,-57.5"/>
<text text-anchor="middle" x="52" y="-64.5" font-family="Helvetica,sans-Serif" font-size="10.00">kanon::PollerBase</text>
</a>
</g>
</g>
<!-- Node2&#45;&gt;Node1 -->
<g id="edge1" class="edge">
<title>Node2&#45;&gt;Node1</title>
<path fill="none" stroke="midnightblue" d="M52,-47.12C52,-37.82 52,-27.06 52,-19.71"/>
<polygon fill="midnightblue" stroke="midnightblue" points="48.5,-47.41 52,-57.41 55.5,-47.41 48.5,-47.41"/>
</g>
<!-- Node3 -->
<g id="node3" class="node">
<title>Node3</title>
<g id="a_node3"><a xlink:title=" ">
<polygon fill="none" stroke="#bfbfbf" points="8.5,-181.5 8.5,-200.5 87.5,-200.5 87.5,-181.5 8.5,-181.5"/>
<text text-anchor="middle" x="48" y="-188.5" font-family="Helvetica,sans-Serif" font-size="10.00">noncopyable</text>
</a>
</g>
</g>
<!-- Node3&#45;&gt;Node2 -->
<g id="edge2" class="edge">
<title>Node3&#45;&gt;Node2</title>
<path fill="none" stroke="#8b1a1a" d="M48.62,-171.19C49.5,-144.4 51.07,-96.31 51.71,-76.69"/>
<polygon fill="#8b1a1a" stroke="#8b1a1a" points="45.12,-171.12 48.29,-181.23 52.11,-171.35 45.12,-171.12"/>
</g>
<!-- Node4 -->
<g id="node4" class="node">
<title>Node4</title>
<g id="a_node4"><a xlink:href="classkanon_1_1EventLoop.html" target="_top" xlink:title="A loop that process various events.">
<polygon fill="none" stroke="black" points="64,-124.5 64,-143.5 168,-143.5 168,-124.5 64,-124.5"/>
<text text-anchor="middle" x="116" y="-131.5" font-family="Helvetica,sans-Serif" font-size="10.00">kanon::EventLoop</text>
</a>
</g>
</g>
<!-- Node3&#45;&gt;Node4 -->
<g id="edge4" class="edge">
<title>Node3&#45;&gt;Node4</title>
<path fill="none" stroke="#8b1a1a" d="M66.55,-175C78.96,-164.96 94.85,-152.1 105.23,-143.71"/>
<polygon fill="#8b1a1a" stroke="#8b1a1a" points="64.2,-172.4 58.62,-181.41 68.6,-177.84 64.2,-172.4"/>
</g>
<!-- Node4&#45;&gt;Node2 -->
<g id="edge3" class="edge">
<title>Node4&#45;&gt;Node2</title>
<path fill="none" stroke="#9a32cd" stroke-dasharray="5,2" d="M100.24,-117C87.69,-104.25 70.6,-86.89 60.49,-76.63"/>
<polygon fill="#9a32cd" stroke="#9a32cd" points="97.86,-119.56 107.37,-124.23 102.85,-114.65 97.86,-119.56"/>
<text text-anchor="middle" x="102" y="-98" font-family="Helvetica,sans-Serif" font-size="10.00"> loop_</text>
</g>
</g>
</svg>
