<?xml version="1.0" encoding="UTF-8" standalone="no"?>
<!DOCTYPE svg PUBLIC "-//W3C//DTD SVG 1.1//EN"
 "http://www.w3.org/Graphics/SVG/1.1/DTD/svg11.dtd">
<!-- Generated by graphviz version 2.43.0 (0)
 -->
<!-- Title: kanon::TcpConnection Pages: 1 -->
<svg width="745pt" height="173pt"
 viewBox="0.00 0.00 745.00 173.00" xmlns="http://www.w3.org/2000/svg" xmlns:xlink="http://www.w3.org/1999/xlink">
<g id="graph0" class="graph" transform="scale(1 1) rotate(0) translate(4 169)">
<title>kanon::TcpConnection</title>
<!-- Node1 -->
<g id="node1" class="node">
<title>Node1</title>
<g id="a_node1"><a xlink:title="Represents a tcp connection.">
<polygon fill="#bfbfbf" stroke="black" points="614,-56.5 614,-75.5 737,-75.5 737,-56.5 614,-56.5"/>
<text text-anchor="middle" x="675.5" y="-63.5" font-family="Helvetica,sans-Serif" font-size="10.00">kanon::TcpConnection</text>
</a>
</g>
</g>
<!-- Node2 -->
<g id="node2" class="node">
<title>Node2</title>
<g id="a_node2"><a xlink:href="classkanon_1_1ConnectionBase.html" target="_top" xlink:title=" ">
<polygon fill="none" stroke="black" points="388,-77 388,-107 519,-107 519,-77 388,-77"/>
<text text-anchor="start" x="396" y="-95" font-family="Helvetica,sans-Serif" font-size="10.00">kanon::ConnectionBase</text>
<text text-anchor="middle" x="453.5" y="-84" font-family="Helvetica,sans-Serif" font-size="10.00">&lt; TcpConnection &gt;</text>
</a>
</g>
</g>
<!-- Node2&#45;&gt;Node1 -->
<g id="edge1" class="edge">
<title>Node2&#45;&gt;Node1</title>
<path fill="none" stroke="midnightblue" d="M529.02,-83.19C556.61,-79.93 587.53,-76.28 613.75,-73.18"/>
<polygon fill="midnightblue" stroke="midnightblue" points="528.54,-79.73 519.02,-84.37 529.36,-86.68 528.54,-79.73"/>
</g>
<!-- Node3 -->
<g id="node3" class="node">
<title>Node3</title>
<g id="a_node3"><a xlink:title=" ">
<polygon fill="none" stroke="#bfbfbf" points="0,-145.5 0,-164.5 79,-164.5 79,-145.5 0,-145.5"/>
<text text-anchor="middle" x="39.5" y="-152.5" font-family="Helvetica,sans-Serif" font-size="10.00">noncopyable</text>
</a>
</g>
</g>
<!-- Node3&#45;&gt;Node2 -->
<g id="edge2" class="edge">
<title>Node3&#45;&gt;Node2</title>
<path fill="none" stroke="#8b1a1a" d="M89.23,-159.92C92.19,-160.01 95.14,-160.04 98,-160 219.52,-158.3 255.71,-173.32 370,-132 388.86,-125.18 409.14,-115.38 424.87,-107.19"/>
<polygon fill="#8b1a1a" stroke="#8b1a1a" points="89.28,-156.42 79.12,-159.43 88.94,-163.41 89.28,-156.42"/>
</g>
<!-- Node5 -->
<g id="node5" class="node">
<title>Node5</title>
<g id="a_node5"><a xlink:href="classkanon_1_1EventLoop.html" target="_top" xlink:title="A loop that process various events.">
<polygon fill="none" stroke="black" points="144.5,-126.5 144.5,-145.5 248.5,-145.5 248.5,-126.5 144.5,-126.5"/>
<text text-anchor="middle" x="196.5" y="-133.5" font-family="Helvetica,sans-Serif" font-size="10.00">kanon::EventLoop</text>
</a>
</g>
</g>
<!-- Node3&#45;&gt;Node5 -->
<g id="edge5" class="edge">
<title>Node3&#45;&gt;Node5</title>
<path fill="none" stroke="#8b1a1a" d="M89.25,-149.02C106.81,-146.87 126.67,-144.44 144.42,-142.26"/>
<polygon fill="#8b1a1a" stroke="#8b1a1a" points="88.71,-145.56 79.21,-150.25 89.56,-152.51 88.71,-145.56"/>
</g>
<!-- Node4 -->
<g id="node4" class="node">
<title>Node4</title>
<g id="a_node4"><a xlink:title=" ">
<polygon fill="none" stroke="#bfbfbf" points="116,-77 116,-107 277,-107 277,-77 116,-77"/>
<text text-anchor="start" x="124" y="-95" font-family="Helvetica,sans-Serif" font-size="10.00">std::enable_shared</text>
<text text-anchor="middle" x="196.5" y="-84" font-family="Helvetica,sans-Serif" font-size="10.00">_from_this&lt; TcpConnection &gt;</text>
</a>
</g>
</g>
<!-- Node4&#45;&gt;Node2 -->
<g id="edge3" class="edge">
<title>Node4&#45;&gt;Node2</title>
<path fill="none" stroke="midnightblue" d="M287.31,-92C320.5,-92 357.45,-92 387.96,-92"/>
<polygon fill="midnightblue" stroke="midnightblue" points="287.13,-88.5 277.13,-92 287.13,-95.5 287.13,-88.5"/>
</g>
<!-- Node5&#45;&gt;Node2 -->
<g id="edge4" class="edge">
<title>Node5&#45;&gt;Node2</title>
<path fill="none" stroke="#9a32cd" stroke-dasharray="5,2" d="M258.94,-125.4C297.86,-118.68 348.12,-110.01 387.68,-103.19"/>
<polygon fill="#9a32cd" stroke="#9a32cd" points="258.06,-122 248.8,-127.15 259.25,-128.9 258.06,-122"/>
<text text-anchor="middle" x="332.5" y="-120" font-family="Helvetica,sans-Serif" font-size="10.00"> loop_</text>
</g>
<!-- Node6 -->
<g id="node6" class="node">
<title>Node6</title>
<g id="a_node6"><a xlink:title=" ">
<polygon fill="none" stroke="#bfbfbf" points="164,-38.5 164,-57.5 229,-57.5 229,-38.5 164,-38.5"/>
<text text-anchor="middle" x="196.5" y="-45.5" font-family="Helvetica,sans-Serif" font-size="10.00">ChunkList</text>
</a>
</g>
</g>
<!-- Node6&#45;&gt;Node2 -->
<g id="edge6" class="edge">
<title>Node6&#45;&gt;Node2</title>
<path fill="none" stroke="#9a32cd" stroke-dasharray="5,2" d="M239.62,-54.92C274.56,-60.7 325.54,-69.22 370,-77 375.74,-78 381.69,-79.06 387.66,-80.13"/>
<polygon fill="#9a32cd" stroke="#9a32cd" points="239.75,-51.39 229.31,-53.22 238.61,-58.3 239.75,-51.39"/>
<text text-anchor="middle" x="332.5" y="-80" font-family="Helvetica,sans-Serif" font-size="10.00"> output_buffer_</text>
</g>
<!-- Node7 -->
<g id="node7" class="node">
<title>Node7</title>
<g id="a_node7"><a xlink:title=" ">
<polygon fill="none" stroke="#bfbfbf" points="173,-0.5 173,-19.5 220,-19.5 220,-0.5 173,-0.5"/>
<text text-anchor="middle" x="196.5" y="-7.5" font-family="Helvetica,sans-Serif" font-size="10.00">Buffer</text>
</a>
</g>
</g>
<!-- Node7&#45;&gt;Node2 -->
<g id="edge7" class="edge">
<title>Node7&#45;&gt;Node2</title>
<path fill="none" stroke="#9a32cd" stroke-dasharray="5,2" d="M230.15,-11.97C266.34,-15.34 325.46,-24.44 370,-49 379.91,-54.46 378.52,-60.82 388,-67 393.74,-70.74 400.11,-74.05 406.57,-76.94"/>
<polygon fill="#9a32cd" stroke="#9a32cd" points="230.4,-8.48 220.14,-11.13 229.81,-15.45 230.4,-8.48"/>
<text text-anchor="middle" x="332.5" y="-52" font-family="Helvetica,sans-Serif" font-size="10.00"> input_buffer_</text>
</g>
<!-- Node8 -->
<g id="node8" class="node">
<title>Node8</title>
<g id="a_node8"><a xlink:href="classkanon_1_1InetAddr.html" target="_top" xlink:title="Represent a internet address(Ipv4 or Ipv6)">
<polygon fill="none" stroke="black" points="406.5,-38.5 406.5,-57.5 500.5,-57.5 500.5,-38.5 406.5,-38.5"/>
<text text-anchor="middle" x="453.5" y="-45.5" font-family="Helvetica,sans-Serif" font-size="10.00">kanon::InetAddr</text>
</a>
</g>
</g>
<!-- Node8&#45;&gt;Node1 -->
<g id="edge8" class="edge">
<title>Node8&#45;&gt;Node1</title>
<path fill="none" stroke="#9a32cd" stroke-dasharray="5,2" d="M510.87,-47.68C536.85,-48.02 568.05,-49.13 596,-52 606.33,-53.06 617.34,-54.7 627.75,-56.49"/>
<polygon fill="#9a32cd" stroke="#9a32cd" points="510.85,-44.18 500.82,-47.58 510.78,-51.18 510.85,-44.18"/>
<text text-anchor="middle" x="566.5" y="-66" font-family="Helvetica,sans-Serif" font-size="10.00"> local_addr_</text>
<text text-anchor="middle" x="566.5" y="-55" font-family="Helvetica,sans-Serif" font-size="10.00">peer_addr_</text>
</g>
</g>
</svg>
