<?xml version="1.0" encoding="UTF-8" standalone="no"?>
<!DOCTYPE svg PUBLIC "-//W3C//DTD SVG 1.1//EN"
 "http://www.w3.org/Graphics/SVG/1.1/DTD/svg11.dtd">
<!-- Generated by graphviz version 2.43.0 (0)
 -->
<!-- Title: kanon::PollerBase Pages: 1 -->
<svg width="312pt" height="140pt"
 viewBox="0.00 0.00 312.00 140.00" xmlns="http://www.w3.org/2000/svg" xmlns:xlink="http://www.w3.org/1999/xlink">
<g id="graph0" class="graph" transform="scale(1 1) rotate(0) translate(4 136)">
<title>kanon::PollerBase</title>
<!-- Node1 -->
<g id="node1" class="node">
<title>Node1</title>
<g id="a_node1"><a xlink:title="Abstract base class of Poller and Epoller.">
<polygon fill="#bfbfbf" stroke="black" points="103,-56.5 103,-75.5 207,-75.5 207,-56.5 103,-56.5"/>
<text text-anchor="middle" x="155" y="-63.5" font-family="Helvetica,sans-Serif" font-size="10.00">kanon::PollerBase</text>
</a>
</g>
</g>
<!-- Node3 -->
<g id="node3" class="node">
<title>Node3</title>
<g id="a_node3"><a xlink:href="classkanon_1_1Epoller.html" target="_top" xlink:title="Demultiplexer (epoll(2) wrapper)">
<polygon fill="none" stroke="black" points="0,-0.5 0,-19.5 86,-19.5 86,-0.5 0,-0.5"/>
<text text-anchor="middle" x="43" y="-7.5" font-family="Helvetica,sans-Serif" font-size="10.00">kanon::Epoller</text>
</a>
</g>
</g>
<!-- Node1&#45;&gt;Node3 -->
<g id="edge2" class="edge">
<title>Node1&#45;&gt;Node3</title>
<path fill="none" stroke="midnightblue" d="M127.75,-51.86C106.98,-41.85 78.98,-28.35 60.95,-19.65"/>
<polygon fill="midnightblue" stroke="midnightblue" points="126.48,-55.13 137.01,-56.32 129.52,-48.83 126.48,-55.13"/>
</g>
<!-- Node4 -->
<g id="node4" class="node">
<title>Node4</title>
<g id="a_node4"><a xlink:href="classkanon_1_1IocpPoller.html" target="_top" xlink:title=" ">
<polygon fill="none" stroke="black" points="104.5,-0.5 104.5,-19.5 205.5,-19.5 205.5,-0.5 104.5,-0.5"/>
<text text-anchor="middle" x="155" y="-7.5" font-family="Helvetica,sans-Serif" font-size="10.00">kanon::IocpPoller</text>
</a>
</g>
</g>
<!-- Node1&#45;&gt;Node4 -->
<g id="edge3" class="edge">
<title>Node1&#45;&gt;Node4</title>
<path fill="none" stroke="midnightblue" d="M155,-45.8C155,-36.91 155,-26.78 155,-19.75"/>
<polygon fill="midnightblue" stroke="midnightblue" points="151.5,-46.08 155,-56.08 158.5,-46.08 151.5,-46.08"/>
</g>
<!-- Node5 -->
<g id="node5" class="node">
<title>Node5</title>
<g id="a_node5"><a xlink:href="classkanon_1_1Poller.html" target="_top" xlink:title="Demultiplexer (poll(2) wrapper)">
<polygon fill="none" stroke="black" points="224,-0.5 224,-19.5 304,-19.5 304,-0.5 224,-0.5"/>
<text text-anchor="middle" x="264" y="-7.5" font-family="Helvetica,sans-Serif" font-size="10.00">kanon::Poller</text>
</a>
</g>
</g>
<!-- Node1&#45;&gt;Node5 -->
<g id="edge4" class="edge">
<title>Node1&#45;&gt;Node5</title>
<path fill="none" stroke="midnightblue" d="M181.52,-51.86C201.73,-41.85 228.99,-28.35 246.53,-19.65"/>
<polygon fill="midnightblue" stroke="midnightblue" points="179.92,-48.75 172.51,-56.32 183.03,-55.02 179.92,-48.75"/>
</g>
<!-- Node2 -->
<g id="node2" class="node">
<title>Node2</title>
<g id="a_node2"><a xlink:title=" ">
<polygon fill="none" stroke="#bfbfbf" points="115.5,-112.5 115.5,-131.5 194.5,-131.5 194.5,-112.5 115.5,-112.5"/>
<text text-anchor="middle" x="155" y="-119.5" font-family="Helvetica,sans-Serif" font-size="10.00">noncopyable</text>
</a>
</g>
</g>
<!-- Node2&#45;&gt;Node1 -->
<g id="edge1" class="edge">
<title>Node2&#45;&gt;Node1</title>
<path fill="none" stroke="#8b1a1a" d="M155,-101.8C155,-92.91 155,-82.78 155,-75.75"/>
<polygon fill="#8b1a1a" stroke="#8b1a1a" points="151.5,-102.08 155,-112.08 158.5,-102.08 151.5,-102.08"/>
</g>
</g>
</svg>
