<?xml version="1.0" encoding="UTF-8" standalone="no"?>
<!DOCTYPE svg PUBLIC "-//W3C//DTD SVG 1.1//EN"
 "http://www.w3.org/Graphics/SVG/1.1/DTD/svg11.dtd">
<!-- Generated by graphviz version 2.43.0 (0)
 -->
<!-- Title: kanon::Timer Pages: 1 -->
<svg width="179pt" height="95pt"
 viewBox="0.00 0.00 178.50 95.00" xmlns="http://www.w3.org/2000/svg" xmlns:xlink="http://www.w3.org/1999/xlink">
<g id="graph0" class="graph" transform="scale(1 1) rotate(0) translate(4 91)">
<title>kanon::Timer</title>
<!-- Node1 -->
<g id="node1" class="node">
<title>Node1</title>
<g id="a_node1"><a xlink:title="Encapsulation of itimespec.">
<polygon fill="#bfbfbf" stroke="black" points="46.5,-0.5 46.5,-19.5 126.5,-19.5 126.5,-0.5 46.5,-0.5"/>
<text text-anchor="middle" x="86.5" y="-7.5" font-family="Helvetica,sans-Serif" font-size="10.00">kanon::Timer</text>
</a>
</g>
</g>
<!-- Node2 -->
<g id="node2" class="node">
<title>Node2</title>
<g id="a_node2"><a xlink:title=" ">
<polygon fill="none" stroke="#bfbfbf" points="0,-67.5 0,-86.5 79,-86.5 79,-67.5 0,-67.5"/>
<text text-anchor="middle" x="39.5" y="-74.5" font-family="Helvetica,sans-Serif" font-size="10.00">noncopyable</text>
</a>
</g>
</g>
<!-- Node2&#45;&gt;Node1 -->
<g id="edge1" class="edge">
<title>Node2&#45;&gt;Node1</title>
<path fill="none" stroke="#8b1a1a" d="M51.86,-58.9C60.99,-46.27 73.05,-29.6 80.26,-19.63"/>
<polygon fill="#8b1a1a" stroke="#8b1a1a" points="48.86,-57.08 45.84,-67.23 54.53,-61.18 48.86,-57.08"/>
</g>
<!-- Node3 -->
<g id="node3" class="node">
<title>Node3</title>
<g id="a_node3"><a xlink:title=" ">
<polygon fill="none" stroke="#bfbfbf" points="97.5,-67.5 97.5,-86.5 169.5,-86.5 169.5,-67.5 97.5,-67.5"/>
<text text-anchor="middle" x="133.5" y="-74.5" font-family="Helvetica,sans-Serif" font-size="10.00">TimeStamp</text>
</a>
</g>
</g>
<!-- Node3&#45;&gt;Node1 -->
<g id="edge2" class="edge">
<title>Node3&#45;&gt;Node1</title>
<path fill="none" stroke="#9a32cd" stroke-dasharray="5,2" d="M121.14,-58.9C112.01,-46.27 99.95,-29.6 92.74,-19.63"/>
<polygon fill="#9a32cd" stroke="#9a32cd" points="118.47,-61.18 127.16,-67.23 124.14,-57.08 118.47,-61.18"/>
<text text-anchor="middle" x="141.5" y="-41" font-family="Helvetica,sans-Serif" font-size="10.00"> expiration_</text>
</g>
</g>
</svg>
